{"glyphs":{"0":{"ha":930,"x_min":87,"x_max":844,"o":"m 465 9 q 267 68 353 9 q 134 237 182 126 q 87 498 87 347 q 134 758 87 648 q 267 925 182 867 q 465 983 353 983 q 663 925 578 983 q 796 758 749 867 q 844 498 844 648 q 796 237 844 347 q 663 68 749 126 q 465 9 578 9 m 244 498 q 274 303 244 384 q 354 181 304 222 q 465 140 404 140 q 576 181 526 140 q 656 303 627 222 q 686 498 686 384 q 656 690 686 610 q 576 812 627 770 q 465 853 526 853 q 354 812 404 853 q 274 690 304 770 q 244 498 244 610 z "},"1":{"ha":543,"x_min":54,"x_max":393,"o":"m 54 897 q 154 919 92 897 q 243 970 216 941 l 393 970 l 393 24 l 236 24 l 236 812 q 153 770 212 788 q 54 753 94 753 l 54 897 z "},"2":{"ha":812,"x_min":77,"x_max":755,"o":"m 411 983 q 583 948 507 983 q 699 849 658 913 q 741 705 741 785 q 557 391 741 513 l 511 361 q 359 251 415 298 q 294 155 302 203 l 755 155 l 755 24 l 84 24 q 119 198 77 122 q 224 329 160 274 q 393 457 288 384 q 460 503 453 498 q 551 593 519 547 q 583 703 583 640 q 536 812 583 772 q 411 853 488 853 q 321 830 361 853 q 258 770 281 807 q 236 692 235 732 l 81 692 q 123 833 80 765 q 243 942 167 901 q 411 983 320 983 z "},"3":{"ha":861,"x_min":81,"x_max":791,"o":"m 754 713 q 633 521 754 601 q 746 437 701 496 q 791 301 791 377 q 746 147 791 213 q 621 45 701 81 q 437 9 541 9 q 179 89 277 9 q 81 312 81 168 l 237 312 q 294 184 236 229 q 437 140 353 140 q 580 182 524 140 q 636 301 636 225 q 575 414 636 377 q 427 452 514 452 l 323 452 l 323 581 l 427 581 q 547 618 495 581 q 600 713 600 655 q 551 816 600 779 q 431 853 503 853 q 314 815 366 853 q 262 719 262 777 l 106 719 q 151 857 106 796 q 270 950 195 917 q 431 983 345 983 q 592 950 518 983 q 710 856 666 917 q 754 713 754 795 z "},"4":{"ha":903,"x_min":47,"x_max":819,"o":"m 47 334 l 544 970 l 682 970 l 682 347 l 819 347 l 819 217 l 682 217 l 682 20 l 525 20 l 525 217 l 47 217 l 47 334 m 525 347 l 525 738 l 236 347 l 525 347 z "},"5":{"ha":848,"x_min":77,"x_max":766,"o":"m 766 334 q 722 163 766 236 q 598 50 677 90 q 420 9 519 9 q 241 44 319 9 q 120 142 163 79 q 77 285 77 205 l 233 285 q 286 182 233 224 q 420 140 338 140 q 559 189 506 140 q 612 334 612 239 q 560 466 612 416 q 434 515 509 515 q 328 497 374 515 q 237 442 281 479 l 94 442 l 148 970 l 690 970 l 690 840 l 294 840 l 267 593 q 350 631 297 616 q 448 646 403 646 q 616 606 544 646 q 727 496 688 567 q 766 334 766 426 z "},"6":{"ha":891,"x_min":88,"x_max":814,"o":"m 465 644 q 641 604 562 644 q 767 492 720 564 q 814 328 814 420 q 768 163 814 235 q 645 51 723 91 q 471 11 567 11 q 261 69 347 11 q 132 231 175 127 q 88 472 88 335 q 180 846 88 709 q 468 983 273 983 q 628 951 553 983 q 749 863 703 920 q 798 734 795 806 l 639 734 q 585 818 632 784 q 471 852 538 852 q 304 766 368 852 q 236 544 241 680 q 340 619 278 594 q 465 644 403 644 m 259 328 q 318 193 259 245 q 469 141 377 141 q 605 192 552 141 q 658 328 658 243 q 604 464 658 414 q 464 514 549 514 q 317 462 376 514 q 259 328 259 410 z "},"7":{"ha":746,"x_min":47,"x_max":705,"o":"m 227 24 q 313 428 227 212 q 525 838 399 644 l 47 838 l 47 968 l 705 968 l 705 859 q 485 441 574 665 q 396 24 396 218 l 227 24 z "},"8":{"ha":871,"x_min":54,"x_max":817,"o":"m 435 8 q 237 42 323 8 q 102 140 151 76 q 54 290 54 203 q 102 439 54 374 q 217 528 149 503 q 133 608 167 553 q 99 723 99 663 q 137 857 99 798 q 251 949 175 916 q 435 983 327 983 q 621 949 545 983 q 734 857 696 916 q 772 723 772 798 q 738 607 772 662 q 655 528 704 552 q 770 438 723 503 q 817 290 817 373 q 769 140 817 203 q 635 42 722 76 q 435 8 548 8 m 212 293 q 274 176 212 217 q 435 136 336 136 q 597 176 534 136 q 659 293 659 217 q 593 412 659 366 q 435 457 528 457 q 277 412 343 457 q 212 293 212 366 m 256 720 q 307 625 256 662 q 435 589 357 589 q 564 625 513 589 q 614 720 614 662 q 569 819 614 781 q 435 856 524 856 q 302 819 347 856 q 256 720 256 781 z "},"9":{"ha":902,"x_min":88,"x_max":814,"o":"m 437 350 q 261 390 340 350 q 135 502 182 430 q 88 666 88 574 q 134 831 88 758 q 260 943 180 903 q 435 983 339 983 q 718 864 621 983 q 814 536 814 745 q 730 148 814 285 q 448 11 646 11 q 279 42 355 11 q 157 130 203 73 q 106 260 110 187 l 264 260 q 322 175 273 208 q 448 142 372 142 q 608 224 553 142 q 666 452 663 307 q 564 375 627 400 q 437 350 502 350 m 244 666 q 298 530 244 581 q 437 480 351 480 q 583 529 526 480 q 640 666 640 578 q 585 802 640 751 q 435 853 529 853 q 298 802 353 853 q 244 666 244 751 z "}," ":{"ha":298,"x_min":0,"x_max":0,"o":""}," ":{"ha":298,"x_min":0,"x_max":0,"o":""},"A":{"ha":895,"x_min":16,"x_max":879,"o":"m 343 970 l 552 970 l 879 24 l 699 24 l 623 271 l 273 271 l 197 24 l 16 24 l 343 970 m 583 401 l 449 842 l 446 842 l 312 401 l 583 401 z "},"Æ":{"ha":1234,"x_min":16,"x_max":1191,"o":"m 429 970 l 1171 970 l 1171 840 l 681 840 l 681 570 l 1158 570 l 1158 439 l 681 439 l 681 155 l 1191 155 l 1191 24 l 633 24 q 559 52 589 24 q 529 125 529 80 l 529 271 l 298 271 l 197 24 l 16 24 l 429 970 m 529 401 l 529 836 l 351 401 l 529 401 z "},"B":{"ha":875,"x_min":95,"x_max":831,"o":"m 199 24 q 125 52 155 24 q 95 125 95 80 l 95 970 l 457 970 q 701 896 621 970 q 781 705 781 822 q 754 597 781 646 q 674 519 727 548 q 785 423 739 488 q 831 285 831 358 q 752 95 831 165 q 507 24 673 24 l 199 24 m 525 155 q 635 196 591 155 q 680 298 680 237 q 635 399 680 359 q 525 439 591 439 l 247 439 l 247 155 l 525 155 m 475 570 q 585 608 541 570 q 629 705 629 646 q 585 802 629 764 q 475 840 541 840 l 247 840 l 247 570 l 475 570 z "},"C":{"ha":920,"x_min":75,"x_max":876,"o":"m 876 127 q 716 43 811 75 q 515 11 621 11 q 296 69 396 11 q 135 237 195 127 q 75 498 75 347 q 135 757 75 647 q 296 924 195 867 q 515 982 396 982 q 718 940 627 982 q 864 818 808 898 l 743 736 q 645 821 705 789 q 515 852 585 852 q 368 809 433 852 q 268 686 304 766 q 232 498 232 606 q 268 307 232 388 q 368 184 304 227 q 515 141 431 141 q 670 171 597 141 q 802 245 743 201 l 876 127 z "},"D":{"ha":916,"x_min":95,"x_max":872,"o":"m 95 970 l 423 970 q 642 917 538 970 q 808 758 745 864 q 872 498 872 651 q 808 237 872 343 q 642 77 745 130 q 423 24 538 24 l 199 24 q 125 51 156 24 q 95 121 95 77 l 95 970 m 423 155 q 569 192 503 155 q 675 307 635 229 q 715 498 715 384 q 675 687 715 610 q 569 802 635 764 q 423 840 503 840 l 254 840 l 254 155 l 423 155 z "},"Ð":{"ha":929,"x_min":-9,"x_max":886,"o":"m 109 570 l 109 970 l 437 970 q 655 917 552 970 q 822 758 758 864 q 886 498 886 651 q 822 237 886 343 q 655 77 758 130 q 437 24 552 24 l 213 24 q 139 51 170 24 q 109 121 109 77 l 109 437 l -9 437 l -9 570 l 109 570 m 437 155 q 583 192 517 155 q 688 307 648 229 q 728 498 728 384 q 688 687 728 610 q 583 802 648 764 q 437 840 517 840 l 267 840 l 267 570 l 500 570 l 500 437 l 267 437 l 267 155 l 437 155 z "},"E":{"ha":800,"x_min":95,"x_max":757,"o":"m 199 24 q 125 52 155 24 q 95 125 95 80 l 95 970 l 736 970 l 736 840 l 247 840 l 247 570 l 724 570 l 724 439 l 247 439 l 247 155 l 757 155 l 757 24 l 199 24 z "},"F":{"ha":793,"x_min":95,"x_max":750,"o":"m 95 970 l 750 970 l 750 840 l 247 840 l 247 570 l 738 570 l 738 439 l 247 439 l 247 24 l 95 24 l 95 970 z "},"G":{"ha":974,"x_min":75,"x_max":892,"o":"m 892 201 q 752 56 840 102 q 529 11 665 11 q 298 68 401 11 q 135 237 195 126 q 75 498 75 347 q 136 757 75 647 q 299 924 197 867 q 521 982 401 982 q 723 940 632 982 q 869 818 814 898 l 749 736 q 650 821 711 789 q 521 852 590 852 q 372 809 437 852 q 269 686 307 766 q 232 498 232 606 q 311 236 232 331 q 529 141 391 141 q 661 168 614 141 q 741 239 708 194 l 741 416 l 505 416 l 505 547 l 892 547 l 892 201 z "},"H":{"ha":944,"x_min":95,"x_max":849,"o":"m 95 970 l 252 970 l 252 578 l 692 578 l 692 970 l 849 970 l 849 24 l 692 24 l 692 448 l 252 448 l 252 24 l 95 24 l 95 970 z "},"Ħ":{"ha":944,"x_min":41,"x_max":903,"o":"m 95 719 l 41 719 l 41 849 l 95 849 l 95 970 l 252 970 l 252 849 l 692 849 l 692 970 l 849 970 l 849 849 l 903 849 l 903 719 l 849 719 l 849 24 l 692 24 l 692 448 l 252 448 l 252 24 l 95 24 l 95 719 m 692 578 l 692 719 l 252 719 l 252 578 l 692 578 z "},"I":{"ha":347,"x_min":95,"x_max":252,"o":"m 95 970 l 252 970 l 252 24 l 95 24 l 95 970 z "},"Ĳ":{"ha":1039,"x_min":102,"x_max":944,"o":"m 102 970 l 259 970 l 259 24 l 102 24 l 102 970 m 480 231 q 636 151 555 151 q 751 195 715 151 q 787 342 787 240 l 787 967 l 944 967 l 944 342 q 864 96 944 184 q 636 7 784 7 q 376 125 491 7 l 480 231 z "},"J":{"ha":680,"x_min":16,"x_max":585,"o":"m 585 967 l 585 342 q 505 96 585 184 q 277 7 425 7 q 16 125 132 7 l 121 231 q 277 151 195 151 q 391 195 355 151 q 427 342 427 240 l 427 967 l 585 967 z "},"K":{"ha":875,"x_min":95,"x_max":854,"o":"m 95 970 l 252 970 l 252 547 l 625 970 l 821 970 l 446 556 l 854 24 l 665 24 l 346 445 l 252 342 l 252 24 l 95 24 l 95 970 z "},"L":{"ha":785,"x_min":95,"x_max":739,"o":"m 199 24 q 125 52 155 24 q 95 125 95 80 l 95 970 l 247 970 l 247 155 l 739 155 l 739 24 l 199 24 z "},"Ŀ":{"ha":792,"x_min":102,"x_max":746,"o":"m 206 24 q 132 52 161 24 q 102 125 102 80 l 102 970 l 254 970 l 254 155 l 746 155 l 746 24 l 206 24 m 468 568 q 498 641 468 612 q 570 670 528 670 q 642 641 613 670 q 671 568 671 612 q 642 496 671 526 q 570 467 613 467 q 498 496 528 467 q 468 568 468 526 z "},"Ł":{"ha":812,"x_min":18,"x_max":766,"o":"m 227 24 q 152 52 182 24 q 122 125 122 80 l 122 378 l 18 345 l 18 477 l 122 511 l 122 970 l 274 970 l 274 562 l 487 632 l 487 499 l 274 429 l 274 155 l 766 155 l 766 24 l 227 24 z "},"M":{"ha":1107,"x_min":95,"x_max":1012,"o":"m 95 970 l 255 970 l 555 229 l 854 970 l 1012 970 l 1012 24 l 863 24 l 863 642 l 646 80 l 464 80 l 244 648 l 244 24 l 95 24 l 95 970 z "},"N":{"ha":944,"x_min":95,"x_max":849,"o":"m 849 970 l 849 24 l 673 24 l 244 770 l 244 24 l 95 24 l 95 970 l 282 970 l 700 262 l 700 970 l 849 970 z "},"Ŋ":{"ha":944,"x_min":95,"x_max":849,"o":"m 849 970 l 849 14 q 777 -193 849 -115 q 572 -271 704 -271 q 458 -244 514 -271 q 363 -174 403 -217 l 449 -72 q 563 -140 505 -140 q 686 14 686 -140 l 686 24 l 244 757 l 244 24 l 95 24 l 95 970 l 282 970 l 700 262 l 700 970 l 849 970 z "},"O":{"ha":1047,"x_min":75,"x_max":972,"o":"m 524 11 q 300 66 403 11 q 136 232 198 122 q 75 498 75 342 q 136 762 75 652 q 300 927 198 872 q 524 982 403 982 q 747 927 644 982 q 911 762 849 872 q 972 498 972 652 q 911 232 972 342 q 747 66 849 122 q 524 11 644 11 m 232 498 q 271 302 232 382 q 376 182 309 222 q 524 141 442 141 q 671 184 605 141 q 777 309 738 228 q 815 498 815 389 q 777 691 815 612 q 671 811 738 770 q 524 852 605 852 q 376 811 442 852 q 271 691 309 770 q 232 498 232 612 z "},"Ø":{"ha":1047,"x_min":75,"x_max":972,"o":"m 182 165 q 75 498 75 294 q 136 762 75 652 q 300 927 198 872 q 524 982 403 982 q 747 926 644 982 l 821 1025 l 936 945 l 857 840 q 972 498 972 709 q 911 232 972 342 q 747 66 849 122 q 524 11 644 11 q 289 73 392 11 l 216 -24 l 100 56 l 182 165 m 232 498 q 275 292 232 378 l 665 815 q 524 852 602 852 q 376 811 442 852 q 271 691 309 770 q 232 498 232 612 m 370 184 q 524 141 438 141 q 671 184 605 141 q 777 309 738 228 q 815 498 815 389 q 764 715 815 627 l 370 184 z "},"Œ":{"ha":1280,"x_min":72,"x_max":1237,"o":"m 1217 838 l 773 838 l 773 564 l 1206 564 l 1206 434 l 773 434 l 773 153 l 1237 153 l 1237 23 l 528 23 q 294 73 397 23 q 132 230 191 123 q 72 496 72 336 q 132 762 72 656 q 294 918 191 868 q 528 968 397 968 l 1217 968 l 1217 838 m 229 496 q 271 304 229 381 q 382 190 312 227 q 538 153 452 153 l 616 153 l 616 838 l 538 838 q 383 802 453 838 q 271 688 313 765 q 229 496 229 612 z "},"P":{"ha":865,"x_min":95,"x_max":798,"o":"m 247 385 l 247 11 l 95 11 l 95 970 l 453 970 q 712 888 627 970 q 798 678 798 806 q 715 465 798 545 q 467 385 633 385 l 247 385 m 471 515 q 596 562 547 515 q 646 678 646 608 q 596 793 646 747 q 471 840 547 840 l 247 840 l 247 515 l 471 515 z "},"Þ":{"ha":854,"x_min":95,"x_max":780,"o":"m 95 982 l 252 982 l 252 791 l 433 791 q 693 710 606 791 q 780 484 780 629 q 693 260 780 340 q 433 179 606 179 l 252 179 l 252 -39 l 95 -39 l 95 982 m 438 308 q 582 351 537 308 q 627 484 627 395 q 582 618 627 575 q 438 661 537 661 l 252 661 l 252 308 l 438 308 z "},"Q":{"ha":1043,"x_min":75,"x_max":1000,"o":"m 517 11 q 296 66 396 11 q 135 232 195 122 q 75 498 75 342 q 135 763 75 654 q 296 927 195 872 q 517 982 396 982 q 738 927 637 982 q 899 763 838 872 q 959 498 959 654 q 854 165 959 294 l 1000 -3 l 812 -3 l 749 72 q 517 11 646 11 m 232 498 q 269 302 232 382 q 371 182 307 222 q 517 141 435 141 q 656 180 593 141 l 446 425 l 632 425 l 753 285 q 802 498 802 372 q 764 692 802 612 q 663 812 727 772 q 517 852 598 852 q 371 812 435 852 q 269 692 307 772 q 232 498 232 612 z "},"R":{"ha":876,"x_min":95,"x_max":833,"o":"m 471 515 q 596 562 547 515 q 646 678 646 608 q 596 793 646 747 q 471 840 547 840 l 247 840 l 247 515 l 471 515 m 95 970 l 453 970 q 712 888 627 970 q 798 678 798 806 q 743 496 798 571 q 576 396 688 420 l 833 24 l 643 24 l 399 385 l 247 385 l 247 11 l 95 11 l 95 970 z "},"S":{"ha":864,"x_min":65,"x_max":803,"o":"m 420 983 q 661 921 567 983 q 769 730 754 859 l 617 730 q 553 821 609 789 q 419 852 498 852 q 288 821 340 852 q 231 739 236 791 q 339 597 220 628 q 534 551 411 578 q 731 456 659 524 q 799 262 803 389 q 751 132 796 189 q 625 43 705 75 q 442 11 545 11 q 260 43 343 11 q 124 138 176 75 q 65 289 72 201 l 214 289 q 290 180 227 218 q 442 141 353 141 q 581 178 524 141 q 642 275 639 214 q 606 375 646 342 q 488 429 566 408 q 435 442 460 437 q 391 452 410 448 q 290 475 339 463 q 79 719 79 529 q 126 865 79 806 q 251 954 174 925 q 420 983 328 983 z "},"T":{"ha":822,"x_min":47,"x_max":774,"o":"m 774 970 l 774 840 l 487 840 l 487 24 l 335 24 l 335 840 l 47 840 l 47 970 l 774 970 z "},"Ŧ":{"ha":982,"x_min":47,"x_max":774,"o":"m 774 970 l 774 840 l 487 840 l 487 544 l 707 544 l 707 414 l 487 414 l 487 24 l 335 24 l 335 414 l 115 414 l 115 544 l 335 544 l 335 840 l 47 840 l 47 970 l 774 970 z "},"U":{"ha":948,"x_min":95,"x_max":853,"o":"m 853 967 l 853 369 q 806 183 853 264 q 672 56 758 102 q 473 11 586 11 q 276 56 362 11 q 142 182 190 100 q 95 369 95 263 l 95 967 l 252 967 l 252 369 q 311 205 252 270 q 473 141 370 141 q 637 205 578 141 q 696 369 696 269 l 696 967 l 853 967 z "},"V":{"ha":887,"x_min":16,"x_max":871,"o":"m 446 165 l 699 967 l 871 967 l 540 11 l 349 11 l 16 967 l 187 967 l 442 165 l 446 165 z "},"W":{"ha":1105,"x_min":16,"x_max":1089,"o":"m 304 229 l 469 954 l 636 954 l 803 229 l 804 229 l 933 967 l 1089 967 l 898 11 l 723 11 l 555 736 l 552 736 l 382 11 l 208 11 l 16 967 l 172 967 l 302 229 l 304 229 z "},"X":{"ha":905,"x_min":19,"x_max":888,"o":"m 538 503 l 888 11 l 703 11 l 446 368 l 199 11 l 19 11 l 363 503 l 37 967 l 224 967 l 454 639 l 684 967 l 863 967 l 538 503 z "},"Y":{"ha":890,"x_min":16,"x_max":873,"o":"m 525 396 l 525 11 l 368 11 l 368 396 l 16 967 l 199 967 l 452 543 l 696 967 l 873 967 l 525 396 z "},"Z":{"ha":899,"x_min":75,"x_max":838,"o":"m 838 153 l 838 24 l 75 24 l 75 160 l 608 838 l 98 838 l 98 968 l 800 968 l 800 842 l 256 153 l 838 153 z "},"Ａ":{"ha":1194,"x_min":165,"x_max":1028,"o":"m 492 970 l 701 970 l 1028 24 l 848 24 l 772 271 l 422 271 l 346 24 l 165 24 l 492 970 m 732 401 l 598 842 l 595 842 l 461 401 l 732 401 z "},"Ｂ":{"ha":1194,"x_min":244,"x_max":981,"o":"m 349 24 q 274 52 304 24 q 244 125 244 80 l 244 970 l 606 970 q 850 896 770 970 q 930 705 930 822 q 903 597 930 646 q 823 519 876 548 q 935 423 888 488 q 981 285 981 358 q 901 95 981 165 q 656 24 822 24 l 349 24 m 674 155 q 785 196 741 155 q 829 298 829 237 q 785 399 829 359 q 674 439 741 439 l 396 439 l 396 155 l 674 155 m 624 570 q 734 608 690 570 q 779 705 779 646 q 734 802 779 764 q 624 840 690 840 l 396 840 l 396 570 l 624 570 z "},"Ｃ":{"ha":1194,"x_min":202,"x_max":1004,"o":"m 1004 127 q 844 43 939 75 q 643 11 749 11 q 423 69 524 11 q 262 237 323 127 q 202 498 202 347 q 262 757 202 647 q 423 924 323 867 q 643 982 524 982 q 845 940 754 982 q 991 818 936 898 l 871 736 q 772 821 833 789 q 643 852 712 852 q 496 809 560 852 q 395 686 431 766 q 359 498 359 606 q 395 307 359 388 q 495 184 431 227 q 643 141 559 141 q 798 171 724 141 q 929 245 871 201 l 1004 127 z "},"Ｄ":{"ha":1194,"x_min":231,"x_max":1008,"o":"m 231 970 l 559 970 q 777 917 674 970 q 944 758 880 864 q 1008 498 1008 651 q 944 237 1008 343 q 777 77 880 130 q 559 24 674 24 l 335 24 q 261 51 292 24 q 231 121 231 77 l 231 970 m 559 155 q 705 192 639 155 q 810 307 770 229 q 850 498 850 384 q 810 687 850 610 q 705 802 770 764 q 559 840 639 840 l 389 840 l 389 155 l 559 155 z "},"Ｅ":{"ha":1194,"x_min":285,"x_max":947,"o":"m 389 24 q 315 52 345 24 q 285 125 285 80 l 285 970 l 926 970 l 926 840 l 437 840 l 437 570 l 914 570 l 914 439 l 437 439 l 437 155 l 947 155 l 947 24 l 389 24 z "},"Ｆ":{"ha":1194,"x_min":285,"x_max":940,"o":"m 285 970 l 940 970 l 940 840 l 437 840 l 437 570 l 928 570 l 928 439 l 437 439 l 437 24 l 285 24 l 285 970 z "},"Ｇ":{"ha":1194,"x_min":199,"x_max":1017,"o":"m 1017 201 q 877 56 964 102 q 654 11 789 11 q 423 68 526 11 q 260 237 320 126 q 199 498 199 347 q 260 757 199 647 q 424 924 321 867 q 646 982 526 982 q 848 940 757 982 q 994 818 939 898 l 873 736 q 775 821 836 789 q 646 852 715 852 q 496 809 562 852 q 394 686 431 766 q 357 498 357 606 q 436 236 357 331 q 654 141 515 141 q 786 168 739 141 q 865 239 833 194 l 865 416 l 629 416 l 629 547 l 1017 547 l 1017 201 z "},"Ｈ":{"ha":1194,"x_min":220,"x_max":974,"o":"m 220 970 l 377 970 l 377 578 l 817 578 l 817 970 l 974 970 l 974 24 l 817 24 l 817 448 l 377 448 l 377 24 l 220 24 l 220 970 z "},"Ｉ":{"ha":1194,"x_min":518,"x_max":675,"o":"m 518 970 l 675 970 l 675 24 l 518 24 l 518 970 z "},"Ｊ":{"ha":1194,"x_min":301,"x_max":869,"o":"m 869 967 l 869 342 q 789 96 869 184 q 562 7 709 7 q 301 125 416 7 l 406 231 q 562 151 480 151 q 676 195 640 151 q 712 342 712 240 l 712 967 l 869 967 z "},"Ｋ":{"ha":1194,"x_min":231,"x_max":990,"o":"m 231 970 l 388 970 l 388 547 l 761 970 l 956 970 l 582 556 l 990 24 l 800 24 l 481 445 l 388 342 l 388 24 l 231 24 l 231 970 z "},"Ｌ":{"ha":1194,"x_min":298,"x_max":943,"o":"m 403 24 q 328 52 358 24 q 298 125 298 80 l 298 970 l 450 970 l 450 155 l 943 155 l 943 24 l 403 24 z "},"Ｍ":{"ha":1194,"x_min":138,"x_max":1055,"o":"m 138 970 l 298 970 l 598 229 l 898 970 l 1055 970 l 1055 24 l 906 24 l 906 642 l 689 80 l 507 80 l 288 648 l 288 24 l 138 24 l 138 970 z "},"Ｎ":{"ha":1194,"x_min":220,"x_max":974,"o":"m 974 970 l 974 24 l 798 24 l 369 770 l 369 24 l 220 24 l 220 970 l 407 970 l 825 262 l 825 970 l 974 970 z "},"Ｏ":{"ha":1194,"x_min":148,"x_max":1046,"o":"m 597 11 q 374 66 476 11 q 210 232 271 122 q 148 498 148 342 q 210 762 148 652 q 374 927 271 872 q 597 982 476 982 q 820 927 718 982 q 984 762 922 872 q 1046 498 1046 652 q 984 232 1046 342 q 820 66 922 122 q 597 11 718 11 m 305 498 q 344 302 305 382 q 449 182 382 222 q 597 141 515 141 q 745 184 678 141 q 850 309 811 228 q 888 498 888 389 q 850 691 888 612 q 745 811 811 770 q 597 852 678 852 q 449 811 515 852 q 344 691 382 770 q 305 498 305 612 z "},"Ｐ":{"ha":1194,"x_min":285,"x_max":987,"o":"m 437 385 l 437 11 l 285 11 l 285 970 l 643 970 q 902 888 817 970 q 987 678 987 806 q 905 465 987 545 q 656 385 823 385 l 437 385 m 661 515 q 786 562 736 515 q 836 678 836 608 q 786 793 836 747 q 661 840 736 840 l 437 840 l 437 515 l 661 515 z "},"Ｑ":{"ha":1194,"x_min":146,"x_max":1072,"o":"m 589 11 q 368 66 468 11 q 207 232 267 122 q 146 498 146 342 q 207 763 146 654 q 368 927 267 872 q 589 982 468 982 q 810 927 709 982 q 970 763 910 872 q 1031 498 1031 654 q 926 165 1031 294 l 1072 -3 l 884 -3 l 821 72 q 589 11 718 11 m 304 498 q 341 302 304 382 q 443 182 378 222 q 589 141 507 141 q 728 180 665 141 l 518 425 l 704 425 l 825 285 q 873 498 873 372 q 836 692 873 612 q 734 812 799 772 q 589 852 670 852 q 443 812 507 852 q 341 692 378 772 q 304 498 304 612 z "},"Ｒ":{"ha":1194,"x_min":269,"x_max":1006,"o":"m 644 515 q 770 562 720 515 q 819 678 819 608 q 770 793 819 747 q 644 840 720 840 l 420 840 l 420 515 l 644 515 m 269 970 l 627 970 q 886 888 800 970 q 971 678 971 806 q 916 496 971 571 q 750 396 861 420 l 1006 24 l 817 24 l 572 385 l 420 385 l 420 11 l 269 11 l 269 970 z "},"Ｓ":{"ha":1194,"x_min":231,"x_max":968,"o":"m 586 983 q 826 921 732 983 q 935 730 920 859 l 783 730 q 719 821 774 789 q 585 852 663 852 q 454 821 506 852 q 396 739 401 791 q 505 597 385 628 q 700 551 576 578 q 897 456 825 524 q 964 262 968 389 q 916 132 962 189 q 791 43 871 75 q 608 11 711 11 q 425 43 509 11 q 290 138 342 75 q 231 289 237 201 l 380 289 q 455 180 392 218 q 608 141 518 141 q 747 178 689 141 q 807 275 804 214 q 771 375 811 342 q 654 429 731 408 q 600 442 625 437 q 556 452 575 448 q 456 475 505 463 q 244 719 244 529 q 292 865 244 806 q 416 954 339 925 q 586 983 494 983 z "},"Ｔ":{"ha":1194,"x_min":233,"x_max":960,"o":"m 960 970 l 960 840 l 673 840 l 673 24 l 521 24 l 521 840 l 233 840 l 233 970 l 960 970 z "},"Ｕ":{"ha":1194,"x_min":217,"x_max":975,"o":"m 975 967 l 975 369 q 928 183 975 264 q 794 56 880 102 q 595 11 708 11 q 398 56 484 11 q 264 182 312 100 q 217 369 217 263 l 217 967 l 374 967 l 374 369 q 433 205 374 270 q 595 141 492 141 q 759 205 700 141 q 818 369 818 269 l 818 967 l 975 967 z "},"Ｖ":{"ha":1194,"x_min":170,"x_max":1024,"o":"m 600 165 l 852 967 l 1024 967 l 693 11 l 502 11 l 170 967 l 340 967 l 595 165 l 600 165 z "},"Ｗ":{"ha":1194,"x_min":61,"x_max":1134,"o":"m 349 229 l 514 954 l 681 954 l 848 229 l 849 229 l 978 967 l 1134 967 l 943 11 l 768 11 l 600 736 l 597 736 l 427 11 l 252 11 l 61 967 l 217 967 l 347 229 l 349 229 z "},"Ｘ":{"ha":1194,"x_min":163,"x_max":1032,"o":"m 682 503 l 1032 11 l 846 11 l 590 368 l 343 11 l 163 11 l 507 503 l 180 967 l 368 967 l 598 639 l 827 967 l 1006 967 l 682 503 z "},"Ｙ":{"ha":1194,"x_min":168,"x_max":1025,"o":"m 677 396 l 677 11 l 519 11 l 519 396 l 168 967 l 351 967 l 604 543 l 848 967 l 1025 967 l 677 396 z "},"Ｚ":{"ha":1194,"x_min":224,"x_max":987,"o":"m 987 153 l 987 24 l 224 24 l 224 160 l 757 838 l 247 838 l 247 968 l 949 968 l 949 842 l 406 153 l 987 153 z "},"a":{"ha":873,"x_min":47,"x_max":785,"o":"m 412 11 q 220 54 302 11 q 92 176 137 98 q 47 354 47 254 q 92 531 47 453 q 220 653 137 609 q 412 697 302 697 q 539 674 483 697 q 628 606 595 651 l 628 682 l 785 682 l 785 24 l 628 24 l 628 114 q 541 39 598 66 q 412 11 484 11 m 205 354 q 233 239 205 288 q 310 164 262 190 q 415 138 358 138 q 527 164 476 138 q 608 239 578 190 q 639 354 639 288 q 608 469 639 419 q 527 544 578 518 q 415 570 476 570 q 310 544 358 570 q 233 469 262 518 q 205 354 205 419 z "},"æ":{"ha":1306,"x_min":47,"x_max":1259,"o":"m 1249 149 q 1116 43 1198 80 q 940 7 1035 7 q 772 39 846 7 q 651 133 697 72 q 502 42 590 75 q 317 9 414 9 q 118 63 189 9 q 47 209 47 117 q 323 429 47 391 q 506 441 427 441 q 579 438 530 441 q 554 502 578 472 q 487 550 530 532 q 389 568 444 568 q 278 544 326 568 q 228 486 231 519 l 68 486 q 111 591 71 543 q 224 669 151 640 q 393 699 297 699 q 554 670 483 699 q 663 594 625 642 q 775 673 708 646 q 926 700 842 700 q 1098 659 1023 700 q 1216 542 1173 617 q 1259 368 1259 467 q 1249 294 1259 330 l 746 294 q 812 177 760 217 q 940 137 864 137 q 1053 166 1004 137 q 1143 251 1101 195 l 1249 149 m 205 203 q 312 140 205 140 q 431 157 373 140 q 528 202 488 175 q 579 258 568 229 l 579 308 q 510 312 549 312 q 342 297 425 312 q 241 260 278 285 q 205 203 205 235 m 1093 425 q 1044 528 1093 487 q 926 570 996 570 q 805 528 857 570 q 747 425 753 487 l 1093 425 z "},"b":{"ha":887,"x_min":88,"x_max":826,"o":"m 461 11 q 332 39 389 11 q 245 114 275 66 l 245 24 l 88 24 l 88 970 l 245 970 l 245 606 q 334 674 278 651 q 461 697 391 697 q 652 653 570 697 q 781 531 735 609 q 826 354 826 453 q 781 176 826 255 q 652 54 735 98 q 461 11 570 11 m 235 354 q 266 239 235 288 q 349 164 297 190 q 458 138 400 138 q 562 164 514 138 q 640 239 610 190 q 669 354 669 288 q 640 469 669 419 q 562 544 610 518 q 458 570 514 570 q 349 543 400 570 q 266 468 297 517 q 235 354 235 419 z "},"c":{"ha":780,"x_min":47,"x_max":719,"o":"m 719 149 q 587 43 667 80 q 415 7 506 7 q 226 46 309 7 q 95 163 142 85 q 47 351 47 240 q 144 606 47 514 q 406 699 240 699 q 567 662 490 699 q 694 557 644 625 l 586 458 q 406 559 514 559 q 260 505 317 559 q 202 351 202 450 q 263 203 202 256 q 415 149 324 149 q 524 175 476 149 q 613 251 572 201 l 719 149 z "},"d":{"ha":873,"x_min":47,"x_max":785,"o":"m 412 11 q 223 55 307 11 q 94 177 140 99 q 47 354 47 255 q 94 531 47 453 q 223 653 140 609 q 412 697 307 697 q 539 674 483 697 q 628 606 595 651 l 628 970 l 785 970 l 785 24 l 628 24 l 628 114 q 541 39 598 66 q 412 11 484 11 m 205 354 q 235 239 205 289 q 313 164 264 190 q 415 138 361 138 q 525 164 473 138 q 608 239 576 190 q 639 354 639 288 q 608 468 639 419 q 525 543 576 517 q 415 570 473 570 q 313 543 361 570 q 235 468 264 517 q 205 354 205 419 z "},"ð":{"ha":791,"x_min":73,"x_max":718,"o":"m 625 844 l 537 810 q 671 611 624 722 q 718 377 718 500 q 676 176 718 260 q 563 49 635 92 q 397 5 491 5 q 232 46 305 5 q 116 164 159 87 q 73 347 73 241 q 117 526 73 449 q 228 643 160 602 q 368 684 296 684 q 495 656 448 684 q 401 758 452 718 l 195 678 l 179 795 l 283 834 q 193 875 245 854 l 243 993 q 439 892 351 954 l 613 958 l 625 844 m 225 347 q 273 190 225 244 q 397 136 321 136 q 522 190 473 136 q 570 347 570 244 q 522 505 570 452 q 397 557 473 557 q 273 505 321 557 q 225 347 225 452 z "},"đ":{"ha":884,"x_min":47,"x_max":841,"o":"m 399 899 l 628 899 l 628 970 l 785 970 l 785 899 l 841 899 l 841 772 l 785 772 l 785 24 l 628 24 l 628 114 q 541 39 598 66 q 412 11 484 11 q 223 55 307 11 q 94 177 140 99 q 47 354 47 255 q 94 531 47 453 q 223 653 140 609 q 412 697 307 697 q 539 674 483 697 q 628 606 595 651 l 628 772 l 399 772 l 399 899 m 205 354 q 235 239 205 289 q 313 164 264 190 q 415 138 361 138 q 525 164 473 138 q 608 239 576 190 q 639 354 639 288 q 608 468 639 419 q 525 543 576 517 q 415 570 473 570 q 313 543 361 570 q 235 468 264 517 q 205 354 205 419 z "},"e":{"ha":770,"x_min":47,"x_max":723,"o":"m 713 149 q 581 43 662 80 q 404 7 499 7 q 218 47 298 7 q 92 168 137 88 q 47 358 47 247 q 90 540 47 463 q 209 659 132 617 q 391 700 286 700 q 562 659 487 700 q 680 542 637 617 q 723 368 723 467 q 713 294 723 330 l 210 294 q 276 177 224 217 q 404 137 328 137 q 517 166 468 137 q 608 251 566 195 l 713 149 m 557 425 q 509 528 557 487 q 391 570 460 570 q 269 528 321 570 q 212 425 217 487 l 557 425 z "},"f":{"ha":556,"x_min":38,"x_max":552,"o":"m 156 548 l 38 548 l 38 678 l 156 678 l 156 736 q 380 1000 156 1000 q 552 930 481 1000 l 480 819 q 388 857 437 857 q 332 829 351 857 q 313 736 313 802 l 313 678 l 519 678 l 519 548 l 313 548 l 313 11 l 156 11 l 156 548 z "},"g":{"ha":860,"x_min":47,"x_max":772,"o":"m 385 699 q 523 671 460 699 q 614 598 586 644 l 614 684 l 772 684 l 772 49 q 722 -121 772 -49 q 587 -233 673 -194 q 396 -271 502 -271 q 109 -159 232 -271 l 194 -61 q 289 -119 232 -96 q 396 -141 346 -141 q 551 -93 488 -141 q 614 49 614 -45 l 614 119 q 523 41 581 72 q 399 11 465 11 q 213 54 293 11 q 90 175 133 98 q 47 354 47 252 q 89 534 47 456 q 207 655 130 612 q 385 699 283 699 m 205 354 q 261 197 205 254 q 401 140 317 140 q 551 197 491 140 q 612 354 612 254 q 581 471 612 422 q 498 545 549 519 q 388 570 446 570 q 258 513 311 570 q 205 354 205 456 z "},"h":{"ha":836,"x_min":88,"x_max":749,"o":"m 749 24 l 591 24 l 591 376 q 550 514 591 465 q 434 563 509 563 q 340 538 384 563 q 271 470 297 514 q 245 369 245 426 l 245 24 l 88 24 l 88 970 l 245 970 l 245 595 q 340 668 281 640 q 461 696 400 696 q 673 612 597 696 q 749 376 749 529 l 749 24 z "},"ħ":{"ha":836,"x_min":27,"x_max":749,"o":"m 749 24 l 591 24 l 591 376 q 550 514 591 465 q 434 563 509 563 q 340 538 384 563 q 271 470 297 514 q 245 369 245 426 l 245 24 l 88 24 l 88 772 l 27 772 l 27 899 l 88 899 l 88 970 l 245 970 l 245 899 l 469 899 l 469 772 l 245 772 l 245 595 q 340 668 281 640 q 461 696 400 696 q 673 612 597 696 q 749 376 749 529 l 749 24 z "},"i":{"ha":370,"x_min":88,"x_max":282,"o":"m 109 684 l 266 684 l 266 11 l 109 11 l 109 684 m 88 878 q 117 943 88 916 q 186 970 145 970 q 254 943 227 970 q 282 878 282 916 q 255 812 282 840 q 186 784 228 784 q 117 812 145 784 q 88 878 88 840 z "},"ı":{"ha":334,"x_min":88,"x_max":245,"o":"m 88 684 l 245 684 l 245 11 l 88 11 l 88 684 z "},"ĳ":{"ha":852,"x_min":95,"x_max":764,"o":"m 115 684 l 273 684 l 273 11 l 115 11 l 115 684 m 95 878 q 123 943 95 916 q 193 970 152 970 q 261 943 233 970 q 289 878 289 916 q 262 812 289 840 q 193 784 235 784 q 123 812 152 784 q 95 878 95 840 m 335 -72 q 395 -120 359 -100 q 463 -140 430 -140 q 558 -91 530 -140 q 586 73 586 -42 l 586 682 l 743 682 l 743 73 q 675 -181 743 -91 q 463 -271 608 -271 q 346 -244 401 -271 q 250 -174 290 -217 l 335 -72 m 570 878 q 598 943 570 916 q 666 970 627 970 q 736 943 709 970 q 764 878 764 917 q 736 812 764 838 q 666 785 709 785 q 598 812 627 785 q 570 878 570 840 z "},"j":{"ha":555,"x_min":-47,"x_max":467,"o":"m 446 73 q 378 -181 446 -91 q 165 -271 311 -271 q 49 -244 104 -271 q -47 -174 -7 -217 l 38 -72 q 98 -120 62 -100 q 165 -140 133 -140 q 261 -91 233 -140 q 289 73 289 -42 l 289 682 l 446 682 l 446 73 m 273 878 q 301 943 273 916 q 369 970 330 970 q 439 943 412 970 q 467 878 467 917 q 439 812 467 838 q 369 785 412 785 q 301 812 330 785 q 273 878 273 840 z "},"k":{"ha":768,"x_min":88,"x_max":751,"o":"m 88 970 l 245 970 l 245 416 l 522 685 l 726 685 l 437 401 l 751 24 l 555 24 l 332 298 l 245 213 l 245 24 l 88 24 l 88 970 z "},"ĸ":{"ha":768,"x_min":88,"x_max":751,"o":"m 88 697 l 245 697 l 245 416 l 522 685 l 726 685 l 437 401 l 751 24 l 555 24 l 332 298 l 245 213 l 245 24 l 88 24 l 88 697 z "},"l":{"ha":359,"x_min":88,"x_max":312,"o":"m 193 24 q 118 52 148 24 q 88 125 88 80 l 88 970 l 240 970 l 240 155 l 312 155 l 312 24 l 193 24 z "},"ŀ":{"ha":590,"x_min":95,"x_max":552,"o":"m 199 24 q 125 52 155 24 q 95 125 95 80 l 95 970 l 247 970 l 247 155 l 319 155 l 319 24 l 199 24 m 349 500 q 378 573 349 544 q 450 602 408 602 q 523 573 494 602 q 552 500 552 544 q 523 429 552 458 q 450 399 494 399 q 378 429 408 399 q 349 500 349 458 z "},"ł":{"ha":472,"x_min":27,"x_max":429,"o":"m 233 24 q 159 52 189 24 q 129 125 129 80 l 129 380 l 27 343 l 27 477 l 129 514 l 129 970 l 281 970 l 281 567 l 429 620 l 429 486 l 281 433 l 281 155 l 353 155 l 353 24 l 233 24 z "},"m":{"ha":1156,"x_min":88,"x_max":1067,"o":"m 1067 23 l 910 23 l 910 393 q 787 563 910 563 q 694 515 728 563 q 659 395 659 468 l 659 24 l 502 24 l 502 395 q 469 519 502 473 q 378 566 435 566 q 283 524 321 566 q 245 401 245 481 l 245 24 l 88 24 l 88 684 l 245 684 l 245 598 q 317 671 270 646 q 415 697 363 697 q 532 667 481 697 q 612 582 582 637 q 690 667 637 636 q 804 697 742 697 q 998 621 928 697 q 1067 387 1067 544 l 1067 23 z "},"n":{"ha":837,"x_min":88,"x_max":749,"o":"m 749 24 l 591 24 l 591 376 q 550 514 591 465 q 434 563 509 563 q 340 538 384 563 q 271 470 297 514 q 245 369 245 426 l 245 24 l 88 24 l 88 685 l 245 685 l 245 595 q 340 668 281 640 q 461 696 400 696 q 673 612 597 696 q 749 376 749 529 l 749 24 z "},"ŉ":{"ha":1013,"x_min":58,"x_max":925,"o":"m 58 631 l 106 970 l 271 970 l 198 631 l 58 631 m 264 685 l 422 685 l 422 595 q 517 668 457 640 q 637 696 576 696 q 849 612 773 696 q 925 376 925 529 l 925 24 l 768 24 l 768 376 q 726 514 768 465 q 610 563 685 563 q 517 538 560 563 q 448 470 473 514 q 422 369 422 426 l 422 24 l 264 24 l 264 685 z "},"ŋ":{"ha":837,"x_min":88,"x_max":749,"o":"m 749 14 q 679 -193 749 -115 q 477 -271 609 -271 q 363 -244 419 -271 q 269 -174 308 -217 l 354 -72 q 409 -121 378 -102 q 471 -140 439 -140 q 591 14 591 -140 l 591 376 q 550 514 591 465 q 434 563 509 563 q 340 538 384 563 q 271 470 297 514 q 245 369 245 426 l 245 24 l 88 24 l 88 685 l 245 685 l 245 595 q 340 668 281 640 q 461 696 400 696 q 673 612 597 696 q 749 376 749 529 l 749 14 z "},"o":{"ha":857,"x_min":61,"x_max":796,"o":"m 429 11 q 235 55 317 11 q 106 178 152 99 q 61 357 61 256 q 106 534 61 456 q 235 655 152 612 q 429 699 317 699 q 623 655 540 699 q 751 534 707 612 q 796 357 796 456 q 751 178 796 256 q 623 55 707 99 q 429 11 540 11 m 218 357 q 278 198 218 258 q 429 138 338 138 q 580 198 521 138 q 639 357 639 258 q 580 513 639 456 q 429 571 521 571 q 278 513 338 571 q 218 357 218 454 z "},"ø":{"ha":857,"x_min":61,"x_max":796,"o":"m 157 111 q 85 220 110 157 q 61 357 61 282 q 106 534 61 456 q 235 655 152 612 q 429 699 317 699 q 576 675 510 699 l 650 773 l 762 696 l 694 605 q 770 496 743 559 q 796 357 796 433 q 751 178 796 256 q 623 55 707 99 q 429 11 540 11 q 273 38 343 11 l 189 -75 l 76 3 l 157 111 m 218 357 q 250 236 218 286 l 492 563 q 429 571 464 571 q 278 513 338 571 q 218 357 218 454 m 355 149 q 429 138 392 138 q 580 198 521 138 q 639 357 639 258 q 604 483 639 431 l 355 149 z "},"œ":{"ha":1350,"x_min":61,"x_max":1289,"o":"m 415 11 q 228 55 308 11 q 104 178 148 99 q 61 357 61 256 q 104 534 61 456 q 228 655 148 612 q 415 699 308 699 q 572 670 502 699 q 688 589 642 642 q 801 671 732 643 q 956 700 869 700 q 1128 659 1053 700 q 1246 542 1203 617 q 1289 368 1289 467 q 1279 294 1289 330 l 776 294 q 842 177 789 217 q 970 137 894 137 q 1082 166 1034 137 q 1173 251 1131 195 l 1279 149 q 1146 43 1227 80 q 970 7 1065 7 q 808 37 880 7 q 688 123 735 66 q 572 40 642 69 q 415 11 502 11 m 218 357 q 274 198 218 258 q 415 138 330 138 q 557 197 502 138 q 612 357 612 256 q 557 513 612 456 q 415 571 502 571 q 274 513 330 571 q 218 357 218 456 m 1123 425 q 1074 528 1123 487 q 956 570 1025 570 q 835 528 887 570 q 777 425 783 487 l 1123 425 z "},"p":{"ha":887,"x_min":88,"x_max":826,"o":"m 461 699 q 650 654 567 699 q 780 532 734 610 q 826 354 826 453 q 780 177 826 255 q 650 55 734 99 q 461 11 567 11 q 334 34 391 11 q 245 100 278 57 l 245 -250 l 88 -250 l 88 684 l 245 684 l 245 598 q 332 672 275 646 q 461 699 389 699 m 235 354 q 266 238 235 288 q 349 163 297 189 q 458 138 400 138 q 561 164 513 138 q 639 239 609 190 q 669 354 669 288 q 639 471 669 422 q 561 545 609 519 q 458 571 513 571 q 349 546 400 571 q 266 471 297 521 q 235 354 235 422 z "},"þ":{"ha":841,"x_min":95,"x_max":780,"o":"m 95 970 l 252 970 l 252 628 q 338 680 286 662 q 445 699 389 699 q 625 655 549 699 q 740 534 700 612 q 780 357 780 457 q 740 178 780 256 q 625 55 700 99 q 445 11 549 11 q 336 28 387 11 q 252 81 285 46 l 252 -270 l 95 -270 l 95 970 m 256 357 q 307 195 256 251 q 439 138 358 138 q 572 197 521 138 q 623 357 623 256 q 572 513 623 456 q 439 571 521 571 q 307 516 358 571 q 256 357 256 461 z "},"q":{"ha":901,"x_min":61,"x_max":812,"o":"m 655 111 q 561 38 627 65 q 420 11 495 11 q 233 55 315 11 q 106 178 151 99 q 61 355 61 256 q 106 532 61 454 q 235 654 152 610 q 423 699 317 699 q 559 674 495 699 q 655 606 624 650 l 655 684 l 812 684 l 812 -250 l 655 -250 l 655 111 m 218 355 q 247 239 218 288 q 322 164 275 190 q 423 138 369 138 q 534 164 481 138 q 620 239 587 190 q 652 355 652 289 q 621 471 652 422 q 536 545 589 519 q 426 571 484 571 q 324 545 372 571 q 248 471 277 519 q 218 355 218 422 z "},"r":{"ha":536,"x_min":88,"x_max":533,"o":"m 499 556 q 450 559 480 559 q 415 557 426 559 q 293 500 340 551 q 245 370 245 450 l 245 24 l 88 24 l 88 684 l 245 684 l 245 602 q 332 669 278 644 q 442 697 387 694 q 492 699 463 699 q 533 696 519 699 l 499 556 z "},"s":{"ha":667,"x_min":58,"x_max":620,"o":"m 464 507 q 429 560 461 540 q 342 581 397 581 q 261 562 292 581 q 231 509 231 544 q 249 460 231 479 q 309 430 267 442 l 438 392 q 572 324 525 366 q 620 208 620 282 q 543 55 620 99 q 345 11 467 11 q 146 64 228 11 q 58 227 65 118 l 197 227 q 243 155 205 180 q 346 130 282 130 q 433 149 400 130 q 465 206 465 167 q 440 256 465 240 q 358 290 415 273 l 221 334 q 76 502 76 380 q 152 654 76 609 q 345 700 228 700 q 522 654 448 700 q 601 507 597 608 l 464 507 z "},"ß":{"ha":774,"x_min":95,"x_max":731,"o":"m 388 970 q 545 936 477 970 q 648 842 612 902 q 684 709 684 783 q 651 587 684 639 q 563 503 618 534 q 686 420 642 479 q 731 275 731 362 q 649 72 731 138 q 418 5 567 5 l 323 5 l 323 134 l 425 134 q 544 168 505 134 q 583 278 583 201 q 425 425 583 425 l 328 425 l 328 555 l 407 555 q 498 593 463 555 q 534 708 534 631 q 495 804 534 768 q 392 841 456 841 q 290 802 327 841 q 252 694 252 764 l 252 5 l 95 5 l 95 694 q 176 897 95 823 q 388 970 258 970 z "},"t":{"ha":562,"x_min":38,"x_max":564,"o":"m 300 888 l 300 684 l 506 684 l 506 553 l 300 553 l 300 274 q 378 153 300 153 q 479 201 437 153 l 564 90 q 372 11 490 11 q 198 81 254 11 q 142 274 142 151 l 142 553 l 38 553 l 38 684 l 142 684 l 142 888 l 300 888 z "},"ŧ":{"ha":562,"x_min":38,"x_max":564,"o":"m 300 888 l 300 765 l 506 765 l 506 635 l 300 635 l 300 494 l 506 494 l 506 363 l 300 363 l 300 274 q 378 153 300 153 q 479 201 437 153 l 564 90 q 372 11 490 11 q 198 81 254 11 q 142 274 142 151 l 142 363 l 38 363 l 38 494 l 142 494 l 142 635 l 38 635 l 38 765 l 142 765 l 142 888 l 300 888 z "},"u":{"ha":823,"x_min":88,"x_max":735,"o":"m 88 697 l 245 697 l 245 321 q 284 193 245 236 q 392 151 323 151 q 484 172 441 151 q 552 231 526 194 q 578 311 578 267 l 578 697 l 735 697 l 735 24 l 578 24 l 578 119 q 488 37 545 64 q 359 11 430 11 q 159 92 231 11 q 88 321 88 174 l 88 697 z "},"v":{"ha":724,"x_min":16,"x_max":708,"o":"m 426 11 l 309 11 l 16 697 l 184 697 l 366 206 l 368 206 l 540 697 l 708 697 l 426 11 z "},"w":{"ha":925,"x_min":16,"x_max":909,"o":"m 655 213 l 656 213 l 761 697 l 909 697 l 736 11 l 600 11 l 463 420 l 461 420 l 326 11 l 189 11 l 16 697 l 164 697 l 271 213 l 273 213 l 396 670 l 529 670 l 655 213 z "},"x":{"ha":716,"x_min":16,"x_max":694,"o":"m 445 362 l 694 16 l 521 16 l 355 244 l 193 16 l 16 16 l 269 368 l 37 697 l 212 697 l 358 488 l 499 697 l 677 697 l 445 362 z "},"y":{"ha":720,"x_min":16,"x_max":704,"o":"m 704 699 l 458 -28 q 371 -195 420 -140 q 248 -263 321 -251 q 180 -271 208 -270 q 136 -273 152 -273 q 114 -273 121 -273 l 114 -140 q 225 -126 195 -140 q 269 -93 251 -115 q 304 -19 286 -71 l 309 -1 l 16 699 l 189 699 l 373 190 l 543 699 l 704 699 z "},"z":{"ha":731,"x_min":76,"x_max":663,"o":"m 640 568 l 277 155 l 663 155 l 663 24 l 76 24 l 76 132 l 441 553 l 100 553 l 100 684 l 640 684 l 640 568 z "},"ａ":{"ha":1194,"x_min":229,"x_max":967,"o":"m 594 11 q 401 54 484 11 q 274 176 319 98 q 229 354 229 254 q 274 531 229 453 q 401 653 319 609 q 594 697 484 697 q 721 674 665 697 q 810 606 777 651 l 810 682 l 967 682 l 967 24 l 810 24 l 810 114 q 723 39 780 66 q 594 11 666 11 m 387 354 q 415 239 387 288 q 492 164 444 190 q 597 138 540 138 q 709 164 658 138 q 790 239 760 190 q 821 354 821 288 q 790 469 821 419 q 709 544 760 518 q 597 570 658 570 q 492 544 540 570 q 415 469 444 518 q 387 354 387 419 z "},"ｂ":{"ha":1194,"x_min":278,"x_max":1016,"o":"m 651 11 q 522 39 579 11 q 435 114 465 66 l 435 24 l 278 24 l 278 970 l 435 970 l 435 606 q 524 674 468 651 q 651 697 581 697 q 842 653 760 697 q 970 531 925 609 q 1016 354 1016 453 q 970 176 1016 255 q 842 54 925 98 q 651 11 760 11 m 425 354 q 456 239 425 288 q 538 164 487 190 q 648 138 590 138 q 752 164 704 138 q 829 239 800 190 q 859 354 859 288 q 829 469 859 419 q 752 544 800 518 q 648 570 704 570 q 538 543 590 570 q 456 468 487 517 q 425 354 425 419 z "},"ｃ":{"ha":1194,"x_min":264,"x_max":936,"o":"m 936 149 q 804 43 884 80 q 632 7 723 7 q 443 46 526 7 q 312 163 359 85 q 264 351 264 240 q 361 606 264 514 q 623 699 457 699 q 784 662 707 699 q 911 557 861 625 l 803 458 q 623 559 731 559 q 477 505 534 559 q 419 351 419 450 q 480 203 419 256 q 632 149 541 149 q 741 175 693 149 q 830 251 789 201 l 936 149 z "},"ｄ":{"ha":1194,"x_min":217,"x_max":955,"o":"m 582 11 q 393 55 476 11 q 263 177 309 99 q 217 354 217 255 q 263 531 217 453 q 393 653 309 609 q 582 697 476 697 q 709 674 652 697 q 798 606 765 651 l 798 970 l 955 970 l 955 24 l 798 24 l 798 114 q 711 39 768 66 q 582 11 654 11 m 374 354 q 404 239 374 289 q 482 164 434 190 q 585 138 530 138 q 694 164 643 138 q 777 239 746 190 q 808 354 808 288 q 777 468 808 419 q 694 543 746 517 q 585 570 643 570 q 482 543 530 570 q 404 468 434 517 q 374 354 374 419 z "},"ｅ":{"ha":1194,"x_min":256,"x_max":932,"o":"m 922 149 q 789 43 871 80 q 613 7 708 7 q 427 47 507 7 q 301 168 346 88 q 256 358 256 247 q 298 540 256 463 q 418 659 340 617 q 600 700 495 700 q 771 659 696 700 q 889 542 846 617 q 932 368 932 467 q 922 294 932 330 l 419 294 q 485 177 433 217 q 613 137 537 137 q 726 166 677 137 q 817 251 774 195 l 922 149 m 766 425 q 718 528 766 487 q 600 570 669 570 q 478 528 530 570 q 420 425 426 487 l 766 425 z "},"ｆ":{"ha":1194,"x_min":377,"x_max":891,"o":"m 495 548 l 377 548 l 377 678 l 495 678 l 495 736 q 719 1000 495 1000 q 891 930 821 1000 l 819 819 q 727 857 776 857 q 671 829 690 857 q 652 736 652 802 l 652 678 l 859 678 l 859 548 l 652 548 l 652 11 l 495 11 l 495 548 z "},"ｇ":{"ha":1194,"x_min":251,"x_max":975,"o":"m 589 699 q 726 671 663 699 q 818 598 789 644 l 818 684 l 975 684 l 975 49 q 926 -121 975 -49 q 791 -233 876 -194 q 600 -271 705 -271 q 312 -159 435 -271 l 397 -61 q 492 -119 435 -96 q 600 -141 549 -141 q 755 -93 692 -141 q 818 49 818 -45 l 818 119 q 726 41 784 72 q 602 11 669 11 q 416 54 496 11 q 294 175 336 98 q 251 354 251 252 q 292 534 251 456 q 410 655 334 612 q 589 699 487 699 m 408 354 q 465 197 408 254 q 605 140 521 140 q 755 197 694 140 q 815 354 815 254 q 784 471 815 422 q 701 545 753 519 q 591 570 650 570 q 461 513 514 570 q 408 354 408 456 z "},"ｈ":{"ha":1194,"x_min":267,"x_max":928,"o":"m 928 24 l 770 24 l 770 376 q 729 514 770 465 q 613 563 688 563 q 519 538 563 563 q 450 470 476 514 q 425 369 425 426 l 425 24 l 267 24 l 267 970 l 425 970 l 425 595 q 519 668 460 640 q 640 696 579 696 q 852 612 776 696 q 928 376 928 529 l 928 24 z "},"ｉ":{"ha":1194,"x_min":499,"x_max":693,"o":"m 519 684 l 677 684 l 677 11 l 519 11 l 519 684 m 499 878 q 528 943 499 916 q 597 970 556 970 q 665 943 637 970 q 693 878 693 916 q 666 812 693 840 q 597 784 639 784 q 528 812 556 784 q 499 878 499 840 z "},"ｊ":{"ha":1194,"x_min":332,"x_max":846,"o":"m 826 73 q 758 -181 826 -91 q 545 -271 690 -271 q 429 -244 484 -271 q 332 -174 373 -217 l 418 -72 q 477 -120 442 -100 q 545 -140 513 -140 q 641 -91 613 -140 q 669 73 669 -42 l 669 682 l 826 682 l 826 73 m 652 878 q 681 943 652 916 q 749 970 709 970 q 819 943 792 970 q 846 878 846 917 q 819 812 846 838 q 749 785 792 785 q 681 812 709 785 q 652 878 652 840 z "},"ｋ":{"ha":1194,"x_min":292,"x_max":955,"o":"m 292 970 l 449 970 l 449 416 l 726 685 l 929 685 l 640 401 l 955 24 l 758 24 l 536 298 l 449 213 l 449 24 l 292 24 l 292 970 z "},"ｌ":{"ha":1194,"x_min":502,"x_max":726,"o":"m 606 24 q 532 52 562 24 q 502 125 502 80 l 502 970 l 654 970 l 654 155 l 726 155 l 726 24 l 606 24 z "},"ｍ":{"ha":1194,"x_min":107,"x_max":1086,"o":"m 1086 23 l 929 23 l 929 393 q 806 563 929 563 q 713 515 747 563 q 678 395 678 468 l 678 24 l 521 24 l 521 395 q 488 519 521 473 q 397 566 454 566 q 302 524 340 566 q 264 401 264 481 l 264 24 l 107 24 l 107 684 l 264 684 l 264 598 q 336 671 289 646 q 434 697 382 697 q 551 667 500 697 q 631 582 601 637 q 709 667 656 636 q 823 697 761 697 q 1017 621 947 697 q 1086 387 1086 544 l 1086 23 z "},"ｎ":{"ha":1194,"x_min":267,"x_max":928,"o":"m 928 24 l 770 24 l 770 376 q 729 514 770 465 q 613 563 688 563 q 519 538 563 563 q 450 470 476 514 q 425 369 425 426 l 425 24 l 267 24 l 267 685 l 425 685 l 425 595 q 519 668 460 640 q 640 696 579 696 q 852 612 776 696 q 928 376 928 529 l 928 24 z "},"ｏ":{"ha":1194,"x_min":229,"x_max":964,"o":"m 597 11 q 403 55 486 11 q 275 178 320 99 q 229 357 229 256 q 275 534 229 456 q 403 655 320 612 q 597 699 486 699 q 791 655 708 699 q 920 534 875 612 q 964 357 964 456 q 920 178 964 256 q 791 55 875 99 q 597 11 708 11 m 387 357 q 446 198 387 258 q 597 138 506 138 q 748 198 689 138 q 807 357 807 258 q 748 513 807 456 q 597 571 689 571 q 446 513 506 571 q 387 357 387 454 z "},"ｐ":{"ha":1194,"x_min":251,"x_max":989,"o":"m 624 699 q 813 654 730 699 q 943 532 897 610 q 989 354 989 453 q 943 177 989 255 q 813 55 897 99 q 624 11 730 11 q 497 34 553 11 q 408 100 441 57 l 408 -250 l 251 -250 l 251 684 l 408 684 l 408 598 q 495 672 438 646 q 624 699 552 699 m 397 354 q 429 238 397 288 q 511 163 460 189 q 621 138 563 138 q 724 164 675 138 q 802 239 772 190 q 831 354 831 288 q 802 471 831 422 q 724 545 772 519 q 621 571 675 571 q 511 546 563 571 q 429 471 460 521 q 397 354 397 422 z "},"ｑ":{"ha":1194,"x_min":222,"x_max":974,"o":"m 817 111 q 722 38 788 65 q 582 11 656 11 q 394 55 476 11 q 267 178 312 99 q 222 355 222 256 q 268 532 222 454 q 396 654 313 610 q 585 699 479 699 q 721 674 656 699 q 817 606 785 650 l 817 684 l 974 684 l 974 -250 l 817 -250 l 817 111 m 380 355 q 408 239 380 288 q 484 164 437 190 q 585 138 530 138 q 696 164 643 138 q 781 239 749 190 q 814 355 814 289 q 782 471 814 422 q 698 545 750 519 q 587 571 646 571 q 486 545 533 571 q 409 471 438 519 q 380 355 380 422 z "},"ｒ":{"ha":1194,"x_min":427,"x_max":872,"o":"m 838 556 q 789 559 819 559 q 754 557 765 559 q 632 500 680 551 q 585 370 585 450 l 585 24 l 427 24 l 427 684 l 585 684 l 585 602 q 671 669 617 644 q 781 697 726 694 q 831 699 802 699 q 872 696 859 699 l 838 556 z "},"ｓ":{"ha":1194,"x_min":302,"x_max":864,"o":"m 708 507 q 673 560 705 540 q 586 581 642 581 q 505 562 536 581 q 475 509 475 544 q 493 460 475 479 q 553 430 511 442 l 682 392 q 817 324 769 366 q 864 208 864 282 q 787 55 864 99 q 589 11 711 11 q 391 64 472 11 q 302 227 309 118 l 441 227 q 488 155 449 180 q 590 130 526 130 q 677 149 644 130 q 709 206 709 167 q 684 256 709 240 q 602 290 659 273 l 465 334 q 320 502 320 380 q 396 654 320 609 q 589 700 472 700 q 766 654 692 700 q 845 507 841 608 l 708 507 z "},"ｔ":{"ha":1194,"x_min":350,"x_max":876,"o":"m 612 888 l 612 684 l 818 684 l 818 553 l 612 553 l 612 274 q 690 153 612 153 q 791 201 749 153 l 876 90 q 684 11 802 11 q 510 81 566 11 q 454 274 454 151 l 454 553 l 350 553 l 350 684 l 454 684 l 454 888 l 612 888 z "},"ｕ":{"ha":1194,"x_min":274,"x_max":921,"o":"m 274 697 l 431 697 l 431 321 q 470 193 431 236 q 578 151 509 151 q 669 172 627 151 q 738 231 712 194 q 764 311 764 267 l 764 697 l 921 697 l 921 24 l 764 24 l 764 119 q 673 37 731 64 q 545 11 616 11 q 345 92 416 11 q 274 321 274 174 l 274 697 z "},"ｖ":{"ha":1194,"x_min":251,"x_max":943,"o":"m 661 11 l 544 11 l 251 697 l 419 697 l 601 206 l 602 206 l 774 697 l 943 697 l 661 11 z "},"ｗ":{"ha":1194,"x_min":151,"x_max":1043,"o":"m 789 213 l 791 213 l 895 697 l 1043 697 l 871 11 l 734 11 l 597 420 l 595 420 l 460 11 l 323 11 l 151 697 l 298 697 l 406 213 l 407 213 l 530 670 l 663 670 l 789 213 z "},"ｘ":{"ha":1194,"x_min":258,"x_max":936,"o":"m 686 362 l 936 16 l 762 16 l 597 244 l 434 16 l 258 16 l 510 368 l 278 697 l 453 697 l 600 488 l 741 697 l 918 697 l 686 362 z "},"ｙ":{"ha":1194,"x_min":278,"x_max":966,"o":"m 966 699 l 720 -28 q 633 -195 682 -140 q 510 -263 583 -251 q 441 -271 469 -270 q 398 -273 414 -273 q 376 -273 382 -273 l 376 -140 q 487 -126 457 -140 q 530 -93 513 -115 q 566 -19 548 -71 l 571 -1 l 278 699 l 450 699 l 635 190 l 804 699 l 966 699 z "},"ｚ":{"ha":1194,"x_min":308,"x_max":895,"o":"m 872 568 l 509 155 l 895 155 l 895 24 l 308 24 l 308 132 l 673 553 l 332 553 l 332 684 l 872 684 l 872 568 z "},"ⁿ":{"ha":666,"x_min":95,"x_max":571,"o":"m 571 566 l 434 566 l 434 819 q 345 928 434 928 q 264 897 297 928 q 232 818 232 867 l 232 566 l 95 566 l 95 1042 l 232 1042 l 232 996 q 288 1035 252 1020 q 362 1050 324 1050 q 515 989 460 1050 q 571 819 571 928 l 571 566 z "},"ª":{"ha":677,"x_min":61,"x_max":595,"o":"m 326 548 q 186 580 245 548 q 94 668 126 612 q 61 798 61 724 q 94 926 61 869 q 186 1015 126 983 q 326 1047 247 1047 q 456 1008 404 1047 l 456 1038 l 595 1038 l 595 557 l 456 557 l 456 591 q 326 548 404 548 m 201 798 q 236 701 201 735 q 327 667 271 667 q 425 701 387 667 q 463 798 463 735 q 425 893 463 859 q 327 928 387 928 q 237 893 273 928 q 201 798 201 859 z "},"º":{"ha":678,"x_min":75,"x_max":608,"o":"m 340 547 q 200 579 260 547 q 107 669 140 612 q 75 799 75 726 q 107 927 75 871 q 200 1015 140 983 q 340 1047 260 1047 q 481 1015 420 1047 q 575 927 543 983 q 608 799 608 871 q 575 669 608 726 q 481 579 543 612 q 340 547 420 547 m 214 799 q 249 701 214 736 q 340 666 283 666 q 433 701 397 666 q 468 799 468 736 q 433 895 468 861 q 340 928 399 928 q 249 894 283 928 q 214 799 214 860 z "},"А":{"ha":895,"x_min":16,"x_max":879,"o":"m 343 970 l 552 970 l 879 24 l 699 24 l 623 271 l 273 271 l 197 24 l 16 24 l 343 970 m 583 401 l 449 842 l 446 842 l 312 401 l 583 401 z "},"Б":{"ha":875,"x_min":95,"x_max":831,"o":"m 525 155 q 635 196 591 155 q 680 298 680 237 q 637 400 680 361 q 529 439 595 439 l 247 439 l 247 155 l 525 155 m 95 970 l 760 970 l 760 840 l 247 840 l 247 570 l 518 570 q 755 487 680 570 q 831 285 831 404 q 752 95 831 165 q 507 24 673 24 l 199 24 q 125 52 155 24 q 95 125 95 80 l 95 970 z "},"В":{"ha":875,"x_min":95,"x_max":831,"o":"m 199 24 q 125 52 155 24 q 95 125 95 80 l 95 970 l 457 970 q 701 896 621 970 q 781 705 781 822 q 754 597 781 646 q 674 519 727 548 q 785 423 739 488 q 831 285 831 358 q 752 95 831 165 q 507 24 673 24 l 199 24 m 525 155 q 635 196 591 155 q 680 298 680 237 q 635 399 680 359 q 525 439 591 439 l 247 439 l 247 155 l 525 155 m 475 570 q 585 608 541 570 q 629 705 629 646 q 585 802 629 764 q 475 840 541 840 l 247 840 l 247 570 l 475 570 z "},"Г":{"ha":785,"x_min":95,"x_max":739,"o":"m 739 970 l 739 840 l 247 840 l 247 24 l 95 24 l 95 869 q 125 942 95 914 q 199 970 155 970 l 739 970 z "},"Д":{"ha":1085,"x_min":95,"x_max":990,"o":"m 180 149 q 260 323 231 220 q 294 595 290 427 l 305 970 l 902 970 l 902 149 l 990 149 l 990 -250 l 833 -250 l 833 24 l 252 24 l 252 -250 l 95 -250 l 95 149 l 180 149 m 745 149 l 745 845 l 450 845 l 444 576 q 416 332 439 435 q 349 149 392 229 l 745 149 z "},"Е":{"ha":800,"x_min":95,"x_max":757,"o":"m 199 24 q 125 52 155 24 q 95 125 95 80 l 95 970 l 736 970 l 736 840 l 247 840 l 247 570 l 724 570 l 724 439 l 247 439 l 247 155 l 757 155 l 757 24 l 199 24 z "},"Ё":{"ha":803,"x_min":98,"x_max":760,"o":"m 202 24 q 127 52 157 24 q 98 125 98 80 l 98 970 l 739 970 l 739 840 l 250 840 l 250 570 l 727 570 l 727 439 l 250 439 l 250 155 l 760 155 l 760 24 l 202 24 m 205 1124 q 230 1186 205 1161 q 293 1211 255 1211 q 355 1185 330 1211 q 380 1124 380 1160 q 355 1064 380 1089 q 293 1039 330 1039 q 230 1064 255 1039 q 205 1124 205 1089 m 492 1124 q 518 1186 492 1161 q 581 1211 544 1211 q 642 1186 617 1211 q 667 1124 667 1161 q 642 1064 667 1089 q 581 1039 617 1039 q 518 1064 544 1039 q 492 1124 492 1089 z "},"Ж":{"ha":1246,"x_min":61,"x_max":1185,"o":"m 545 454 l 487 454 l 232 18 l 61 18 l 359 515 l 77 968 l 250 968 l 487 578 l 545 578 l 545 968 l 703 968 l 703 578 l 760 578 l 997 968 l 1169 968 l 887 515 l 1185 18 l 1015 18 l 760 454 l 703 454 l 703 18 l 545 18 l 545 454 z "},"З":{"ha":861,"x_min":81,"x_max":791,"o":"m 754 713 q 633 521 754 601 q 746 437 701 496 q 791 301 791 377 q 746 147 791 213 q 621 45 701 81 q 437 9 541 9 q 179 89 277 9 q 81 312 81 168 l 237 312 q 294 184 236 229 q 437 140 353 140 q 580 182 524 140 q 636 301 636 225 q 575 414 636 377 q 427 452 514 452 l 323 452 l 323 581 l 427 581 q 547 618 495 581 q 600 713 600 655 q 551 816 600 779 q 431 853 503 853 q 314 815 366 853 q 262 719 262 777 l 106 719 q 151 857 106 796 q 270 950 195 917 q 431 983 345 983 q 592 950 518 983 q 710 856 666 917 q 754 713 754 795 z "},"И":{"ha":944,"x_min":95,"x_max":849,"o":"m 244 262 l 662 970 l 849 970 l 849 24 l 700 24 l 700 770 l 271 24 l 95 24 l 95 970 l 244 970 l 244 262 z "},"Й":{"ha":944,"x_min":95,"x_max":849,"o":"m 464 936 q 315 991 370 936 q 262 1134 259 1046 l 378 1134 q 461 1038 382 1038 q 547 1134 544 1038 l 663 1134 q 611 991 666 1046 q 464 936 556 936 m 95 970 l 244 970 l 244 262 l 662 970 l 849 970 l 849 24 l 700 24 l 700 770 l 271 24 l 95 24 l 95 970 z "},"К":{"ha":875,"x_min":95,"x_max":854,"o":"m 95 970 l 252 970 l 252 547 l 625 970 l 821 970 l 446 556 l 854 24 l 665 24 l 346 445 l 252 342 l 252 24 l 95 24 l 95 970 z "},"Л":{"ha":921,"x_min":61,"x_max":826,"o":"m 669 819 l 396 819 l 396 378 q 332 77 396 170 q 134 -15 269 -15 q 61 -9 95 -15 l 61 122 q 119 115 90 115 q 189 142 164 115 q 226 239 214 168 q 237 448 237 311 l 237 949 l 826 949 l 826 -7 l 669 -7 l 669 819 z "},"М":{"ha":1107,"x_min":95,"x_max":1012,"o":"m 95 970 l 255 970 l 555 229 l 854 970 l 1012 970 l 1012 24 l 863 24 l 863 642 l 646 80 l 464 80 l 244 648 l 244 24 l 95 24 l 95 970 z "},"Н":{"ha":944,"x_min":95,"x_max":849,"o":"m 95 970 l 252 970 l 252 578 l 692 578 l 692 970 l 849 970 l 849 24 l 692 24 l 692 448 l 252 448 l 252 24 l 95 24 l 95 970 z "},"О":{"ha":1047,"x_min":75,"x_max":972,"o":"m 524 11 q 300 66 403 11 q 136 232 198 122 q 75 498 75 342 q 136 762 75 652 q 300 927 198 872 q 524 982 403 982 q 747 927 644 982 q 911 762 849 872 q 972 498 972 652 q 911 232 972 342 q 747 66 849 122 q 524 11 644 11 m 232 498 q 271 302 232 382 q 376 182 309 222 q 524 141 442 141 q 671 184 605 141 q 777 309 738 228 q 815 498 815 389 q 777 691 815 612 q 671 811 738 770 q 524 852 605 852 q 376 811 442 852 q 271 691 309 770 q 232 498 232 612 z "},"П":{"ha":933,"x_min":95,"x_max":838,"o":"m 95 970 l 838 970 l 838 11 l 689 11 l 689 845 l 244 845 l 244 11 l 95 11 l 95 970 z "},"Р":{"ha":865,"x_min":95,"x_max":798,"o":"m 247 385 l 247 11 l 95 11 l 95 970 l 453 970 q 712 888 627 970 q 798 678 798 806 q 715 465 798 545 q 467 385 633 385 l 247 385 m 471 515 q 596 562 547 515 q 646 678 646 608 q 596 793 646 747 q 471 840 547 840 l 247 840 l 247 515 l 471 515 z "},"С":{"ha":920,"x_min":75,"x_max":876,"o":"m 876 127 q 716 43 811 75 q 515 11 621 11 q 296 69 396 11 q 135 237 195 127 q 75 498 75 347 q 135 757 75 647 q 296 924 195 867 q 515 982 396 982 q 718 940 627 982 q 864 818 808 898 l 743 736 q 645 821 705 789 q 515 852 585 852 q 368 809 433 852 q 268 686 304 766 q 232 498 232 606 q 268 307 232 388 q 368 184 304 227 q 515 141 431 141 q 670 171 597 141 q 802 245 743 201 l 876 127 z "},"Т":{"ha":822,"x_min":47,"x_max":774,"o":"m 774 970 l 774 840 l 487 840 l 487 24 l 335 24 l 335 840 l 47 840 l 47 970 l 774 970 z "},"У":{"ha":720,"x_min":16,"x_max":704,"o":"m 704 970 l 458 157 q 374 -9 425 46 q 248 -77 323 -65 q 180 -85 208 -84 q 136 -87 152 -87 q 114 -87 121 -87 l 114 46 q 225 60 195 46 q 271 94 252 72 q 304 167 289 115 l 309 187 l 16 970 l 189 970 l 370 391 l 543 970 l 704 970 z "},"Ф":{"ha":1086,"x_min":75,"x_max":1012,"o":"m 469 745 q 286 674 353 738 q 218 494 218 610 q 285 313 218 377 q 469 241 351 248 l 469 745 m 75 494 q 129 691 75 608 q 273 819 183 774 q 469 868 363 864 l 469 993 l 618 993 l 618 868 q 814 819 724 864 q 958 691 905 774 q 1012 494 1012 608 q 958 296 1012 380 q 814 168 905 213 q 618 118 724 122 l 618 -4 l 469 -4 l 469 118 q 273 168 363 122 q 129 296 183 213 q 75 494 75 380 m 618 241 q 802 313 735 248 q 868 494 868 377 q 802 674 868 610 q 618 745 735 738 l 618 241 z "},"Х":{"ha":907,"x_min":19,"x_max":888,"o":"m 538 507 l 888 15 l 703 15 l 446 372 l 199 15 l 19 15 l 363 507 l 37 971 l 224 971 l 454 643 l 684 971 l 863 971 l 538 507 z "},"Ч":{"ha":844,"x_min":88,"x_max":749,"o":"m 88 970 l 245 970 l 245 618 q 287 480 245 529 q 403 431 328 431 q 496 456 453 431 q 566 524 540 480 q 591 625 591 568 l 591 970 l 749 970 l 749 24 l 591 24 l 591 399 q 496 326 556 354 q 376 298 437 298 q 164 382 240 298 q 88 618 88 465 l 88 970 z "},"Ц":{"ha":993,"x_min":95,"x_max":925,"o":"m 95 968 l 252 968 l 252 155 l 680 155 l 680 968 l 837 968 l 837 155 l 925 155 l 925 -250 l 768 -250 l 768 24 l 95 24 l 95 968 z "},"Ш":{"ha":1200,"x_min":95,"x_max":1105,"o":"m 95 963 l 252 963 l 252 149 l 522 149 l 522 963 l 680 963 l 680 149 l 948 149 l 948 963 l 1105 963 l 1105 24 l 95 24 l 95 963 z "},"Щ":{"ha":1263,"x_min":95,"x_max":1195,"o":"m 95 970 l 252 970 l 252 149 l 522 149 l 522 970 l 680 970 l 680 149 l 949 149 l 949 970 l 1107 970 l 1107 149 l 1195 149 l 1195 -250 l 1046 -250 l 1046 24 l 95 24 l 95 970 z "},"Ь":{"ha":875,"x_min":95,"x_max":831,"o":"m 525 155 q 635 196 591 155 q 680 298 680 237 q 637 400 680 361 q 529 439 595 439 l 247 439 l 247 155 l 525 155 m 95 970 l 247 970 l 247 570 l 518 570 q 755 487 680 570 q 831 285 831 404 q 752 95 831 165 q 507 24 673 24 l 199 24 q 125 52 155 24 q 95 125 95 80 l 95 970 z "},"Ы":{"ha":1202,"x_min":95,"x_max":1107,"o":"m 525 155 q 635 196 591 155 q 680 298 680 237 q 637 400 680 361 q 529 439 595 439 l 247 439 l 247 155 l 525 155 m 95 970 l 247 970 l 247 570 l 518 570 q 755 487 680 570 q 831 285 831 404 q 752 95 831 165 q 507 24 673 24 l 199 24 q 125 52 155 24 q 95 125 95 80 l 95 970 m 949 970 l 1107 970 l 1107 24 l 949 24 l 949 970 z "},"Ъ":{"ha":1024,"x_min":27,"x_max":981,"o":"m 674 155 q 785 196 741 155 q 829 298 829 237 q 787 400 829 361 q 678 439 745 439 l 396 439 l 396 155 l 674 155 m 27 970 l 396 970 l 396 570 l 667 570 q 905 487 829 570 q 981 285 981 404 q 901 95 981 165 q 656 24 822 24 l 349 24 q 274 52 304 24 q 244 125 244 80 l 244 840 l 27 840 l 27 970 z "},"Э":{"ha":920,"x_min":75,"x_max":876,"o":"m 149 245 q 281 171 208 201 q 435 141 354 141 q 623 217 548 141 q 715 427 699 293 l 229 427 l 229 557 l 716 557 q 626 773 703 694 q 435 852 549 852 q 306 821 366 852 q 208 736 245 789 l 87 818 q 233 940 142 898 q 435 982 324 982 q 655 924 555 982 q 816 757 755 867 q 876 498 876 647 q 816 237 876 347 q 655 69 755 127 q 435 11 555 11 q 235 43 330 11 q 75 127 140 75 l 149 245 z "},"Ю":{"ha":1291,"x_min":95,"x_max":1221,"o":"m 798 11 q 599 60 690 11 q 448 205 507 110 q 376 433 388 300 l 244 433 l 244 24 l 95 24 l 95 971 l 244 971 l 244 557 l 376 557 q 446 788 387 692 q 598 934 506 884 q 798 983 690 983 q 1009 926 913 983 q 1163 760 1105 869 q 1221 498 1221 650 q 1163 235 1221 346 q 1009 68 1105 125 q 798 11 913 11 m 522 498 q 559 305 522 385 q 659 185 595 225 q 798 145 722 145 q 936 185 873 145 q 1035 304 998 225 q 1072 498 1072 384 q 1035 690 1072 610 q 936 809 998 769 q 798 849 873 849 q 659 809 722 849 q 559 690 597 769 q 522 498 522 610 z "},"Я":{"ha":860,"x_min":27,"x_max":765,"o":"m 613 840 l 389 840 q 264 793 313 840 q 214 678 214 747 q 264 562 214 608 q 389 515 313 515 l 613 515 l 613 840 m 283 396 q 117 496 172 420 q 62 678 62 571 q 148 888 62 806 q 407 970 233 970 l 765 970 l 765 11 l 613 11 l 613 385 l 461 385 l 217 24 l 27 24 l 283 396 z "},"а":{"ha":868,"x_min":54,"x_max":792,"o":"m 419 11 q 227 54 309 11 q 99 176 144 98 q 54 354 54 254 q 99 531 54 453 q 227 653 144 609 q 419 697 309 697 q 546 674 490 697 q 635 606 602 651 l 635 682 l 792 682 l 792 24 l 635 24 l 635 114 q 548 39 605 66 q 419 11 491 11 m 212 354 q 240 239 212 288 q 317 164 269 190 q 422 138 365 138 q 534 164 483 138 q 615 239 585 190 q 646 354 646 288 q 615 469 646 419 q 534 544 585 518 q 422 570 483 570 q 317 544 365 570 q 240 469 269 518 q 212 354 212 419 z "},"б":{"ha":911,"x_min":126,"x_max":785,"o":"m 477 840 q 329 776 385 840 q 259 591 273 712 q 362 677 307 654 q 488 701 418 701 q 637 660 570 701 q 745 543 705 618 q 785 369 785 468 q 743 178 785 258 q 627 56 701 98 q 457 14 552 14 q 288 56 362 14 q 170 178 213 98 q 126 369 126 259 l 126 464 q 214 840 126 709 q 475 970 302 970 q 617 975 564 970 q 701 1000 670 979 l 757 880 q 655 848 707 856 q 538 840 604 840 l 477 840 m 277 358 q 326 197 277 250 q 457 144 376 144 q 587 197 537 144 q 636 358 636 250 q 587 519 636 468 q 457 570 537 570 q 326 519 376 570 q 277 358 277 468 z "},"в":{"ha":739,"x_min":95,"x_max":696,"o":"m 419 697 q 601 643 540 697 q 662 500 662 589 q 647 431 662 460 q 602 376 632 401 q 673 311 650 350 q 696 213 696 271 q 635 68 696 119 q 453 16 575 16 l 95 16 l 95 697 l 419 697 m 439 148 q 544 225 544 148 q 519 283 544 264 q 439 302 494 302 l 252 302 l 252 148 l 439 148 m 406 427 q 485 445 460 427 q 510 498 510 463 q 484 547 510 529 q 406 566 458 566 l 252 566 l 252 427 l 406 427 z "},"г":{"ha":583,"x_min":95,"x_max":540,"o":"m 540 697 l 540 570 l 241 570 l 241 24 l 95 24 l 95 609 q 121 673 95 648 q 186 697 146 697 l 540 697 z "},"д":{"ha":959,"x_min":75,"x_max":860,"o":"m 761 109 l 860 109 l 860 -248 l 719 -248 l 719 -16 l 216 -16 l 216 -248 l 75 -248 l 75 109 l 167 109 q 216 245 195 141 q 239 471 237 349 l 241 697 l 761 697 l 761 109 m 618 109 l 618 572 l 380 572 l 380 444 q 362 262 380 355 q 319 109 345 170 l 618 109 z "},"е":{"ha":784,"x_min":54,"x_max":730,"o":"m 720 149 q 587 43 669 80 q 411 7 506 7 q 224 47 305 7 q 99 168 144 88 q 54 358 54 247 q 96 540 54 463 q 216 659 138 617 q 397 700 293 700 q 569 659 494 700 q 687 542 644 617 q 730 368 730 467 q 720 294 730 330 l 217 294 q 283 177 231 217 q 411 137 335 137 q 524 166 475 137 q 614 251 572 195 l 720 149 m 564 425 q 515 528 564 487 q 397 570 467 570 q 276 528 328 570 q 218 425 224 487 l 564 425 z "},"ё":{"ha":784,"x_min":54,"x_max":730,"o":"m 720 149 q 587 43 669 80 q 411 7 506 7 q 224 47 305 7 q 99 168 144 88 q 54 358 54 247 q 96 540 54 463 q 216 659 138 617 q 397 700 293 700 q 569 659 494 700 q 687 542 644 617 q 730 368 730 467 q 720 294 730 330 l 217 294 q 283 177 231 217 q 411 137 335 137 q 524 166 475 137 q 614 251 572 195 l 720 149 m 159 836 q 185 901 159 873 q 252 928 212 928 q 318 901 292 928 q 345 836 345 873 q 318 772 345 799 q 252 745 292 745 q 186 772 213 745 q 159 836 159 799 m 564 425 q 515 528 564 487 q 397 570 467 570 q 276 528 328 570 q 218 425 224 487 l 564 425 m 465 836 q 492 901 465 873 q 559 928 518 928 q 625 901 598 928 q 651 836 651 873 q 625 772 651 799 q 559 745 598 745 q 492 772 519 745 q 465 836 465 799 z "},"ж":{"ha":1067,"x_min":54,"x_max":1013,"o":"m 463 -4 l 463 312 l 412 312 l 217 -4 l 54 -4 l 297 369 l 73 699 l 236 699 l 412 430 l 463 430 l 463 699 l 605 699 l 605 430 l 655 430 l 831 699 l 994 699 l 770 369 l 1013 -4 l 850 -4 l 655 312 l 605 312 l 605 -4 l 463 -4 z "},"з":{"ha":651,"x_min":71,"x_max":576,"o":"m 213 225 q 328 125 205 125 q 414 147 388 125 q 441 213 441 170 q 410 279 441 256 q 311 302 380 302 l 213 302 l 213 425 l 311 425 q 391 446 362 425 q 419 506 419 468 q 395 563 419 543 q 323 583 370 583 q 225 488 220 583 l 88 488 q 111 592 84 544 q 193 669 138 640 q 324 699 248 699 q 448 673 396 699 q 526 604 499 647 q 552 510 552 560 q 532 430 552 467 q 477 368 511 393 q 549 304 521 346 q 576 210 576 262 q 513 64 576 119 q 328 9 449 9 q 187 39 245 9 q 100 117 129 68 q 75 225 71 165 l 213 225 z "},"и":{"ha":746,"x_min":95,"x_max":678,"o":"m 237 245 l 509 697 l 678 697 l 678 18 l 536 18 l 536 499 l 255 18 l 95 18 l 95 697 l 237 697 l 237 245 z "},"й":{"ha":746,"x_min":95,"x_max":678,"o":"m 393 699 q 278 741 321 699 q 236 850 235 783 l 328 850 q 346 807 330 825 q 393 789 362 789 q 440 807 425 789 q 457 850 456 825 l 548 850 q 507 741 549 783 q 393 699 464 699 m 95 697 l 237 697 l 237 245 l 509 697 l 678 697 l 678 18 l 536 18 l 536 499 l 255 18 l 95 18 l 95 697 z "},"к":{"ha":768,"x_min":88,"x_max":751,"o":"m 88 697 l 245 697 l 245 416 l 522 685 l 726 685 l 437 401 l 751 24 l 555 24 l 332 298 l 245 213 l 245 24 l 88 24 l 88 697 z "},"л":{"ha":844,"x_min":64,"x_max":749,"o":"m 606 5 l 606 567 l 368 567 l 361 339 q 336 148 357 220 q 267 41 315 76 q 138 5 220 5 l 64 5 l 64 136 l 126 136 q 178 160 159 136 q 208 239 198 184 q 220 389 217 294 l 229 697 l 749 697 l 749 5 l 606 5 z "},"м":{"ha":887,"x_min":95,"x_max":819,"o":"m 95 696 l 248 696 l 458 218 l 667 696 l 819 696 l 819 11 l 675 11 l 675 393 l 538 73 l 378 73 l 239 400 l 239 11 l 95 11 l 95 696 z "},"н":{"ha":841,"x_min":95,"x_max":746,"o":"m 95 9 l 95 699 l 256 699 l 256 427 l 585 427 l 585 699 l 746 699 l 746 9 l 585 9 l 585 289 l 256 289 l 256 9 l 95 9 z "},"о":{"ha":871,"x_min":68,"x_max":803,"o":"m 435 11 q 241 55 324 11 q 113 178 159 99 q 68 357 68 256 q 113 534 68 456 q 241 655 159 612 q 435 699 324 699 q 630 655 547 699 q 758 534 713 612 q 803 357 803 456 q 758 178 803 256 q 630 55 713 99 q 435 11 547 11 m 225 357 q 285 198 225 258 q 435 138 345 138 q 587 198 528 138 q 646 357 646 258 q 587 513 646 456 q 435 571 528 571 q 285 513 345 571 q 225 357 225 454 z "},"п":{"ha":800,"x_min":95,"x_max":705,"o":"m 95 11 l 95 697 l 705 697 l 705 11 l 549 11 l 549 567 l 251 567 l 251 11 l 95 11 z "},"р":{"ha":894,"x_min":95,"x_max":833,"o":"m 468 699 q 657 654 574 699 q 787 532 741 610 q 833 354 833 453 q 787 177 833 255 q 657 55 741 99 q 468 11 574 11 q 341 34 397 11 q 252 100 285 57 l 252 -250 l 95 -250 l 95 684 l 252 684 l 252 598 q 339 672 282 646 q 468 699 396 699 m 241 354 q 273 238 241 288 q 355 163 304 189 q 465 138 407 138 q 568 164 519 138 q 646 239 616 190 q 675 354 675 288 q 646 471 675 422 q 568 545 616 519 q 465 571 519 571 q 355 546 407 571 q 273 471 304 521 q 241 354 241 422 z "},"с":{"ha":769,"x_min":54,"x_max":726,"o":"m 726 149 q 593 43 674 80 q 422 7 513 7 q 233 46 316 7 q 102 163 149 85 q 54 351 54 240 q 151 606 54 514 q 412 699 247 699 q 574 662 496 699 q 701 557 651 625 l 593 458 q 412 559 521 559 q 267 505 324 559 q 209 351 209 450 q 270 203 209 256 q 422 149 331 149 q 531 175 483 149 q 620 251 579 201 l 726 149 z "},"т":{"ha":692,"x_min":38,"x_max":654,"o":"m 275 11 l 275 572 l 38 572 l 38 697 l 654 697 l 654 572 l 416 572 l 416 11 l 275 11 z "},"у":{"ha":734,"x_min":23,"x_max":711,"o":"m 711 699 l 465 -28 q 378 -195 427 -140 q 255 -263 328 -251 q 186 -271 214 -270 q 143 -273 159 -273 q 121 -273 127 -273 l 121 -140 q 232 -126 202 -140 q 275 -93 258 -115 q 311 -19 293 -71 l 316 -1 l 23 699 l 195 699 l 380 190 l 549 699 l 711 699 z "},"ф":{"ha":857,"x_min":61,"x_max":796,"o":"m 361 -260 l 361 15 q 142 128 222 35 q 61 357 61 221 q 142 584 61 492 q 361 694 222 675 l 361 970 l 505 970 l 505 693 q 718 581 640 671 q 796 357 796 490 q 718 130 796 222 q 505 16 640 38 l 505 -260 l 361 -260 m 218 357 q 257 222 218 277 q 361 148 296 168 l 361 562 q 257 489 296 543 q 218 357 218 435 m 505 151 q 602 227 566 172 q 639 357 639 281 q 603 486 639 433 q 505 559 567 538 l 505 151 z "},"х":{"ha":724,"x_min":23,"x_max":701,"o":"m 452 362 l 701 16 l 528 16 l 362 244 l 199 16 l 23 16 l 275 368 l 43 697 l 218 697 l 365 488 l 506 697 l 684 697 l 452 362 z "},"ч":{"ha":772,"x_min":95,"x_max":677,"o":"m 95 697 l 247 697 l 247 415 q 372 251 247 251 q 481 298 438 251 q 525 422 525 346 l 525 697 l 677 697 l 677 -57 l 525 -57 l 525 209 q 451 146 494 170 q 359 121 408 122 q 165 190 235 117 q 95 401 95 263 l 95 697 z "},"ц":{"ha":860,"x_min":95,"x_max":792,"o":"m 251 155 l 536 155 l 536 697 l 692 697 l 692 155 l 792 155 l 792 -233 l 636 -233 l 636 24 l 95 24 l 95 697 l 251 697 l 251 155 z "},"ш":{"ha":1024,"x_min":95,"x_max":929,"o":"m 251 149 l 434 149 l 434 697 l 590 697 l 590 149 l 773 149 l 773 697 l 929 697 l 929 24 l 95 24 l 95 697 l 251 697 l 251 149 z "},"щ":{"ha":1124,"x_min":95,"x_max":1029,"o":"m 251 149 l 434 149 l 434 697 l 590 697 l 590 149 l 773 149 l 773 697 l 929 697 l 929 149 l 1029 149 l 1029 -233 l 873 -233 l 873 24 l 95 24 l 95 697 l 251 697 l 251 149 z "},"ь":{"ha":750,"x_min":95,"x_max":707,"o":"m 251 697 l 251 477 l 431 477 q 637 413 568 477 q 707 244 707 349 q 637 75 707 140 q 431 11 568 11 l 95 11 l 95 697 l 251 697 m 430 133 q 535 160 506 133 q 564 244 564 187 q 535 328 564 301 q 430 355 506 355 l 251 355 l 251 133 l 430 133 z "},"ы":{"ha":1027,"x_min":95,"x_max":932,"o":"m 251 697 l 251 477 l 431 477 q 637 413 568 477 q 707 244 707 349 q 637 75 707 140 q 431 11 568 11 l 95 11 l 95 697 l 251 697 m 430 133 q 535 160 506 133 q 564 244 564 187 q 535 328 564 301 q 430 355 506 355 l 251 355 l 251 133 l 430 133 m 776 699 l 932 699 l 932 24 l 776 24 l 776 699 z "},"ъ":{"ha":845,"x_min":16,"x_max":802,"o":"m 346 477 l 526 477 q 732 413 663 477 q 802 244 802 349 q 732 75 802 140 q 526 11 663 11 l 190 11 l 190 575 l 16 575 l 16 697 l 346 697 l 346 477 m 525 133 q 630 160 601 133 q 659 244 659 187 q 630 328 659 301 q 525 355 601 355 l 346 355 l 346 133 l 525 133 z "},"э":{"ha":780,"x_min":47,"x_max":719,"o":"m 264 418 l 556 418 q 484 522 537 486 q 361 559 431 559 q 180 458 252 559 l 72 557 q 200 662 123 625 q 361 699 277 699 q 623 606 526 699 q 719 351 719 514 q 671 163 719 240 q 541 46 624 85 q 351 7 457 7 q 180 43 260 7 q 47 149 99 80 l 153 251 q 242 175 194 201 q 351 149 290 149 q 478 184 423 149 q 553 282 533 218 l 264 282 l 264 418 z "},"ю":{"ha":1149,"x_min":95,"x_max":1081,"o":"m 713 11 q 469 87 566 11 q 351 289 373 163 l 251 289 l 251 24 l 95 24 l 95 699 l 251 699 l 251 425 l 351 425 q 471 624 374 549 q 713 699 567 699 q 908 655 825 699 q 1036 534 991 612 q 1081 357 1081 456 q 1036 178 1081 256 q 908 55 991 99 q 713 11 825 11 m 503 357 q 563 198 503 258 q 713 138 623 138 q 865 198 806 138 q 924 357 924 258 q 865 513 924 456 q 713 571 806 571 q 563 513 623 571 q 503 357 503 454 z "},"я":{"ha":743,"x_min":49,"x_max":648,"o":"m 492 24 l 492 244 l 382 244 l 235 24 l 49 24 l 218 264 q 104 346 142 293 q 66 469 66 399 q 137 631 66 567 q 343 696 208 696 l 648 696 l 648 24 l 492 24 m 221 469 q 251 399 221 425 q 343 373 281 373 l 492 373 l 492 566 l 343 566 q 251 540 281 566 q 221 469 221 514 z "},"Α":{"ha":895,"x_min":16,"x_max":879,"o":"m 343 970 l 552 970 l 879 24 l 699 24 l 623 271 l 273 271 l 197 24 l 16 24 l 343 970 m 583 401 l 449 842 l 446 842 l 312 401 l 583 401 z "},"Β":{"ha":875,"x_min":95,"x_max":831,"o":"m 199 24 q 125 52 155 24 q 95 125 95 80 l 95 970 l 457 970 q 701 896 621 970 q 781 705 781 822 q 754 597 781 646 q 674 519 727 548 q 785 423 739 488 q 831 285 831 358 q 752 95 831 165 q 507 24 673 24 l 199 24 m 525 155 q 635 196 591 155 q 680 298 680 237 q 635 399 680 359 q 525 439 591 439 l 247 439 l 247 155 l 525 155 m 475 570 q 585 608 541 570 q 629 705 629 646 q 585 802 629 764 q 475 840 541 840 l 247 840 l 247 570 l 475 570 z "},"Γ":{"ha":785,"x_min":95,"x_max":739,"o":"m 739 970 l 739 840 l 247 840 l 247 24 l 95 24 l 95 869 q 125 942 95 914 q 199 970 155 970 l 739 970 z "},"Δ":{"ha":925,"x_min":16,"x_max":909,"o":"m 363 970 l 562 970 l 909 24 l 16 24 l 363 970 m 689 151 l 463 844 l 237 151 l 689 151 z "},"Ε":{"ha":800,"x_min":95,"x_max":757,"o":"m 199 24 q 125 52 155 24 q 95 125 95 80 l 95 970 l 736 970 l 736 840 l 247 840 l 247 570 l 724 570 l 724 439 l 247 439 l 247 155 l 757 155 l 757 24 l 199 24 z "},"Ζ":{"ha":899,"x_min":75,"x_max":838,"o":"m 838 153 l 838 24 l 75 24 l 75 160 l 608 838 l 98 838 l 98 968 l 800 968 l 800 842 l 256 153 l 838 153 z "},"Η":{"ha":944,"x_min":95,"x_max":849,"o":"m 95 970 l 252 970 l 252 578 l 692 578 l 692 970 l 849 970 l 849 24 l 692 24 l 692 448 l 252 448 l 252 24 l 95 24 l 95 970 z "},"Θ":{"ha":1047,"x_min":75,"x_max":972,"o":"m 758 560 l 758 430 l 301 430 l 301 560 l 758 560 m 75 498 q 136 762 75 652 q 300 927 198 872 q 524 982 403 982 q 747 927 644 982 q 911 762 849 872 q 972 498 972 652 q 911 232 972 342 q 747 66 849 122 q 524 11 644 11 q 300 66 403 11 q 136 232 198 122 q 75 498 75 342 m 232 498 q 271 302 232 382 q 376 182 309 222 q 524 141 442 141 q 671 184 605 141 q 777 309 738 228 q 815 498 815 389 q 777 691 815 612 q 671 811 738 770 q 524 852 605 852 q 376 811 442 852 q 271 691 309 770 q 232 498 232 612 z "},"Ι":{"ha":347,"x_min":95,"x_max":252,"o":"m 95 970 l 252 970 l 252 24 l 95 24 l 95 970 z "},"Κ":{"ha":875,"x_min":95,"x_max":854,"o":"m 95 970 l 252 970 l 252 547 l 625 970 l 821 970 l 446 556 l 854 24 l 665 24 l 346 445 l 252 342 l 252 24 l 95 24 l 95 970 z "},"Λ":{"ha":895,"x_min":16,"x_max":879,"o":"m 343 970 l 552 970 l 879 24 l 699 24 l 449 842 l 446 842 l 197 24 l 16 24 l 343 970 z "},"Μ":{"ha":1107,"x_min":95,"x_max":1012,"o":"m 95 970 l 255 970 l 555 229 l 854 970 l 1012 970 l 1012 24 l 863 24 l 863 642 l 646 80 l 464 80 l 244 648 l 244 24 l 95 24 l 95 970 z "},"Ν":{"ha":944,"x_min":95,"x_max":849,"o":"m 849 970 l 849 24 l 673 24 l 244 770 l 244 24 l 95 24 l 95 970 l 282 970 l 700 262 l 700 970 l 849 970 z "},"Ξ":{"ha":886,"x_min":65,"x_max":821,"o":"m 87 970 l 799 970 l 799 840 l 87 840 l 87 970 m 65 155 l 821 155 l 821 24 l 65 24 l 65 155 m 134 560 l 751 560 l 751 433 l 134 433 l 134 560 z "},"Ο":{"ha":1047,"x_min":75,"x_max":972,"o":"m 524 11 q 300 66 403 11 q 136 232 198 122 q 75 498 75 342 q 136 762 75 652 q 300 927 198 872 q 524 982 403 982 q 747 927 644 982 q 911 762 849 872 q 972 498 972 652 q 911 232 972 342 q 747 66 849 122 q 524 11 644 11 m 232 498 q 271 302 232 382 q 376 182 309 222 q 524 141 442 141 q 671 184 605 141 q 777 309 738 228 q 815 498 815 389 q 777 691 815 612 q 671 811 738 770 q 524 852 605 852 q 376 811 442 852 q 271 691 309 770 q 232 498 232 612 z "},"Π":{"ha":949,"x_min":95,"x_max":854,"o":"m 95 968 l 854 968 l 854 11 l 697 11 l 697 838 l 252 838 l 252 11 l 95 11 l 95 968 z "},"Ρ":{"ha":841,"x_min":95,"x_max":798,"o":"m 247 385 l 247 11 l 95 11 l 95 970 l 453 970 q 712 888 627 970 q 798 678 798 806 q 715 465 798 545 q 467 385 633 385 l 247 385 m 471 515 q 596 562 547 515 q 646 678 646 608 q 596 793 646 747 q 471 840 547 840 l 247 840 l 247 515 l 471 515 z "},"Σ":{"ha":924,"x_min":75,"x_max":880,"o":"m 298 153 l 880 153 l 880 23 l 75 23 l 75 118 l 433 510 l 75 875 l 75 971 l 846 971 l 846 841 l 298 841 l 623 524 l 623 496 l 298 153 z "},"Τ":{"ha":822,"x_min":47,"x_max":774,"o":"m 774 970 l 774 840 l 487 840 l 487 24 l 335 24 l 335 840 l 47 840 l 47 970 l 774 970 z "},"Υ":{"ha":890,"x_min":16,"x_max":873,"o":"m 525 396 l 525 11 l 368 11 l 368 396 l 16 967 l 199 967 l 452 543 l 696 967 l 873 967 l 525 396 z "},"Φ":{"ha":1120,"x_min":75,"x_max":1046,"o":"m 1046 483 q 1000 290 1046 380 q 862 140 954 201 q 639 65 770 80 l 639 -61 l 481 -61 l 481 65 q 259 140 351 80 q 121 290 167 199 q 75 483 75 380 q 121 676 75 586 q 259 826 167 766 q 481 901 351 886 l 481 1025 l 639 1025 l 639 901 q 862 825 770 886 q 1000 675 954 765 q 1046 483 1046 586 m 205 483 q 277 311 205 382 q 481 222 349 240 l 481 743 q 277 654 349 726 q 205 483 205 583 m 639 224 q 844 311 773 240 q 916 483 916 382 q 842 652 916 581 q 639 742 768 724 l 639 224 z "},"Χ":{"ha":907,"x_min":19,"x_max":888,"o":"m 538 503 l 888 11 l 703 11 l 446 368 l 199 11 l 19 11 l 363 503 l 37 967 l 224 967 l 454 639 l 684 967 l 863 967 l 538 503 z "},"Ψ":{"ha":1063,"x_min":95,"x_max":968,"o":"m 453 202 q 266 259 347 209 q 140 394 184 309 q 95 589 95 479 l 95 970 l 252 970 l 252 591 q 304 419 252 484 q 453 345 357 354 l 453 970 l 612 970 l 612 345 q 760 419 708 354 q 811 591 811 484 l 811 970 l 968 970 l 968 589 q 924 395 968 480 q 798 260 879 311 q 612 202 718 210 l 612 -34 l 453 -34 l 453 202 z "},"Ω":{"ha":1084,"x_min":75,"x_max":1009,"o":"m 75 152 l 277 152 q 75 522 75 302 q 138 770 75 666 q 308 928 201 875 q 543 982 415 982 q 777 928 670 982 q 946 770 883 875 q 1009 522 1009 666 q 958 319 1009 412 q 808 152 906 225 l 1009 152 l 1009 23 l 618 23 l 618 179 q 789 317 728 231 q 850 522 850 403 q 808 700 850 625 q 696 814 766 774 q 543 853 627 853 q 388 814 458 853 q 275 700 317 774 q 233 522 233 625 q 294 317 233 404 q 465 179 355 231 l 465 23 l 75 23 l 75 152 z "},"α":{"ha":863,"x_min":75,"x_max":846,"o":"m 401 14 q 239 56 313 14 q 119 176 164 99 q 75 355 75 254 q 119 534 75 457 q 239 654 164 612 q 401 697 313 697 q 557 660 490 697 q 658 564 624 623 l 684 686 l 829 686 l 750 355 l 846 24 l 703 24 l 663 161 q 560 55 628 96 q 401 14 492 14 m 232 355 q 256 239 232 288 q 320 167 281 191 q 401 142 359 142 q 497 174 453 142 q 570 256 541 206 q 605 355 598 305 q 530 509 582 449 q 401 568 477 568 q 319 545 358 568 q 256 473 281 521 q 232 355 232 425 z "},"β":{"ha":814,"x_min":95,"x_max":770,"o":"m 406 983 q 571 950 500 983 q 680 859 642 917 q 718 727 718 802 q 684 606 718 658 q 600 522 651 555 q 724 436 677 498 q 770 277 770 374 q 730 120 770 184 q 619 24 689 56 q 463 -8 549 -8 q 338 19 400 -8 q 244 83 275 46 l 244 -250 l 95 -250 l 95 678 q 181 903 95 823 q 406 983 267 983 m 244 288 q 275 197 245 236 q 349 138 304 159 q 445 118 395 118 q 576 161 529 118 q 624 279 624 203 q 575 407 624 366 q 445 448 526 448 l 347 448 l 347 576 l 434 576 q 536 614 500 576 q 571 712 571 651 q 527 820 571 783 q 408 857 483 857 q 289 810 334 857 q 244 678 244 764 l 244 288 z "},"γ":{"ha":746,"x_min":16,"x_max":730,"o":"m 293 31 l 16 699 l 190 699 l 373 216 l 556 699 l 730 699 l 453 31 l 453 -248 l 293 -248 l 293 31 z "},"δ":{"ha":825,"x_min":75,"x_max":750,"o":"m 414 -3 q 240 38 317 -3 q 119 155 163 79 q 75 332 75 231 q 132 519 75 444 q 283 627 189 594 q 201 711 225 667 q 176 808 176 755 q 242 944 176 894 q 430 994 308 994 q 527 988 475 994 q 612 971 579 982 l 612 845 q 532 863 585 854 q 431 872 479 872 q 345 854 369 872 q 321 804 321 836 q 352 742 321 770 q 465 685 382 713 q 679 553 608 636 q 750 332 750 469 q 707 153 750 229 q 587 37 663 77 q 414 -3 511 -3 m 220 332 q 275 176 220 232 q 414 119 330 119 q 551 176 496 119 q 606 332 606 232 q 551 489 606 433 q 414 545 496 545 q 275 489 331 545 q 220 332 220 433 z "},"ε":{"ha":635,"x_min":75,"x_max":591,"o":"m 75 213 q 100 306 75 264 q 167 369 126 347 q 92 510 92 420 q 154 643 92 590 q 330 696 216 696 q 459 667 403 696 q 547 590 515 639 q 582 484 579 541 l 445 484 q 331 579 427 579 q 228 506 228 579 q 255 448 228 469 q 338 426 282 426 l 408 426 l 408 304 l 338 304 q 240 280 269 304 q 212 213 212 256 q 326 132 212 132 q 418 155 391 132 q 453 229 446 179 l 591 229 q 519 75 589 136 q 326 15 449 15 q 139 68 203 15 q 75 213 75 121 z "},"ζ":{"ha":738,"x_min":75,"x_max":694,"o":"m 75 970 l 680 970 l 680 869 q 432 650 517 732 q 298 486 347 568 q 250 315 250 404 q 295 189 250 231 q 454 130 340 148 q 630 66 566 113 q 694 -73 694 20 q 587 -274 694 -178 l 477 -198 q 524 -143 505 -176 q 544 -80 544 -110 q 511 -25 544 -43 q 399 5 479 -7 q 174 104 250 27 q 98 294 98 180 q 141 492 98 403 q 262 658 184 581 q 469 840 339 735 l 75 840 l 75 970 z "},"η":{"ha":837,"x_min":88,"x_max":749,"o":"m 749 -174 l 591 -174 l 591 376 q 550 514 591 465 q 434 563 509 563 q 340 538 384 563 q 271 470 297 514 q 245 369 245 426 l 245 24 l 88 24 l 88 685 l 245 685 l 245 595 q 340 668 281 640 q 461 696 400 696 q 673 612 597 696 q 749 376 749 529 l 749 -174 z "},"θ":{"ha":883,"x_min":114,"x_max":769,"o":"m 442 5 q 200 132 286 5 q 114 487 114 258 q 200 843 114 716 q 442 970 286 970 q 683 843 597 970 q 769 487 769 716 q 683 132 769 258 q 442 5 597 5 m 248 420 q 304 200 251 277 q 442 123 357 123 q 579 200 526 123 q 636 420 632 277 l 248 420 m 636 549 q 579 773 632 694 q 442 852 526 852 q 304 773 357 852 q 248 549 251 694 l 636 549 z "},"ι":{"ha":355,"x_min":88,"x_max":312,"o":"m 193 24 q 118 52 148 24 q 88 125 88 80 l 88 697 l 240 697 l 240 155 l 312 155 l 312 24 l 193 24 z "},"κ":{"ha":768,"x_min":88,"x_max":751,"o":"m 88 699 l 245 699 l 245 416 l 522 685 l 726 685 l 437 401 l 751 24 l 555 24 l 332 298 l 245 213 l 245 24 l 88 24 l 88 699 z "},"λ":{"ha":936,"x_min":65,"x_max":789,"o":"m 401 477 l 233 18 l 65 18 l 324 658 l 277 768 q 245 821 258 810 q 206 831 232 831 q 163 825 190 831 l 137 819 l 103 952 l 138 959 q 171 965 145 960 q 216 970 197 970 q 347 929 293 970 q 427 814 400 888 l 651 206 q 668 163 662 175 q 680 148 674 151 q 699 145 686 145 q 736 152 716 145 q 755 157 742 155 l 789 30 q 689 7 739 7 q 572 45 620 7 q 502 156 525 84 l 401 477 z "},"μ":{"ha":823,"x_min":95,"x_max":728,"o":"m 252 346 q 296 201 252 255 q 411 148 339 148 q 528 200 486 148 q 571 346 571 252 l 571 697 l 728 697 l 728 24 l 579 24 l 578 84 q 501 31 544 50 q 415 11 458 11 q 328 28 373 11 q 252 80 283 46 l 252 -250 l 95 -250 l 95 697 l 252 697 l 252 346 z "},"ν":{"ha":678,"x_min":27,"x_max":636,"o":"m 269 24 l 27 696 l 187 696 l 354 199 q 460 447 435 338 q 486 696 486 556 l 635 696 q 578 357 636 515 q 396 24 519 199 l 269 24 z "},"ξ":{"ha":859,"x_min":171,"x_max":742,"o":"m 328 292 q 525 117 328 148 q 682 58 623 102 q 742 -75 742 14 q 712 -180 742 -129 q 637 -270 682 -231 l 528 -193 q 573 -141 553 -172 q 593 -81 593 -110 q 572 -39 593 -54 q 532 -20 552 -24 q 472 -9 511 -15 q 254 85 336 9 q 171 292 171 161 q 222 460 171 396 q 355 555 273 524 q 259 629 297 578 q 221 747 221 680 q 300 912 221 850 q 525 974 378 974 q 617 966 572 974 q 690 949 662 959 l 663 823 q 601 838 642 830 q 522 845 560 845 q 411 821 445 845 q 377 745 377 796 q 428 651 377 685 q 557 617 479 617 l 644 617 l 644 486 l 547 486 q 391 439 454 486 q 328 292 328 393 z "},"ο":{"ha":776,"x_min":61,"x_max":715,"o":"m 388 11 q 211 55 285 11 q 99 177 137 99 q 61 357 61 255 q 99 534 61 457 q 211 655 137 612 q 388 699 285 699 q 629 604 544 699 q 715 357 715 510 q 677 177 715 255 q 566 55 639 99 q 388 11 492 11 m 218 357 q 266 197 218 256 q 388 138 313 138 q 511 197 464 138 q 557 357 557 256 q 511 513 557 456 q 388 571 464 571 q 266 513 313 571 q 218 357 218 456 z "},"π":{"ha":917,"x_min":47,"x_max":869,"o":"m 180 24 l 180 567 l 47 567 l 47 697 l 869 697 l 869 567 l 707 567 l 707 198 q 716 146 707 160 q 754 133 726 133 q 840 141 810 133 l 840 18 q 722 9 798 9 q 593 58 637 9 q 548 191 548 107 l 548 567 l 339 567 l 339 24 l 180 24 z "},"ρ":{"ha":781,"x_min":95,"x_max":738,"o":"m 420 701 q 656 607 575 701 q 738 334 738 513 q 652 68 738 159 q 427 -22 567 -22 q 327 -3 374 -22 q 245 45 279 15 l 245 -250 l 95 -250 l 95 342 q 182 604 95 507 q 420 701 269 701 m 245 307 q 297 157 245 208 q 420 107 349 107 q 545 161 502 107 q 587 334 587 216 q 544 513 587 453 q 423 572 500 572 q 245 345 245 572 l 245 307 z "},"σ":{"ha":760,"x_min":75,"x_max":730,"o":"m 376 23 q 222 64 290 23 q 114 181 153 104 q 75 359 75 258 q 114 538 75 461 q 222 655 153 614 q 376 696 290 696 l 730 696 l 730 566 l 593 566 q 654 471 632 522 q 675 349 675 419 q 637 181 675 255 q 530 65 598 107 q 376 23 461 23 m 228 359 q 271 203 228 258 q 376 148 315 148 q 479 203 437 148 q 522 359 522 258 q 479 517 522 463 q 376 571 437 571 q 271 517 313 571 q 228 359 228 463 z "},"τ":{"ha":673,"x_min":38,"x_max":635,"o":"m 404 193 q 415 150 404 161 q 453 138 426 138 q 538 146 503 138 l 538 19 q 437 11 500 11 q 306 58 354 11 q 258 186 258 106 l 258 571 l 38 571 l 38 703 l 635 703 l 635 571 l 404 571 l 404 193 z "},"υ":{"ha":715,"x_min":95,"x_max":667,"o":"m 241 324 q 366 137 241 137 q 484 188 446 137 q 521 359 521 239 q 456 696 521 537 l 605 696 q 667 374 667 541 q 595 113 667 213 q 368 12 524 12 q 168 83 241 12 q 95 313 95 153 l 95 696 l 241 696 l 241 324 z "},"φ":{"ha":964,"x_min":75,"x_max":890,"o":"m 212 376 q 263 202 212 270 q 412 118 315 134 l 412 547 q 549 696 412 696 q 739 650 662 696 q 852 528 815 604 q 890 366 890 453 q 806 123 890 225 q 549 1 723 22 l 549 -250 l 412 -250 l 412 1 q 230 60 307 11 q 114 189 153 110 q 75 363 75 267 q 108 543 75 465 q 221 700 141 620 l 312 614 q 212 376 212 514 m 549 118 q 703 195 652 136 q 753 362 753 254 q 704 521 753 467 q 568 575 655 575 q 549 559 549 575 l 549 118 z "},"χ":{"ha":826,"x_min":41,"x_max":785,"o":"m 414 345 l 597 697 l 765 697 l 495 227 l 659 -75 q 689 -111 675 -103 q 732 -119 703 -119 l 785 -119 l 785 -252 l 727 -252 q 609 -231 647 -252 q 538 -145 571 -209 l 414 100 l 225 -252 l 57 -252 l 328 227 l 167 519 q 137 556 151 548 q 94 564 123 564 l 41 564 l 41 697 l 99 697 q 217 675 179 697 q 288 590 255 654 l 414 345 z "},"ψ":{"ha":987,"x_min":95,"x_max":940,"o":"m 248 400 q 439 110 248 145 l 439 697 l 593 697 l 593 111 q 787 376 787 148 q 770 529 787 458 q 715 697 753 600 l 869 697 q 923 539 906 608 q 940 393 940 471 q 856 118 940 235 q 593 -22 772 1 l 593 -250 l 439 -250 l 439 -24 q 182 96 270 -7 q 95 385 95 199 l 95 697 l 248 697 l 248 400 z "},"ω":{"ha":1031,"x_min":75,"x_max":956,"o":"m 869 697 q 933 534 910 613 q 956 355 956 454 q 885 103 956 189 q 697 18 814 18 q 590 43 639 18 q 515 115 541 69 q 441 43 490 69 q 334 18 392 18 q 146 103 217 18 q 75 355 75 189 q 98 534 75 454 q 161 697 121 613 l 334 697 q 252 519 271 595 q 232 355 232 444 q 342 160 232 160 q 412 207 389 160 q 434 349 434 254 l 434 481 l 597 481 l 597 349 q 619 207 597 254 q 689 160 642 160 q 799 355 799 160 q 779 519 799 444 q 697 697 760 595 l 869 697 z "},"가":{"ha":1194,"x_min":79,"x_max":1175,"o":"m 79 213 q 258 277 171 229 q 410 401 345 326 q 505 568 476 476 q 540 831 540 678 l 103 831 l 103 962 l 669 962 q 699 951 686 962 q 711 918 711 941 q 663 549 711 718 q 475 250 614 381 q 79 69 335 118 l 79 213 m 876 997 l 1034 997 l 1034 623 l 1175 623 l 1175 492 l 1034 492 l 1034 24 l 876 24 l 876 997 z "},"각":{"ha":1194,"x_min":79,"x_max":1175,"o":"m 79 500 q 348 588 222 521 q 517 743 473 655 q 534 791 529 768 q 540 831 540 815 l 103 831 l 103 962 l 669 962 q 699 951 686 962 q 711 918 711 941 q 669 726 711 836 q 486 508 627 616 q 79 365 345 400 l 79 500 m 222 277 l 962 277 q 1016 256 994 277 q 1038 203 1038 236 l 1038 -168 l 880 -168 l 880 146 l 222 146 l 222 277 m 876 997 l 1034 997 l 1034 765 l 1175 765 l 1175 637 l 1034 637 l 1034 363 l 876 363 l 876 997 z "},"갂":{"ha":1389,"x_min":0,"x_max":0,"o":""},"갃":{"ha":1389,"x_min":0,"x_max":0,"o":""},"간":{"ha":1194,"x_min":79,"x_max":1175,"o":"m 79 476 q 350 567 225 496 q 517 738 475 637 q 540 826 540 789 l 103 826 l 103 956 l 669 956 q 699 946 686 956 q 711 913 711 936 q 668 714 711 829 q 485 488 625 600 q 79 340 345 376 l 79 476 m 231 254 l 388 254 l 388 -24 l 1046 -24 l 1046 -155 l 307 -155 q 252 -134 274 -155 q 231 -81 231 -114 l 231 254 m 876 997 l 1034 997 l 1034 758 l 1175 758 l 1175 628 l 1034 628 l 1034 189 l 876 189 l 876 997 z "},"갅":{"ha":1389,"x_min":0,"x_max":0,"o":""},"갆":{"ha":1389,"x_min":0,"x_max":0,"o":""},"갇":{"ha":1194,"x_min":79,"x_max":1175,"o":"m 79 500 q 348 588 222 521 q 517 743 473 655 q 534 791 529 768 q 540 831 540 815 l 103 831 l 103 962 l 669 962 q 699 951 686 962 q 711 918 711 941 q 669 726 711 836 q 486 508 627 616 q 79 365 345 400 l 79 500 m 236 282 l 1038 282 l 1038 152 l 393 152 l 393 -34 l 1047 -34 l 1047 -164 l 298 -164 q 254 -148 273 -164 q 236 -104 236 -132 l 236 282 m 876 997 l 1034 997 l 1034 765 l 1175 765 l 1175 637 l 1034 637 l 1034 363 l 876 363 l 876 997 z "},"갈":{"ha":1194,"x_min":79,"x_max":1175,"o":"m 79 567 q 352 643 227 587 q 519 776 477 699 q 540 837 540 812 l 103 837 l 103 967 l 669 967 q 699 957 686 967 q 711 924 711 947 q 585 631 711 779 q 79 431 460 483 l 79 567 m 227 358 l 960 358 q 1008 341 987 358 q 1028 298 1028 324 l 1028 95 q 1010 52 1028 68 q 966 35 991 35 l 389 35 l 389 -49 l 1046 -49 l 1046 -174 l 336 -174 q 262 -146 292 -174 q 232 -73 232 -118 l 232 110 q 245 140 232 129 q 277 152 258 152 l 871 152 l 871 233 l 227 233 l 227 358 m 876 997 l 1034 997 l 1034 798 l 1175 798 l 1175 670 l 1034 670 l 1034 427 l 876 427 l 876 997 z "},"갉":{"ha":1194,"x_min":79,"x_max":1175,"o":"m 79 567 q 352 643 227 587 q 519 776 477 699 q 540 837 540 812 l 103 837 l 103 967 l 669 967 q 699 957 686 967 q 711 924 711 947 q 585 631 711 779 q 79 431 460 483 l 79 567 m 201 351 l 526 351 q 574 334 553 351 q 594 292 594 317 l 594 94 q 576 50 594 66 q 532 33 557 33 l 361 33 l 361 -49 l 623 -49 l 623 -174 l 290 -174 q 230 -151 254 -174 q 206 -91 206 -127 l 206 106 q 219 137 206 125 q 251 149 232 149 l 442 149 l 442 228 l 201 228 l 201 351 m 647 351 l 955 351 q 1009 331 987 351 q 1031 277 1031 311 l 1031 -176 l 876 -176 l 876 225 l 647 225 l 647 351 m 876 997 l 1034 997 l 1034 798 l 1175 798 l 1175 670 l 1034 670 l 1034 427 l 876 427 l 876 997 z "},"갊":{"ha":1194,"x_min":79,"x_max":1175,"o":"m 79 567 q 352 643 227 587 q 519 776 477 699 q 540 837 540 812 l 103 837 l 103 967 l 669 967 q 699 957 686 967 q 711 924 711 947 q 585 631 711 779 q 79 431 460 483 l 79 567 m 199 351 l 513 351 q 560 334 540 351 q 581 292 581 317 l 581 94 q 562 50 581 66 q 518 33 544 33 l 359 33 l 359 -49 l 597 -49 l 597 -174 l 289 -174 q 229 -151 252 -174 q 205 -91 205 -127 l 205 106 q 218 137 205 125 q 250 149 231 149 l 431 149 l 431 228 l 199 228 l 199 351 m 636 351 l 958 351 q 1012 331 990 351 q 1034 277 1034 311 l 1034 -174 l 704 -174 q 636 -107 636 -174 l 636 351 m 882 -49 l 882 228 l 785 228 l 785 -49 l 882 -49 m 876 997 l 1034 997 l 1034 798 l 1175 798 l 1175 670 l 1034 670 l 1034 427 l 876 427 l 876 997 z "},"갋":{"ha":1389,"x_min":0,"x_max":0,"o":""},"갌":{"ha":1389,"x_min":0,"x_max":0,"o":""},"갍":{"ha":1389,"x_min":0,"x_max":0,"o":""},"갎":{"ha":1389,"x_min":0,"x_max":0,"o":""},"갏":{"ha":1389,"x_min":0,"x_max":0,"o":""},"감":{"ha":1194,"x_min":79,"x_max":1175,"o":"m 79 500 q 348 588 222 521 q 517 743 473 655 q 534 791 529 768 q 540 831 540 815 l 103 831 l 103 962 l 669 962 q 699 951 686 962 q 711 918 711 941 q 669 726 711 836 q 486 508 627 616 q 79 365 345 400 l 79 500 m 225 288 l 971 288 q 1015 271 997 288 q 1034 228 1034 255 l 1034 -164 l 288 -164 q 243 -148 262 -164 q 225 -104 225 -132 l 225 288 m 876 -34 l 876 157 l 382 157 l 382 -34 l 876 -34 m 876 997 l 1034 997 l 1034 765 l 1175 765 l 1175 637 l 1034 637 l 1034 363 l 876 363 l 876 997 z "},"갑":{"ha":1194,"x_min":79,"x_max":1175,"o":"m 79 500 q 348 588 222 521 q 517 743 473 655 q 534 791 529 768 q 540 831 540 815 l 103 831 l 103 962 l 669 962 q 699 951 686 962 q 711 918 711 941 q 669 726 711 836 q 486 508 627 616 q 79 365 345 400 l 79 500 m 225 308 l 382 308 l 382 208 l 876 208 l 876 308 l 1034 308 l 1034 -167 l 288 -167 q 243 -151 262 -167 q 225 -107 225 -134 l 225 308 m 876 -37 l 876 85 l 382 85 l 382 -37 l 876 -37 m 876 997 l 1034 997 l 1034 765 l 1175 765 l 1175 637 l 1034 637 l 1034 377 l 876 377 l 876 997 z "},"값":{"ha":1194,"x_min":79,"x_max":1175,"o":"m 79 500 q 348 588 222 521 q 517 743 473 655 q 534 791 529 768 q 540 831 540 815 l 103 831 l 103 962 l 669 962 q 699 951 686 962 q 711 918 711 941 q 669 726 711 836 q 486 508 627 616 q 79 365 345 400 l 79 500 m 197 294 l 346 294 l 346 193 l 463 193 l 463 294 l 612 294 l 612 -167 l 259 -167 q 215 -151 233 -167 q 197 -107 197 -134 l 197 294 m 463 -42 l 463 76 l 346 76 l 346 -42 l 463 -42 m 662 -45 q 763 29 722 -24 q 804 205 804 83 l 804 298 l 956 298 l 956 216 q 1002 29 956 84 q 1111 -45 1048 -26 l 1111 -186 q 972 -121 1034 -167 q 884 3 910 -75 q 797 -125 856 -76 q 662 -187 738 -174 l 662 -45 m 876 997 l 1034 997 l 1034 765 l 1175 765 l 1175 637 l 1034 637 l 1034 363 l 876 363 l 876 997 z "},"갓":{"ha":1194,"x_min":79,"x_max":1175,"o":"m 79 476 q 350 567 225 496 q 517 738 475 637 q 540 826 540 789 l 103 826 l 103 956 l 669 956 q 699 946 686 956 q 711 913 711 936 q 668 714 711 829 q 485 488 625 600 q 79 340 345 376 l 79 476 m 206 -45 q 457 53 363 -22 q 551 256 551 127 l 551 296 l 708 296 l 708 267 q 802 60 708 134 q 1054 -41 895 -15 l 1054 -175 q 784 -87 891 -153 q 633 65 677 -20 q 485 -87 590 -22 q 206 -176 380 -153 l 206 -45 m 876 997 l 1034 997 l 1034 765 l 1175 765 l 1175 637 l 1034 637 l 1034 269 l 876 269 l 876 997 z "},"갔":{"ha":1194,"x_min":79,"x_max":1175,"o":"m 79 500 q 348 588 222 521 q 517 743 473 655 q 534 791 529 768 q 540 831 540 815 l 103 831 l 103 962 l 669 962 q 699 951 686 962 q 711 918 711 941 q 669 726 711 836 q 486 508 627 616 q 79 365 345 400 l 79 500 m 156 -35 q 228 3 189 -31 q 294 98 267 37 q 321 239 321 159 l 321 296 l 479 296 l 479 250 q 519 82 479 151 q 610 -23 560 14 q 700 76 659 9 q 741 239 741 142 l 741 296 l 898 296 l 898 250 q 926 105 898 167 q 992 9 954 43 q 1065 -31 1031 -24 l 1065 -175 q 922 -97 993 -163 q 823 46 852 -31 q 740 -90 798 -28 q 610 -176 682 -152 q 488 -88 548 -152 q 404 46 429 -24 q 307 -99 376 -34 q 156 -176 239 -164 l 156 -35 m 876 997 l 1034 997 l 1034 765 l 1175 765 l 1175 637 l 1034 637 l 1034 363 l 876 363 l 876 997 z "},"강":{"ha":1194,"x_min":79,"x_max":1175,"o":"m 79 481 q 350 572 225 502 q 517 743 475 643 q 540 831 540 795 l 103 831 l 103 962 l 669 962 q 699 951 686 962 q 711 918 711 941 q 668 720 711 834 q 485 493 625 605 q 79 346 345 381 l 79 481 m 210 77 q 262 215 210 153 q 408 313 313 277 q 625 350 503 350 q 842 313 747 350 q 989 215 937 277 q 1040 77 1040 153 q 989 -62 1040 1 q 842 -161 937 -125 q 625 -198 747 -198 q 408 -161 503 -198 q 262 -62 313 -125 q 210 77 210 1 m 370 77 q 438 -28 370 14 q 625 -69 506 -69 q 812 -28 745 -69 q 880 77 880 14 q 812 180 880 138 q 625 221 745 221 q 438 180 506 221 q 370 77 370 138 m 876 997 l 1034 997 l 1034 765 l 1175 765 l 1175 637 l 1034 637 l 1034 345 l 876 345 l 876 997 z "},"갖":{"ha":1194,"x_min":79,"x_max":1175,"o":"m 79 500 q 348 588 222 521 q 517 743 473 655 q 534 791 529 768 q 540 831 540 815 l 103 831 l 103 962 l 669 962 q 699 951 686 962 q 711 918 711 941 q 669 726 711 836 q 486 508 627 616 q 79 365 345 400 l 79 500 m 206 -45 q 380 -4 301 -35 q 505 68 460 27 q 551 144 551 109 l 551 156 l 217 156 l 217 286 l 1042 286 l 1042 156 l 708 156 l 708 155 q 754 76 708 117 q 880 3 800 35 q 1054 -42 959 -30 l 1054 -175 q 791 -100 902 -156 q 633 27 681 -45 q 477 -102 586 -46 q 206 -176 368 -157 l 206 -45 m 876 997 l 1034 997 l 1034 765 l 1175 765 l 1175 637 l 1034 637 l 1034 363 l 876 363 l 876 997 z "},"갗":{"ha":1194,"x_min":79,"x_max":1175,"o":"m 79 533 q 264 583 170 545 q 431 671 358 620 q 533 776 505 723 q 553 837 553 812 l 103 837 l 103 967 l 682 967 q 712 957 700 967 q 724 924 724 947 q 679 741 724 842 q 490 541 633 640 q 79 397 347 442 l 79 533 m 201 -50 q 437 13 342 -39 q 549 152 533 65 l 218 152 l 218 277 l 552 277 l 552 388 l 709 388 l 709 277 l 1044 277 l 1044 152 l 713 152 q 828 17 734 66 q 1062 -46 922 -33 l 1062 -175 q 789 -106 899 -163 q 635 24 678 -50 q 483 -107 591 -52 q 201 -176 374 -163 l 201 -50 m 876 997 l 1034 997 l 1034 798 l 1175 798 l 1175 670 l 1034 670 l 1034 366 l 876 366 l 876 997 z "},"갘":{"ha":1389,"x_min":0,"x_max":0,"o":""},"같":{"ha":1194,"x_min":79,"x_max":1175,"o":"m 79 567 q 352 643 227 587 q 519 776 477 699 q 540 837 540 812 l 103 837 l 103 967 l 669 967 q 699 957 686 967 q 711 924 711 947 q 585 631 711 779 q 79 431 460 483 l 79 567 m 231 358 l 1038 358 l 1038 233 l 388 233 l 388 152 l 1029 152 l 1029 35 l 388 35 l 388 -49 l 1050 -49 l 1050 -174 l 293 -174 q 249 -157 267 -174 q 231 -113 231 -140 l 231 358 m 876 997 l 1034 997 l 1034 798 l 1175 798 l 1175 670 l 1034 670 l 1034 427 l 876 427 l 876 997 z "},"갚":{"ha":1194,"x_min":79,"x_max":1175,"o":"m 79 500 q 348 588 222 521 q 517 743 473 655 q 534 791 529 768 q 540 831 540 815 l 103 831 l 103 962 l 669 962 q 699 951 686 962 q 711 918 711 941 q 669 726 711 836 q 486 508 627 616 q 79 365 345 400 l 79 500 m 199 -41 l 351 -41 l 347 159 l 205 159 l 205 286 l 1044 286 l 1044 159 l 902 159 l 898 -41 l 1050 -41 l 1050 -168 l 199 -168 l 199 -41 m 509 -41 l 741 -41 l 745 159 l 505 159 l 509 -41 m 876 997 l 1034 997 l 1034 765 l 1175 765 l 1175 637 l 1034 637 l 1034 363 l 876 363 l 876 997 z "},"갛":{"ha":1194,"x_min":79,"x_max":1175,"o":"m 79 567 q 352 643 227 587 q 519 776 477 699 q 540 837 540 812 l 103 837 l 103 967 l 669 967 q 699 957 686 967 q 711 924 711 947 q 585 631 711 779 q 79 431 460 483 l 79 567 m 184 321 l 545 321 l 545 399 l 703 399 l 703 321 l 1063 321 l 1063 205 l 701 205 l 701 148 q 1017 -22 1017 130 q 921 -151 1017 -104 q 625 -198 825 -198 q 331 -151 427 -198 q 235 -22 235 -103 q 311 94 235 50 q 547 146 388 138 l 547 205 l 184 205 l 184 321 m 380 -22 q 625 -76 380 -76 q 872 -22 872 -76 q 812 22 872 5 q 625 38 751 38 q 440 22 500 38 q 380 -22 380 5 m 876 997 l 1034 997 l 1034 798 l 1175 798 l 1175 670 l 1034 670 l 1034 389 l 876 389 l 876 997 z "},"개":{"ha":1194,"x_min":73,"x_max":1081,"o":"m 73 210 q 224 304 152 235 q 336 509 296 374 q 361 653 351 559 q 372 831 372 747 l 98 831 l 98 962 l 487 962 q 517 951 505 962 q 529 918 529 941 q 493 526 529 694 q 357 236 457 358 q 73 64 256 114 l 73 210 m 646 991 l 795 991 l 795 623 l 929 623 l 929 997 l 1081 997 l 1081 24 l 929 24 l 929 492 l 795 492 l 795 30 l 646 30 l 646 991 z "},"객":{"ha":1194,"x_min":79,"x_max":1081,"o":"m 79 500 q 266 581 184 518 q 377 739 347 644 q 396 831 396 803 l 103 831 l 103 962 l 522 962 q 552 951 540 962 q 564 918 564 941 q 541 716 564 818 q 410 507 518 614 q 79 365 302 400 l 79 500 m 239 277 l 1005 277 q 1059 256 1038 277 q 1081 203 1081 236 l 1081 -168 l 924 -168 l 924 146 l 239 146 l 239 277 m 671 991 l 821 991 l 821 768 l 929 768 l 929 997 l 1081 997 l 1081 363 l 929 363 l 929 637 l 821 637 l 821 369 l 671 369 l 671 991 z "},"갞":{"ha":1389,"x_min":0,"x_max":0,"o":""},"갟":{"ha":1389,"x_min":0,"x_max":0,"o":""},"갠":{"ha":1194,"x_min":79,"x_max":1092,"o":"m 79 473 q 272 561 183 491 q 391 726 361 631 q 410 831 410 789 l 103 831 l 103 962 l 536 962 q 566 951 553 962 q 578 918 578 941 q 486 566 578 743 q 79 338 393 388 l 79 473 m 247 254 l 404 254 l 404 -24 l 1092 -24 l 1092 -155 l 323 -155 q 269 -134 290 -155 q 247 -81 247 -114 l 247 254 m 671 991 l 821 991 l 821 757 l 929 757 l 929 997 l 1081 997 l 1081 189 l 929 189 l 929 627 l 821 627 l 821 199 l 671 199 l 671 991 z "},"갡":{"ha":1389,"x_min":0,"x_max":0,"o":""},"갢":{"ha":1389,"x_min":0,"x_max":0,"o":""},"갣":{"ha":1389,"x_min":0,"x_max":0,"o":""},"갤":{"ha":1194,"x_min":79,"x_max":1096,"o":"m 79 567 q 276 632 195 579 q 389 772 357 685 q 407 838 401 804 l 103 838 l 103 968 l 522 968 q 564 920 564 968 q 538 737 564 830 q 404 553 511 644 q 79 431 297 461 l 79 567 m 243 358 l 1010 358 q 1058 341 1038 358 q 1078 298 1078 324 l 1078 95 q 1060 52 1078 68 q 1016 35 1042 35 l 406 35 l 406 -49 l 1096 -49 l 1096 -174 l 353 -174 q 278 -146 308 -174 q 248 -73 248 -118 l 248 110 q 261 140 248 129 q 293 152 274 152 l 921 152 l 921 233 l 243 233 l 243 358 m 671 991 l 821 991 l 821 798 l 929 798 l 929 997 l 1081 997 l 1081 426 l 929 426 l 929 670 l 821 670 l 821 431 l 671 431 l 671 991 z "},"갥":{"ha":1389,"x_min":0,"x_max":0,"o":""},"갦":{"ha":1389,"x_min":0,"x_max":0,"o":""},"갧":{"ha":1389,"x_min":0,"x_max":0,"o":""},"갨":{"ha":1389,"x_min":0,"x_max":0,"o":""},"갩":{"ha":1389,"x_min":0,"x_max":0,"o":""},"갪":{"ha":1389,"x_min":0,"x_max":0,"o":""},"갫":{"ha":1389,"x_min":0,"x_max":0,"o":""},"갬":{"ha":1194,"x_min":79,"x_max":1081,"o":"m 79 500 q 266 581 184 518 q 377 739 347 644 q 396 831 396 803 l 103 831 l 103 962 l 522 962 q 552 951 540 962 q 564 918 564 941 q 541 716 564 818 q 410 507 518 614 q 79 365 302 400 l 79 500 m 239 288 l 1019 288 q 1063 271 1044 288 q 1081 228 1081 255 l 1081 -164 l 301 -164 q 257 -148 275 -164 q 239 -104 239 -132 l 239 288 m 924 -34 l 924 157 l 396 157 l 396 -34 l 924 -34 m 671 991 l 821 991 l 821 768 l 929 768 l 929 997 l 1081 997 l 1081 363 l 929 363 l 929 637 l 821 637 l 821 369 l 671 369 l 671 991 z "},"갭":{"ha":1194,"x_min":79,"x_max":1081,"o":"m 79 500 q 266 581 184 518 q 377 739 347 644 q 396 831 396 803 l 103 831 l 103 962 l 522 962 q 552 951 540 962 q 564 918 564 941 q 541 716 564 818 q 410 507 518 614 q 79 365 302 400 l 79 500 m 239 308 l 396 308 l 396 208 l 924 208 l 924 308 l 1081 308 l 1081 -167 l 301 -167 q 257 -151 275 -167 q 239 -107 239 -134 l 239 308 m 924 -37 l 924 85 l 396 85 l 396 -37 l 924 -37 m 671 991 l 821 991 l 821 768 l 929 768 l 929 997 l 1081 997 l 1081 376 l 929 376 l 929 637 l 821 637 l 821 381 l 671 381 l 671 991 z "},"갮":{"ha":1389,"x_min":0,"x_max":0,"o":""},"갯":{"ha":1194,"x_min":79,"x_max":1097,"o":"m 79 473 q 272 561 183 491 q 391 726 361 631 q 410 831 410 789 l 103 831 l 103 962 l 536 962 q 566 951 553 962 q 578 918 578 941 q 486 566 578 743 q 79 338 393 388 l 79 473 m 217 -45 q 477 53 377 -22 q 578 256 578 127 l 578 296 l 735 296 l 735 267 q 836 60 735 136 q 1097 -41 936 -15 l 1097 -175 q 818 -86 933 -153 q 661 65 703 -19 q 505 -87 618 -20 q 217 -176 392 -153 l 217 -45 m 671 991 l 821 991 l 821 768 l 929 768 l 929 997 l 1081 997 l 1081 294 l 929 294 l 929 637 l 821 637 l 821 381 l 671 381 l 671 991 z "},"갰":{"ha":1194,"x_min":79,"x_max":1111,"o":"m 79 500 q 266 581 184 518 q 377 739 347 644 q 396 831 396 803 l 103 831 l 103 962 l 522 962 q 552 951 540 962 q 564 918 564 941 q 541 716 564 818 q 410 507 518 614 q 79 365 302 400 l 79 500 m 159 -35 q 234 3 193 -31 q 305 98 275 37 q 335 239 335 159 l 335 296 l 492 296 l 492 250 q 536 84 492 152 q 635 -23 581 16 q 732 78 688 12 q 776 239 776 144 l 776 296 l 933 296 l 933 250 q 963 105 933 167 q 1035 9 993 43 q 1111 -31 1077 -24 l 1111 -175 q 962 -96 1038 -163 q 859 46 886 -30 q 772 -88 834 -26 q 635 -176 709 -151 q 507 -87 571 -151 q 418 46 442 -23 q 317 -98 391 -33 q 159 -176 243 -164 l 159 -35 m 671 991 l 821 991 l 821 768 l 929 768 l 929 997 l 1081 997 l 1081 363 l 929 363 l 929 637 l 821 637 l 821 369 l 671 369 l 671 991 z "},"갱":{"ha":1194,"x_min":79,"x_max":1084,"o":"m 79 500 q 266 581 184 518 q 377 739 347 644 q 396 831 396 803 l 103 831 l 103 962 l 522 962 q 552 951 540 962 q 564 918 564 941 q 541 716 564 818 q 410 507 518 614 q 79 365 302 400 l 79 500 m 221 60 q 272 191 221 133 q 420 282 323 248 q 654 316 518 316 q 885 282 788 316 q 1033 191 982 248 q 1084 60 1084 133 q 1033 -72 1084 -14 q 885 -164 982 -130 q 654 -198 788 -198 q 420 -164 518 -198 q 272 -72 323 -130 q 221 60 221 -14 m 378 60 q 450 -34 378 3 q 654 -71 522 -71 q 854 -34 783 -71 q 926 60 926 3 q 854 152 926 115 q 654 189 783 189 q 450 152 522 189 q 378 60 378 115 m 671 991 l 821 991 l 821 768 l 929 768 l 929 997 l 1081 997 l 1081 349 l 929 349 l 929 637 l 821 637 l 821 384 l 671 384 l 671 991 z "},"갲":{"ha":1389,"x_min":0,"x_max":0,"o":""},"갳":{"ha":1389,"x_min":0,"x_max":0,"o":""},"갴":{"ha":1389,"x_min":0,"x_max":0,"o":""},"갵":{"ha":1389,"x_min":0,"x_max":0,"o":""},"갶":{"ha":1389,"x_min":0,"x_max":0,"o":""},"갷":{"ha":1389,"x_min":0,"x_max":0,"o":""},"갸":{"ha":1194,"x_min":79,"x_max":1175,"o":"m 79 213 q 258 277 171 229 q 410 401 345 326 q 505 568 476 476 q 540 831 540 678 l 103 831 l 103 962 l 669 962 q 699 951 686 962 q 711 918 711 941 q 663 549 711 718 q 475 250 614 381 q 79 69 335 118 l 79 213 m 876 997 l 1034 997 l 1034 777 l 1175 777 l 1175 650 l 1034 650 l 1034 439 l 1175 439 l 1175 312 l 1034 312 l 1034 24 l 876 24 l 876 997 z "},"갹":{"ha":1194,"x_min":79,"x_max":1175,"o":"m 79 500 q 348 588 222 521 q 517 743 473 655 q 534 791 529 768 q 540 831 540 815 l 103 831 l 103 962 l 669 962 q 699 951 686 962 q 711 918 711 941 q 669 726 711 836 q 486 508 627 616 q 79 365 345 400 l 79 500 m 222 277 l 962 277 q 1016 256 994 277 q 1038 203 1038 236 l 1038 -168 l 880 -168 l 880 146 l 222 146 l 222 277 m 876 997 l 1034 997 l 1034 886 l 1175 886 l 1175 758 l 1034 758 l 1034 654 l 1175 654 l 1175 526 l 1034 526 l 1034 363 l 876 363 l 876 997 z "},"갺":{"ha":1389,"x_min":0,"x_max":0,"o":""},"갻":{"ha":1389,"x_min":0,"x_max":0,"o":""},"갼":{"ha":1194,"x_min":79,"x_max":1175,"o":"m 79 476 q 350 567 225 496 q 517 738 475 637 q 540 826 540 789 l 103 826 l 103 956 l 669 956 q 699 946 686 956 q 711 913 711 936 q 668 714 711 829 q 485 488 625 600 q 79 340 345 376 l 79 476 m 231 254 l 388 254 l 388 -24 l 1046 -24 l 1046 -155 l 307 -155 q 252 -134 274 -155 q 231 -81 231 -114 l 231 254 m 876 997 l 1034 997 l 1034 886 l 1175 886 l 1175 758 l 1034 758 l 1034 640 l 1175 640 l 1175 513 l 1034 513 l 1034 189 l 876 189 l 876 997 z "},"갽":{"ha":1389,"x_min":0,"x_max":0,"o":""},"갾":{"ha":1389,"x_min":0,"x_max":0,"o":""},"갿":{"ha":1389,"x_min":0,"x_max":0,"o":""},"걀":{"ha":1194,"x_min":79,"x_max":1175,"o":"m 79 567 q 352 643 227 587 q 519 776 477 699 q 540 837 540 812 l 103 837 l 103 967 l 669 967 q 699 957 686 967 q 711 924 711 947 q 585 631 711 779 q 79 431 460 483 l 79 567 m 227 358 l 960 358 q 1008 341 987 358 q 1028 298 1028 324 l 1028 95 q 1010 52 1028 68 q 966 35 991 35 l 389 35 l 389 -49 l 1046 -49 l 1046 -174 l 336 -174 q 262 -146 292 -174 q 232 -73 232 -118 l 232 110 q 245 140 232 129 q 277 152 258 152 l 871 152 l 871 233 l 227 233 l 227 358 m 876 997 l 1034 997 l 1034 902 l 1175 902 l 1175 777 l 1034 777 l 1034 686 l 1175 686 l 1175 562 l 1034 562 l 1034 427 l 876 427 l 876 997 z "},"걁":{"ha":1389,"x_min":0,"x_max":0,"o":""},"걂":{"ha":1389,"x_min":0,"x_max":0,"o":""},"걃":{"ha":1389,"x_min":0,"x_max":0,"o":""},"걄":{"ha":1389,"x_min":0,"x_max":0,"o":""},"걅":{"ha":1389,"x_min":0,"x_max":0,"o":""},"걆":{"ha":1389,"x_min":0,"x_max":0,"o":""},"걇":{"ha":1389,"x_min":0,"x_max":0,"o":""},"걈":{"ha":1389,"x_min":0,"x_max":0,"o":""},"걉":{"ha":1389,"x_min":0,"x_max":0,"o":""},"걊":{"ha":1389,"x_min":0,"x_max":0,"o":""},"걋":{"ha":1194,"x_min":79,"x_max":1175,"o":"m 79 476 q 350 567 225 496 q 517 738 475 637 q 540 826 540 789 l 103 826 l 103 956 l 669 956 q 699 946 686 956 q 711 913 711 936 q 668 714 711 829 q 485 488 625 600 q 79 340 345 376 l 79 476 m 206 -45 q 457 53 363 -22 q 551 256 551 127 l 551 296 l 708 296 l 708 267 q 802 60 708 134 q 1054 -41 895 -15 l 1054 -175 q 784 -87 891 -153 q 633 65 677 -20 q 485 -87 590 -22 q 206 -176 380 -153 l 206 -45 m 876 997 l 1034 997 l 1034 886 l 1175 886 l 1175 758 l 1034 758 l 1034 640 l 1175 640 l 1175 513 l 1034 513 l 1034 269 l 876 269 l 876 997 z "},"걌":{"ha":1389,"x_min":0,"x_max":0,"o":""},"걍":{"ha":1194,"x_min":79,"x_max":1175,"o":"m 79 500 q 348 588 222 521 q 517 743 473 655 q 534 791 529 768 q 540 831 540 815 l 103 831 l 103 962 l 669 962 q 699 951 686 962 q 711 918 711 941 q 669 726 711 836 q 486 508 627 616 q 79 365 345 400 l 79 500 m 210 60 q 260 190 210 132 q 405 282 311 248 q 627 316 499 316 q 846 282 753 316 q 990 190 940 248 q 1040 60 1040 132 q 990 -72 1040 -14 q 846 -164 940 -130 q 627 -198 753 -198 q 405 -164 499 -198 q 260 -72 311 -130 q 210 60 210 -14 m 368 60 q 437 -33 368 4 q 627 -71 506 -71 q 814 -33 745 -71 q 883 60 883 4 q 814 152 883 115 q 627 189 745 189 q 437 152 507 189 q 368 60 368 115 m 876 997 l 1034 997 l 1034 886 l 1175 886 l 1175 758 l 1034 758 l 1034 654 l 1175 654 l 1175 526 l 1034 526 l 1034 326 l 876 326 l 876 997 z "},"걎":{"ha":1389,"x_min":0,"x_max":0,"o":""},"걏":{"ha":1389,"x_min":0,"x_max":0,"o":""},"걐":{"ha":1389,"x_min":0,"x_max":0,"o":""},"걑":{"ha":1389,"x_min":0,"x_max":0,"o":""},"걒":{"ha":1389,"x_min":0,"x_max":0,"o":""},"걓":{"ha":1389,"x_min":0,"x_max":0,"o":""},"걔":{"ha":1194,"x_min":73,"x_max":1081,"o":"m 73 210 q 224 304 152 235 q 336 509 296 374 q 361 653 351 559 q 372 831 372 747 l 98 831 l 98 962 l 487 962 q 517 951 505 962 q 529 918 529 941 q 493 526 529 694 q 357 236 457 358 q 73 64 256 114 l 73 210 m 646 991 l 795 991 l 795 806 l 929 806 l 929 997 l 1081 997 l 1081 24 l 929 24 l 929 323 l 795 323 l 795 30 l 646 30 l 646 991 m 929 453 l 929 675 l 795 675 l 795 453 l 929 453 z "},"걕":{"ha":1389,"x_min":0,"x_max":0,"o":""},"걖":{"ha":1389,"x_min":0,"x_max":0,"o":""},"걗":{"ha":1389,"x_min":0,"x_max":0,"o":""},"걘":{"ha":1194,"x_min":79,"x_max":1092,"o":"m 79 473 q 272 561 183 491 q 391 726 361 631 q 410 831 410 789 l 103 831 l 103 962 l 536 962 q 566 951 553 962 q 578 918 578 941 q 486 566 578 743 q 79 338 393 388 l 79 473 m 247 254 l 404 254 l 404 -24 l 1092 -24 l 1092 -155 l 323 -155 q 269 -134 290 -155 q 247 -81 247 -114 l 247 254 m 671 991 l 821 991 l 821 856 l 929 856 l 929 997 l 1081 997 l 1081 189 l 929 189 l 929 422 l 821 422 l 821 199 l 671 199 l 671 991 m 929 552 l 929 726 l 821 726 l 821 552 l 929 552 z "},"걙":{"ha":1389,"x_min":0,"x_max":0,"o":""},"걚":{"ha":1389,"x_min":0,"x_max":0,"o":""},"걛":{"ha":1389,"x_min":0,"x_max":0,"o":""},"걜":{"ha":1194,"x_min":79,"x_max":1096,"o":"m 79 567 q 276 632 195 579 q 389 772 357 685 q 407 838 401 804 l 103 838 l 103 968 l 522 968 q 564 920 564 968 q 538 737 564 830 q 404 553 511 644 q 79 431 297 461 l 79 567 m 243 358 l 1010 358 q 1058 341 1038 358 q 1078 298 1078 324 l 1078 95 q 1060 52 1078 68 q 1016 35 1042 35 l 406 35 l 406 -49 l 1096 -49 l 1096 -174 l 353 -174 q 278 -146 308 -174 q 248 -73 248 -118 l 248 110 q 261 140 248 129 q 293 152 274 152 l 921 152 l 921 233 l 243 233 l 243 358 m 671 991 l 821 991 l 821 902 l 929 902 l 929 997 l 1081 997 l 1081 426 l 929 426 l 929 537 l 821 537 l 821 431 l 671 431 l 671 991 m 929 665 l 929 774 l 821 774 l 821 665 l 929 665 z "},"걝":{"ha":1389,"x_min":0,"x_max":0,"o":""},"걞":{"ha":1389,"x_min":0,"x_max":0,"o":""},"걟":{"ha":1389,"x_min":0,"x_max":0,"o":""},"걠":{"ha":1389,"x_min":0,"x_max":0,"o":""},"걡":{"ha":1389,"x_min":0,"x_max":0,"o":""},"걢":{"ha":1389,"x_min":0,"x_max":0,"o":""},"걣":{"ha":1389,"x_min":0,"x_max":0,"o":""},"걤":{"ha":1389,"x_min":0,"x_max":0,"o":""},"걥":{"ha":1389,"x_min":0,"x_max":0,"o":""},"걦":{"ha":1389,"x_min":0,"x_max":0,"o":""},"걧":{"ha":1389,"x_min":0,"x_max":0,"o":""},"걨":{"ha":1389,"x_min":0,"x_max":0,"o":""},"걩":{"ha":1389,"x_min":0,"x_max":0,"o":""},"걪":{"ha":1389,"x_min":0,"x_max":0,"o":""},"걫":{"ha":1389,"x_min":0,"x_max":0,"o":""},"걬":{"ha":1389,"x_min":0,"x_max":0,"o":""},"걭":{"ha":1389,"x_min":0,"x_max":0,"o":""},"걮":{"ha":1389,"x_min":0,"x_max":0,"o":""},"걯":{"ha":1389,"x_min":0,"x_max":0,"o":""},"거":{"ha":1194,"x_min":84,"x_max":1066,"o":"m 84 213 q 263 277 176 229 q 416 401 350 326 q 510 568 481 476 q 545 831 545 678 l 109 831 l 109 962 l 674 962 q 704 951 692 962 q 716 918 716 941 q 668 549 716 718 q 480 250 620 381 q 84 69 340 118 l 84 213 m 697 612 l 909 612 l 909 997 l 1066 997 l 1066 24 l 909 24 l 909 484 l 697 484 l 697 612 z "},"걱":{"ha":1194,"x_min":84,"x_max":1066,"o":"m 84 500 q 329 585 221 519 q 481 743 437 651 q 499 791 494 768 q 505 831 505 815 l 109 831 l 109 962 l 633 962 q 663 951 651 962 q 675 918 675 941 q 635 726 675 837 q 464 508 595 616 q 84 365 332 400 l 84 500 m 232 277 l 990 277 q 1044 256 1023 277 q 1066 203 1066 236 l 1066 -168 l 909 -168 l 909 146 l 232 146 l 232 277 m 674 769 l 909 769 l 909 997 l 1066 997 l 1066 363 l 909 363 l 909 642 l 674 642 l 674 769 z "},"걲":{"ha":1389,"x_min":0,"x_max":0,"o":""},"걳":{"ha":1389,"x_min":0,"x_max":0,"o":""},"건":{"ha":1194,"x_min":84,"x_max":1086,"o":"m 84 476 q 355 567 231 496 q 522 738 480 637 q 545 826 545 789 l 109 826 l 109 956 l 674 956 q 704 946 692 956 q 716 913 716 936 q 673 714 716 829 q 490 488 631 600 q 84 340 350 376 l 84 476 m 236 254 l 393 254 l 393 -24 l 1086 -24 l 1086 -155 l 312 -155 q 258 -134 279 -155 q 236 -81 236 -114 l 236 254 m 697 720 l 909 720 l 909 997 l 1066 997 l 1066 189 l 909 189 l 909 593 l 697 593 l 697 720 z "},"걵":{"ha":1389,"x_min":0,"x_max":0,"o":""},"걶":{"ha":1389,"x_min":0,"x_max":0,"o":""},"걷":{"ha":1194,"x_min":84,"x_max":1082,"o":"m 84 500 q 329 585 221 519 q 481 743 437 651 q 499 791 494 768 q 505 831 505 815 l 109 831 l 109 962 l 633 962 q 663 951 651 962 q 675 918 675 941 q 635 726 675 837 q 464 508 595 616 q 84 365 332 400 l 84 500 m 239 282 l 1067 282 l 1067 152 l 396 152 l 396 -34 l 1082 -34 l 1082 -164 l 301 -164 q 257 -148 275 -164 q 239 -104 239 -132 l 239 282 m 674 769 l 909 769 l 909 997 l 1066 997 l 1066 363 l 909 363 l 909 642 l 674 642 l 674 769 z "},"걸":{"ha":1194,"x_min":84,"x_max":1081,"o":"m 84 567 q 357 643 232 587 q 525 776 483 699 q 545 837 545 812 l 109 837 l 109 967 l 674 967 q 704 957 692 967 q 716 924 716 947 q 591 631 716 779 q 84 431 465 483 l 84 567 m 232 358 l 996 358 q 1043 341 1023 358 q 1063 298 1063 324 l 1063 95 q 1045 52 1063 68 q 1001 35 1027 35 l 395 35 l 395 -49 l 1081 -49 l 1081 -174 l 342 -174 q 267 -146 297 -174 q 237 -73 237 -118 l 237 110 q 250 140 237 129 q 282 152 263 152 l 906 152 l 906 233 l 232 233 l 232 358 m 711 779 l 909 779 l 909 997 l 1066 997 l 1066 427 l 909 427 l 909 651 l 711 651 l 711 779 z "},"걹":{"ha":1389,"x_min":0,"x_max":0,"o":""},"걺":{"ha":1194,"x_min":84,"x_max":1066,"o":"m 84 567 q 357 643 232 587 q 525 776 483 699 q 545 837 545 812 l 109 837 l 109 967 l 674 967 q 704 957 692 967 q 716 924 716 947 q 591 631 716 779 q 84 431 465 483 l 84 567 m 205 351 l 532 351 q 579 334 559 351 q 600 292 600 317 l 600 94 q 581 50 600 66 q 537 33 563 33 l 365 33 l 365 -49 l 616 -49 l 616 -174 l 294 -174 q 234 -151 258 -174 q 210 -91 210 -127 l 210 106 q 223 137 210 125 q 255 149 236 149 l 450 149 l 450 228 l 205 228 l 205 351 m 655 351 l 990 351 q 1044 331 1023 351 q 1066 277 1066 311 l 1066 -174 l 723 -174 q 655 -107 655 -174 l 655 351 m 711 779 l 909 779 l 909 997 l 1066 997 l 1066 427 l 909 427 l 909 651 l 711 651 l 711 779 m 914 -49 l 914 228 l 804 228 l 804 -49 l 914 -49 z "},"걻":{"ha":1389,"x_min":0,"x_max":0,"o":""},"걼":{"ha":1389,"x_min":0,"x_max":0,"o":""},"걽":{"ha":1389,"x_min":0,"x_max":0,"o":""},"걾":{"ha":1389,"x_min":0,"x_max":0,"o":""},"걿":{"ha":1389,"x_min":0,"x_max":0,"o":""},"검":{"ha":1194,"x_min":84,"x_max":1066,"o":"m 84 500 q 329 585 221 519 q 481 743 437 651 q 499 791 494 768 q 505 831 505 815 l 109 831 l 109 962 l 633 962 q 663 951 651 962 q 675 918 675 941 q 635 726 675 837 q 464 508 595 616 q 84 365 332 400 l 84 500 m 236 288 l 1004 288 q 1048 271 1029 288 q 1066 228 1066 255 l 1066 -164 l 298 -164 q 254 -148 273 -164 q 236 -104 236 -132 l 236 288 m 909 -34 l 909 157 l 393 157 l 393 -34 l 909 -34 m 674 769 l 909 769 l 909 997 l 1066 997 l 1066 363 l 909 363 l 909 642 l 674 642 l 674 769 z "},"겁":{"ha":1194,"x_min":84,"x_max":1066,"o":"m 84 500 q 329 585 221 519 q 481 743 437 651 q 499 791 494 768 q 505 831 505 815 l 109 831 l 109 962 l 633 962 q 663 951 651 962 q 675 918 675 941 q 635 726 675 837 q 464 508 595 616 q 84 365 332 400 l 84 500 m 236 308 l 393 308 l 393 208 l 909 208 l 909 308 l 1066 308 l 1066 -167 l 298 -167 q 254 -151 273 -167 q 236 -107 236 -134 l 236 308 m 909 -37 l 909 85 l 393 85 l 393 -37 l 909 -37 m 674 769 l 909 769 l 909 997 l 1066 997 l 1066 377 l 909 377 l 909 642 l 674 642 l 674 769 z "},"겂":{"ha":1389,"x_min":0,"x_max":0,"o":""},"것":{"ha":1194,"x_min":84,"x_max":1089,"o":"m 84 476 q 355 567 231 496 q 522 738 480 637 q 545 826 545 789 l 109 826 l 109 956 l 674 956 q 704 946 692 956 q 716 913 716 936 q 673 714 716 829 q 490 488 631 600 q 84 340 350 376 l 84 476 m 214 -45 q 475 66 377 -9 q 572 270 572 142 l 572 309 l 730 309 l 730 281 q 1089 -41 730 42 l 1089 -175 q 810 -73 924 -142 q 655 79 697 -4 q 502 -75 613 -5 q 214 -176 391 -144 l 214 -45 m 697 720 l 909 720 l 909 997 l 1066 997 l 1066 270 l 909 270 l 909 593 l 697 593 l 697 720 z "},"겄":{"ha":1194,"x_min":84,"x_max":1089,"o":"m 84 500 q 329 585 221 519 q 481 743 437 651 q 499 791 494 768 q 505 831 505 815 l 109 831 l 109 962 l 633 962 q 663 951 651 962 q 675 918 675 941 q 635 726 675 837 q 464 508 595 616 q 84 365 332 400 l 84 500 m 159 -35 q 233 3 193 -31 q 301 98 273 37 q 330 239 330 159 l 330 296 l 487 296 l 487 250 q 530 83 487 151 q 624 -23 572 15 q 717 77 674 11 q 760 239 760 144 l 760 296 l 917 296 l 917 250 q 945 105 917 167 q 1015 9 974 43 q 1089 -31 1055 -24 l 1089 -175 q 943 -97 1016 -163 q 842 46 869 -31 q 758 -89 818 -27 q 624 -176 697 -151 q 498 -87 560 -151 q 412 46 437 -24 q 314 -99 385 -34 q 159 -176 243 -164 l 159 -35 m 674 769 l 909 769 l 909 997 l 1066 997 l 1066 363 l 909 363 l 909 642 l 674 642 l 674 769 z "},"겅":{"ha":1194,"x_min":84,"x_max":1077,"o":"m 84 500 q 329 585 221 519 q 481 743 437 651 q 499 791 494 768 q 505 831 505 815 l 109 831 l 109 962 l 633 962 q 663 951 651 962 q 675 918 675 941 q 635 726 675 837 q 464 508 595 616 q 84 365 332 400 l 84 500 m 222 60 q 273 191 222 133 q 421 282 324 248 q 651 316 518 316 q 879 282 783 316 q 1026 191 975 248 q 1077 60 1077 133 q 1026 -72 1077 -14 q 879 -164 975 -130 q 651 -198 783 -198 q 421 -164 518 -198 q 273 -72 324 -130 q 222 60 222 -14 m 380 60 q 451 -34 380 3 q 651 -71 522 -71 q 848 -34 777 -71 q 920 60 920 3 q 848 152 920 115 q 651 189 777 189 q 451 152 522 189 q 380 60 380 115 m 674 769 l 909 769 l 909 997 l 1066 997 l 1066 326 l 909 326 l 909 642 l 674 642 l 674 769 z "},"겆":{"ha":1194,"x_min":84,"x_max":1082,"o":"m 84 500 q 329 585 221 519 q 481 743 437 651 q 499 791 494 768 q 505 831 505 815 l 109 831 l 109 962 l 633 962 q 663 951 651 962 q 675 918 675 941 q 635 726 675 837 q 464 508 595 616 q 84 365 332 400 l 84 500 m 221 -45 q 397 -4 316 -35 q 525 68 477 27 q 572 144 572 109 l 572 156 l 232 156 l 232 286 l 1070 286 l 1070 156 l 730 156 l 730 155 q 777 76 730 117 q 906 3 825 35 q 1082 -42 987 -30 l 1082 -175 q 816 -100 930 -156 q 655 27 701 -43 q 496 -102 609 -46 q 221 -176 384 -157 l 221 -45 m 674 769 l 909 769 l 909 997 l 1066 997 l 1066 363 l 909 363 l 909 642 l 674 642 l 674 769 z "},"겇":{"ha":1389,"x_min":0,"x_max":0,"o":""},"겈":{"ha":1389,"x_min":0,"x_max":0,"o":""},"겉":{"ha":1194,"x_min":84,"x_max":1082,"o":"m 84 567 q 357 643 232 587 q 525 776 483 699 q 545 837 545 812 l 109 837 l 109 967 l 674 967 q 704 957 692 967 q 716 924 716 947 q 591 631 716 779 q 84 431 465 483 l 84 567 m 236 358 l 1070 358 l 1070 233 l 393 233 l 393 152 l 1062 152 l 1062 35 l 393 35 l 393 -49 l 1082 -49 l 1082 -174 l 298 -174 q 254 -157 273 -174 q 236 -113 236 -140 l 236 358 m 711 779 l 909 779 l 909 997 l 1066 997 l 1066 427 l 909 427 l 909 651 l 711 651 l 711 779 z "},"겊":{"ha":1194,"x_min":84,"x_max":1073,"o":"m 84 500 q 329 585 221 519 q 481 743 437 651 q 499 791 494 768 q 505 831 505 815 l 109 831 l 109 962 l 633 962 q 663 951 651 962 q 675 918 675 941 q 635 726 675 837 q 464 508 595 616 q 84 365 332 400 l 84 500 m 222 -41 l 374 -41 l 370 159 l 228 159 l 228 286 l 1067 286 l 1067 159 l 925 159 l 921 -41 l 1073 -41 l 1073 -168 l 222 -168 l 222 -41 m 532 -41 l 764 -41 l 768 159 l 528 159 l 532 -41 m 674 769 l 909 769 l 909 997 l 1066 997 l 1066 363 l 909 363 l 909 642 l 674 642 l 674 769 z "},"겋":{"ha":1194,"x_min":84,"x_max":1096,"o":"m 84 567 q 357 643 232 587 q 525 776 483 699 q 545 837 545 812 l 109 837 l 109 967 l 674 967 q 704 957 692 967 q 716 924 716 947 q 591 631 716 779 q 84 431 465 483 l 84 567 m 206 321 l 572 321 l 572 399 l 730 399 l 730 321 l 1096 321 l 1096 205 l 728 205 l 728 148 q 970 95 891 138 q 1050 -22 1050 52 q 951 -151 1050 -103 q 652 -198 852 -198 q 355 -151 454 -198 q 256 -22 256 -103 q 336 94 256 50 q 574 146 415 138 l 574 205 l 206 205 l 206 321 m 401 -22 q 652 -76 401 -76 q 905 -22 905 -76 q 842 22 905 5 q 652 38 779 38 q 464 22 526 38 q 401 -22 401 5 m 713 798 l 909 798 l 909 997 l 1066 997 l 1066 389 l 909 389 l 909 670 l 713 670 l 713 798 z "},"게":{"ha":1194,"x_min":73,"x_max":1081,"o":"m 73 210 q 224 304 152 235 q 336 509 296 374 q 361 653 351 559 q 372 831 372 747 l 98 831 l 98 962 l 487 962 q 517 951 505 962 q 529 918 529 941 q 509 606 529 739 l 665 606 l 665 991 l 814 991 l 814 35 l 665 35 l 665 479 l 480 479 q 338 214 435 320 q 73 64 240 109 l 73 210 m 929 997 l 1081 997 l 1081 30 l 929 30 l 929 997 z "},"겍":{"ha":1389,"x_min":0,"x_max":0,"o":""},"겎":{"ha":1389,"x_min":0,"x_max":0,"o":""},"겏":{"ha":1389,"x_min":0,"x_max":0,"o":""},"겐":{"ha":1194,"x_min":79,"x_max":1092,"o":"m 79 473 q 272 561 183 491 q 391 726 361 631 q 410 831 410 789 l 103 831 l 103 962 l 536 962 q 566 951 553 962 q 578 918 578 941 q 562 754 578 831 l 685 754 l 685 991 l 834 991 l 834 199 l 685 199 l 685 624 l 515 624 q 79 338 399 389 l 79 473 m 247 254 l 404 254 l 404 -24 l 1092 -24 l 1092 -155 l 323 -155 q 269 -134 290 -155 q 247 -81 247 -114 l 247 254 m 929 997 l 1081 997 l 1081 189 l 929 189 l 929 997 z "},"겑":{"ha":1389,"x_min":0,"x_max":0,"o":""},"겒":{"ha":1389,"x_min":0,"x_max":0,"o":""},"겓":{"ha":1389,"x_min":0,"x_max":0,"o":""},"겔":{"ha":1194,"x_min":79,"x_max":1096,"o":"m 79 567 q 276 632 195 579 q 389 772 357 685 q 407 838 401 804 l 103 838 l 103 968 l 522 968 q 552 958 540 968 q 564 925 564 948 q 553 796 564 850 l 685 796 l 685 991 l 834 991 l 834 431 l 685 431 l 685 666 l 505 666 l 505 667 q 79 431 389 473 l 79 567 m 243 358 l 1010 358 q 1058 341 1038 358 q 1078 298 1078 324 l 1078 95 q 1060 52 1078 68 q 1016 35 1042 35 l 406 35 l 406 -49 l 1096 -49 l 1096 -174 l 353 -174 q 278 -146 308 -174 q 248 -73 248 -118 l 248 110 q 261 140 248 129 q 293 152 274 152 l 921 152 l 921 233 l 243 233 l 243 358 m 929 997 l 1081 997 l 1081 426 l 929 426 l 929 997 z "},"겕":{"ha":1389,"x_min":0,"x_max":0,"o":""},"겖":{"ha":1389,"x_min":0,"x_max":0,"o":""},"겗":{"ha":1389,"x_min":0,"x_max":0,"o":""},"겘":{"ha":1389,"x_min":0,"x_max":0,"o":""},"겙":{"ha":1389,"x_min":0,"x_max":0,"o":""},"겚":{"ha":1389,"x_min":0,"x_max":0,"o":""},"겛":{"ha":1389,"x_min":0,"x_max":0,"o":""},"겜":{"ha":1194,"x_min":79,"x_max":1081,"o":"m 79 500 q 266 581 184 518 q 377 739 347 644 q 396 831 396 803 l 103 831 l 103 962 l 522 962 q 552 951 540 962 q 564 918 564 941 q 563 844 564 876 q 553 772 562 812 l 685 772 l 685 991 l 834 991 l 834 369 l 685 369 l 685 642 l 511 642 q 357 466 461 540 q 79 365 254 392 l 79 500 m 239 288 l 1019 288 q 1063 271 1044 288 q 1081 228 1081 255 l 1081 -164 l 301 -164 q 257 -148 275 -164 q 239 -104 239 -132 l 239 288 m 924 -34 l 924 157 l 396 157 l 396 -34 l 924 -34 m 929 997 l 1081 997 l 1081 363 l 929 363 l 929 997 z "},"겝":{"ha":1194,"x_min":79,"x_max":1081,"o":"m 79 500 q 266 581 184 518 q 377 739 347 644 q 396 831 396 803 l 103 831 l 103 962 l 522 962 q 552 951 540 962 q 564 918 564 941 q 563 844 564 876 q 553 772 562 812 l 685 772 l 685 991 l 834 991 l 834 381 l 685 381 l 685 642 l 511 642 q 357 466 461 540 q 79 365 254 392 l 79 500 m 239 308 l 396 308 l 396 208 l 924 208 l 924 308 l 1081 308 l 1081 -167 l 301 -167 q 257 -151 275 -167 q 239 -107 239 -134 l 239 308 m 924 -37 l 924 85 l 396 85 l 396 -37 l 924 -37 m 929 997 l 1081 997 l 1081 376 l 929 376 l 929 997 z "},"겞":{"ha":1389,"x_min":0,"x_max":0,"o":""},"겟":{"ha":1194,"x_min":79,"x_max":1097,"o":"m 79 473 q 272 561 183 491 q 391 726 361 631 q 410 831 410 789 l 103 831 l 103 962 l 536 962 q 566 951 553 962 q 578 918 578 941 q 566 772 578 834 l 685 772 l 685 991 l 834 991 l 834 381 l 685 381 l 685 642 l 524 642 q 367 448 473 530 q 79 338 260 366 l 79 473 m 217 -45 q 477 53 377 -22 q 578 256 578 127 l 578 296 l 735 296 l 735 267 q 836 60 735 136 q 1097 -41 936 -15 l 1097 -175 q 818 -86 933 -153 q 661 65 703 -19 q 505 -87 618 -20 q 217 -176 392 -153 l 217 -45 m 929 997 l 1081 997 l 1081 294 l 929 294 l 929 997 z "},"겠":{"ha":1194,"x_min":79,"x_max":1111,"o":"m 79 500 q 266 581 184 518 q 377 739 347 644 q 396 831 396 803 l 103 831 l 103 962 l 522 962 q 552 951 540 962 q 564 918 564 941 q 563 844 564 876 q 553 772 562 812 l 685 772 l 685 991 l 834 991 l 834 369 l 685 369 l 685 642 l 511 642 q 357 466 461 540 q 79 365 254 392 l 79 500 m 159 -35 q 234 3 193 -31 q 305 98 275 37 q 335 239 335 159 l 335 296 l 492 296 l 492 250 q 536 84 492 152 q 635 -23 581 16 q 732 78 688 12 q 776 239 776 144 l 776 296 l 933 296 l 933 250 q 963 105 933 167 q 1035 9 993 43 q 1111 -31 1077 -24 l 1111 -175 q 962 -96 1038 -163 q 859 46 886 -30 q 772 -88 834 -26 q 635 -176 709 -151 q 507 -87 571 -151 q 418 46 442 -23 q 317 -98 391 -33 q 159 -176 243 -164 l 159 -35 m 929 997 l 1081 997 l 1081 363 l 929 363 l 929 997 z "},"겡":{"ha":1194,"x_min":79,"x_max":1084,"o":"m 79 500 q 266 581 184 518 q 377 739 347 644 q 396 831 396 803 l 103 831 l 103 962 l 522 962 q 552 951 540 962 q 564 918 564 941 q 563 844 564 876 q 553 772 562 812 l 685 772 l 685 991 l 834 991 l 834 384 l 685 384 l 685 642 l 511 642 q 357 466 461 540 q 79 365 254 392 l 79 500 m 221 60 q 272 191 221 133 q 420 282 323 248 q 654 316 518 316 q 885 282 788 316 q 1033 191 982 248 q 1084 60 1084 133 q 1033 -72 1084 -14 q 885 -164 982 -130 q 654 -198 788 -198 q 420 -164 518 -198 q 272 -72 323 -130 q 221 60 221 -14 m 378 60 q 450 -34 378 3 q 654 -71 522 -71 q 854 -34 783 -71 q 926 60 926 3 q 854 152 926 115 q 654 189 783 189 q 450 152 522 189 q 378 60 378 115 m 929 997 l 1081 997 l 1081 349 l 929 349 l 929 997 z "},"겢":{"ha":1389,"x_min":0,"x_max":0,"o":""},"겣":{"ha":1389,"x_min":0,"x_max":0,"o":""},"겤":{"ha":1389,"x_min":0,"x_max":0,"o":""},"겥":{"ha":1389,"x_min":0,"x_max":0,"o":""},"겦":{"ha":1389,"x_min":0,"x_max":0,"o":""},"겧":{"ha":1389,"x_min":0,"x_max":0,"o":""},"겨":{"ha":1194,"x_min":84,"x_max":1066,"o":"m 84 213 q 263 277 176 229 q 416 401 350 326 q 510 568 481 476 q 545 831 545 678 l 109 831 l 109 962 l 674 962 q 704 951 692 962 q 716 918 716 941 q 668 549 716 718 q 480 250 620 381 q 84 69 340 118 l 84 213 m 731 467 l 909 467 l 909 677 l 731 677 l 731 804 l 909 804 l 909 997 l 1066 997 l 1066 24 l 909 24 l 909 339 l 731 339 l 731 467 z "},"격":{"ha":1194,"x_min":84,"x_max":1066,"o":"m 84 500 q 329 585 221 519 q 481 743 437 651 q 499 791 494 768 q 505 831 505 815 l 109 831 l 109 962 l 633 962 q 663 951 651 962 q 675 918 675 941 q 635 726 675 837 q 464 508 595 616 q 84 365 332 400 l 84 500 m 232 277 l 990 277 q 1044 256 1023 277 q 1066 203 1066 236 l 1066 -168 l 909 -168 l 909 146 l 232 146 l 232 277 m 703 636 l 909 636 l 909 746 l 703 746 l 703 873 l 909 873 l 909 997 l 1066 997 l 1066 363 l 909 363 l 909 509 l 703 509 l 703 636 z "},"겪":{"ha":1194,"x_min":84,"x_max":1066,"o":"m 84 500 q 329 585 221 519 q 481 743 437 651 q 499 791 494 768 q 505 831 505 815 l 109 831 l 109 962 l 633 962 q 663 951 651 962 q 675 918 675 941 q 635 726 675 837 q 464 508 595 616 q 84 365 332 400 l 84 500 m 195 277 l 540 277 q 594 256 572 277 q 616 203 616 236 l 616 -168 l 458 -168 l 458 146 l 195 146 l 195 277 m 669 277 l 989 277 q 1043 256 1021 277 q 1065 203 1065 236 l 1065 -168 l 907 -168 l 907 146 l 669 146 l 669 277 m 703 636 l 909 636 l 909 746 l 703 746 l 703 873 l 909 873 l 909 997 l 1066 997 l 1066 363 l 909 363 l 909 509 l 703 509 l 703 636 z "},"겫":{"ha":1389,"x_min":0,"x_max":0,"o":""},"견":{"ha":1194,"x_min":84,"x_max":1086,"o":"m 84 476 q 355 567 231 496 q 522 738 480 637 q 545 826 545 789 l 109 826 l 109 956 l 674 956 q 704 946 692 956 q 716 913 716 936 q 673 714 716 829 q 490 488 631 600 q 84 340 350 376 l 84 476 m 236 254 l 393 254 l 393 -24 l 1086 -24 l 1086 -155 l 312 -155 q 258 -134 279 -155 q 236 -81 236 -114 l 236 254 m 738 613 l 909 613 l 909 736 l 738 736 l 738 864 l 909 864 l 909 997 l 1066 997 l 1066 189 l 909 189 l 909 486 l 738 486 l 738 613 z "},"겭":{"ha":1389,"x_min":0,"x_max":0,"o":""},"겮":{"ha":1389,"x_min":0,"x_max":0,"o":""},"겯":{"ha":1194,"x_min":84,"x_max":1082,"o":"m 84 500 q 329 585 221 519 q 481 743 437 651 q 499 791 494 768 q 505 831 505 815 l 109 831 l 109 962 l 633 962 q 663 951 651 962 q 675 918 675 941 q 635 726 675 837 q 464 508 595 616 q 84 365 332 400 l 84 500 m 239 282 l 1067 282 l 1067 152 l 396 152 l 396 -34 l 1082 -34 l 1082 -164 l 301 -164 q 257 -148 275 -164 q 239 -104 239 -132 l 239 282 m 703 636 l 909 636 l 909 746 l 703 746 l 703 873 l 909 873 l 909 997 l 1066 997 l 1066 363 l 909 363 l 909 509 l 703 509 l 703 636 z "},"결":{"ha":1194,"x_min":84,"x_max":1081,"o":"m 84 567 q 333 642 225 587 q 484 776 441 696 q 505 837 505 812 l 109 837 l 109 967 l 633 967 q 663 957 651 967 q 675 924 675 947 q 636 745 675 841 q 465 558 597 650 q 84 431 334 467 l 84 567 m 232 358 l 996 358 q 1043 341 1023 358 q 1063 298 1063 324 l 1063 95 q 1045 52 1063 68 q 1001 35 1027 35 l 395 35 l 395 -49 l 1081 -49 l 1081 -174 l 342 -174 q 267 -146 297 -174 q 237 -73 237 -118 l 237 110 q 250 140 237 129 q 282 152 263 152 l 906 152 l 906 233 l 232 233 l 232 358 m 694 665 l 909 665 l 909 761 l 700 761 l 700 886 l 909 886 l 909 997 l 1066 997 l 1066 427 l 909 427 l 909 540 l 694 540 l 694 665 z "},"겱":{"ha":1389,"x_min":0,"x_max":0,"o":""},"겲":{"ha":1389,"x_min":0,"x_max":0,"o":""},"겳":{"ha":1389,"x_min":0,"x_max":0,"o":""},"겴":{"ha":1389,"x_min":0,"x_max":0,"o":""},"겵":{"ha":1389,"x_min":0,"x_max":0,"o":""},"겶":{"ha":1389,"x_min":0,"x_max":0,"o":""},"겷":{"ha":1389,"x_min":0,"x_max":0,"o":""},"겸":{"ha":1194,"x_min":84,"x_max":1066,"o":"m 84 500 q 329 585 221 519 q 481 743 437 651 q 499 791 494 768 q 505 831 505 815 l 109 831 l 109 962 l 633 962 q 663 951 651 962 q 675 918 675 941 q 635 726 675 837 q 464 508 595 616 q 84 365 332 400 l 84 500 m 236 288 l 1004 288 q 1048 271 1029 288 q 1066 228 1066 255 l 1066 -164 l 298 -164 q 254 -148 273 -164 q 236 -104 236 -132 l 236 288 m 909 -34 l 909 157 l 393 157 l 393 -34 l 909 -34 m 703 636 l 909 636 l 909 746 l 703 746 l 703 873 l 909 873 l 909 997 l 1066 997 l 1066 363 l 909 363 l 909 509 l 703 509 l 703 636 z "},"겹":{"ha":1194,"x_min":84,"x_max":1066,"o":"m 84 500 q 329 585 221 519 q 481 743 437 651 q 499 791 494 768 q 505 831 505 815 l 109 831 l 109 962 l 633 962 q 663 951 651 962 q 675 918 675 941 q 635 726 675 837 q 464 508 595 616 q 84 365 332 400 l 84 500 m 236 308 l 393 308 l 393 208 l 909 208 l 909 308 l 1066 308 l 1066 -167 l 298 -167 q 254 -151 273 -167 q 236 -107 236 -134 l 236 308 m 909 -37 l 909 85 l 393 85 l 393 -37 l 909 -37 m 694 636 l 909 636 l 909 746 l 694 746 l 694 873 l 909 873 l 909 997 l 1066 997 l 1066 363 l 909 363 l 909 509 l 694 509 l 694 636 z "},"겺":{"ha":1389,"x_min":0,"x_max":0,"o":""},"겻":{"ha":1194,"x_min":84,"x_max":1089,"o":"m 84 476 q 355 567 231 496 q 522 738 480 637 q 545 826 545 789 l 109 826 l 109 956 l 674 956 q 704 946 692 956 q 716 913 716 936 q 673 714 716 829 q 490 488 631 600 q 84 340 350 376 l 84 476 m 214 -45 q 473 53 374 -22 q 572 256 572 127 l 572 296 l 730 296 l 730 267 q 829 60 730 136 q 1089 -41 928 -15 l 1089 -175 q 811 -86 925 -153 q 655 65 697 -19 q 501 -87 613 -20 q 214 -176 389 -153 l 214 -45 m 735 636 l 909 636 l 909 746 l 735 746 l 735 873 l 909 873 l 909 997 l 1066 997 l 1066 269 l 909 269 l 909 509 l 735 509 l 735 636 z "},"겼":{"ha":1194,"x_min":84,"x_max":1089,"o":"m 84 500 q 329 585 221 519 q 481 743 437 651 q 499 791 494 768 q 505 831 505 815 l 109 831 l 109 962 l 633 962 q 663 951 651 962 q 675 918 675 941 q 635 726 675 837 q 464 508 595 616 q 84 365 332 400 l 84 500 m 159 -35 q 233 3 193 -31 q 301 98 273 37 q 330 239 330 159 l 330 296 l 487 296 l 487 250 q 530 83 487 151 q 624 -23 572 15 q 717 77 674 11 q 760 239 760 144 l 760 296 l 917 296 l 917 250 q 945 105 917 167 q 1015 9 974 43 q 1089 -31 1055 -24 l 1089 -175 q 943 -97 1016 -163 q 842 46 869 -31 q 758 -89 818 -27 q 624 -176 697 -151 q 498 -87 560 -151 q 412 46 437 -24 q 314 -99 385 -34 q 159 -176 243 -164 l 159 -35 m 703 636 l 909 636 l 909 746 l 703 746 l 703 873 l 909 873 l 909 997 l 1066 997 l 1066 363 l 909 363 l 909 509 l 703 509 l 703 636 z "},"경":{"ha":1194,"x_min":84,"x_max":1076,"o":"m 650 -198 q 425 -161 522 -198 q 276 -62 328 -125 q 224 77 224 0 q 276 215 224 153 q 425 313 328 277 q 650 350 522 350 q 874 313 777 350 q 1023 215 971 277 q 1076 77 1076 153 q 1023 -62 1076 0 q 874 -161 971 -125 q 650 -198 777 -198 m 84 476 q 330 567 222 495 q 481 743 437 639 q 498 793 492 769 q 505 831 505 818 l 109 831 l 109 962 l 633 962 q 663 951 651 962 q 675 918 675 941 q 637 719 675 833 q 468 493 600 605 q 84 346 336 381 l 84 476 m 384 77 q 453 -28 384 14 q 650 -69 522 -69 q 846 -28 777 -69 q 916 77 916 14 q 846 180 916 140 q 650 221 777 221 q 453 180 522 221 q 384 77 384 140 m 694 635 l 909 635 l 909 739 l 700 739 l 700 867 l 909 867 l 909 997 l 1066 997 l 1066 345 l 909 345 l 909 507 l 694 507 l 694 635 z "},"겾":{"ha":1389,"x_min":0,"x_max":0,"o":""},"겿":{"ha":1389,"x_min":0,"x_max":0,"o":""},"곀":{"ha":1389,"x_min":0,"x_max":0,"o":""},"곁":{"ha":1194,"x_min":84,"x_max":1082,"o":"m 84 567 q 357 643 232 587 q 525 776 483 699 q 545 837 545 812 l 109 837 l 109 967 l 674 967 q 704 957 692 967 q 716 924 716 947 q 715 891 716 903 l 909 891 l 909 997 l 1066 997 l 1066 427 l 909 427 l 909 545 l 694 545 l 694 670 l 909 670 l 909 766 l 694 766 l 694 793 q 511 570 651 670 q 84 431 370 469 l 84 567 m 236 358 l 1070 358 l 1070 233 l 393 233 l 393 152 l 1062 152 l 1062 35 l 393 35 l 393 -49 l 1082 -49 l 1082 -174 l 298 -174 q 254 -157 273 -174 q 236 -113 236 -140 l 236 358 z "},"곂":{"ha":1389,"x_min":0,"x_max":0,"o":""},"곃":{"ha":1389,"x_min":0,"x_max":0,"o":""},"계":{"ha":1194,"x_min":73,"x_max":1081,"o":"m 73 210 q 216 303 148 233 q 319 495 283 373 q 347 643 336 553 q 358 831 358 732 l 98 831 l 98 962 l 473 962 q 503 951 491 962 q 515 918 515 941 q 483 524 515 690 q 353 235 450 357 q 73 64 256 113 l 73 210 m 524 439 l 665 439 l 665 650 l 537 650 l 537 777 l 665 777 l 665 991 l 814 991 l 814 35 l 665 35 l 665 312 l 524 312 l 524 439 m 929 997 l 1081 997 l 1081 30 l 929 30 l 929 997 z "},"곅":{"ha":1389,"x_min":0,"x_max":0,"o":""},"곆":{"ha":1389,"x_min":0,"x_max":0,"o":""},"곇":{"ha":1389,"x_min":0,"x_max":0,"o":""},"곈":{"ha":1194,"x_min":79,"x_max":1092,"o":"m 79 473 q 272 561 183 491 q 391 726 361 631 q 410 831 410 789 l 103 831 l 103 962 l 536 962 q 566 951 553 962 q 578 918 578 941 q 576 863 578 886 l 685 863 l 685 991 l 834 991 l 834 199 l 685 199 l 685 475 l 532 475 l 532 605 l 685 605 l 685 732 l 556 732 q 409 482 519 591 q 79 338 298 373 l 79 473 m 247 254 l 404 254 l 404 -24 l 1092 -24 l 1092 -155 l 323 -155 q 269 -134 290 -155 q 247 -81 247 -114 l 247 254 m 929 997 l 1081 997 l 1081 189 l 929 189 l 929 997 z "},"곉":{"ha":1389,"x_min":0,"x_max":0,"o":""},"곊":{"ha":1389,"x_min":0,"x_max":0,"o":""},"곋":{"ha":1389,"x_min":0,"x_max":0,"o":""},"곌":{"ha":1194,"x_min":79,"x_max":1096,"o":"m 79 567 q 276 632 195 579 q 389 772 357 685 q 407 838 401 804 l 103 838 l 103 968 l 522 968 q 552 958 540 968 q 564 925 564 948 q 563 871 564 892 l 685 871 l 685 991 l 834 991 l 834 431 l 685 431 l 685 537 l 518 537 l 518 662 l 685 662 l 685 746 l 540 746 q 395 546 502 632 q 79 431 288 460 l 79 567 m 243 358 l 1010 358 q 1058 341 1038 358 q 1078 298 1078 324 l 1078 95 q 1060 52 1078 68 q 1016 35 1042 35 l 406 35 l 406 -49 l 1096 -49 l 1096 -174 l 353 -174 q 278 -146 308 -174 q 248 -73 248 -118 l 248 110 q 261 140 248 129 q 293 152 274 152 l 921 152 l 921 233 l 243 233 l 243 358 m 929 997 l 1081 997 l 1081 426 l 929 426 l 929 997 z "},"곍":{"ha":1389,"x_min":0,"x_max":0,"o":""},"곎":{"ha":1389,"x_min":0,"x_max":0,"o":""},"곏":{"ha":1389,"x_min":0,"x_max":0,"o":""},"곐":{"ha":1389,"x_min":0,"x_max":0,"o":""},"곑":{"ha":1389,"x_min":0,"x_max":0,"o":""},"곒":{"ha":1389,"x_min":0,"x_max":0,"o":""},"곓":{"ha":1389,"x_min":0,"x_max":0,"o":""},"곔":{"ha":1389,"x_min":0,"x_max":0,"o":""},"곕":{"ha":1194,"x_min":79,"x_max":1081,"o":"m 79 500 q 266 581 184 518 q 377 739 347 644 q 396 831 396 803 l 103 831 l 103 962 l 522 962 q 552 951 540 962 q 564 918 564 941 l 564 871 l 685 871 l 685 991 l 834 991 l 834 381 l 685 381 l 685 517 l 532 517 l 532 642 l 685 642 l 685 746 l 548 746 q 409 506 517 612 q 79 365 301 400 l 79 500 m 239 308 l 396 308 l 396 208 l 924 208 l 924 308 l 1081 308 l 1081 -167 l 301 -167 q 257 -151 275 -167 q 239 -107 239 -134 l 239 308 m 924 -37 l 924 85 l 396 85 l 396 -37 l 924 -37 m 929 997 l 1081 997 l 1081 376 l 929 376 l 929 997 z "},"곖":{"ha":1389,"x_min":0,"x_max":0,"o":""},"곗":{"ha":1194,"x_min":79,"x_max":1097,"o":"m 79 473 q 272 561 183 491 q 391 726 361 631 q 410 831 410 789 l 103 831 l 103 962 l 536 962 q 566 951 553 962 q 578 918 578 941 q 576 871 578 890 l 685 871 l 685 991 l 834 991 l 834 381 l 685 381 l 685 517 l 538 517 l 538 642 l 685 642 l 685 746 l 560 746 q 414 486 525 600 q 79 338 304 373 l 79 473 m 217 -45 q 477 53 377 -22 q 578 256 578 127 l 578 296 l 735 296 l 735 267 q 836 60 735 136 q 1097 -41 936 -15 l 1097 -175 q 818 -86 933 -153 q 661 65 703 -19 q 505 -87 618 -20 q 217 -176 392 -153 l 217 -45 m 929 997 l 1081 997 l 1081 294 l 929 294 l 929 997 z "},"곘":{"ha":1389,"x_min":0,"x_max":0,"o":""},"곙":{"ha":1389,"x_min":0,"x_max":0,"o":""},"곚":{"ha":1389,"x_min":0,"x_max":0,"o":""},"곛":{"ha":1389,"x_min":0,"x_max":0,"o":""},"곜":{"ha":1389,"x_min":0,"x_max":0,"o":""},"곝":{"ha":1389,"x_min":0,"x_max":0,"o":""},"곞":{"ha":1389,"x_min":0,"x_max":0,"o":""},"곟":{"ha":1389,"x_min":0,"x_max":0,"o":""},"고":{"ha":1194,"x_min":75,"x_max":1119,"o":"m 888 833 l 138 833 l 138 963 l 970 963 q 1024 943 1002 963 q 1046 890 1046 922 l 1046 317 l 888 317 l 888 833 m 75 186 l 438 186 l 438 613 l 595 613 l 595 186 l 1119 186 l 1119 56 l 75 56 l 75 186 z "},"곡":{"ha":1194,"x_min":75,"x_max":1119,"o":"m 75 472 l 445 472 l 445 711 l 602 711 l 602 472 l 1119 472 l 1119 342 l 75 342 l 75 472 m 144 978 l 970 978 q 1024 958 1002 978 q 1046 905 1046 937 l 1046 564 l 888 564 l 888 850 l 144 850 l 144 978 m 149 231 l 964 231 q 1019 210 997 231 q 1040 157 1040 190 l 1040 -168 l 883 -168 l 883 100 l 149 100 l 149 231 z "},"곢":{"ha":1389,"x_min":0,"x_max":0,"o":""},"곣":{"ha":1389,"x_min":0,"x_max":0,"o":""},"곤":{"ha":1194,"x_min":75,"x_max":1119,"o":"m 888 845 l 144 845 l 144 972 l 970 972 q 1024 952 1002 972 q 1046 899 1046 932 l 1046 552 l 888 552 l 888 845 m 75 458 l 445 458 l 445 697 l 602 697 l 602 458 l 1119 458 l 1119 328 l 75 328 l 75 458 m 157 224 l 315 224 l 315 -23 l 1053 -23 l 1053 -153 l 233 -153 q 179 -133 201 -153 q 157 -80 157 -113 l 157 224 z "},"곥":{"ha":1389,"x_min":0,"x_max":0,"o":""},"곦":{"ha":1389,"x_min":0,"x_max":0,"o":""},"곧":{"ha":1194,"x_min":75,"x_max":1119,"o":"m 888 850 l 144 850 l 144 978 l 970 978 q 1024 958 1002 978 q 1046 905 1046 937 l 1046 572 l 888 572 l 888 850 m 75 491 l 445 491 l 445 711 l 602 711 l 602 491 l 1119 491 l 1119 361 l 75 361 l 75 491 m 159 252 l 1040 252 l 1040 125 l 316 125 l 316 -37 l 1055 -37 l 1055 -164 l 221 -164 q 177 -148 195 -164 q 159 -104 159 -132 l 159 252 z "},"골":{"ha":1194,"x_min":75,"x_max":1119,"o":"m 888 859 l 144 859 l 144 983 l 970 983 q 1024 963 1002 983 q 1046 910 1046 943 l 1046 650 l 888 650 l 888 859 m 75 575 l 438 575 l 438 755 l 595 755 l 595 575 l 1119 575 l 1119 448 l 75 448 l 75 575 m 148 355 l 970 355 q 1017 338 997 355 q 1038 294 1038 321 l 1038 95 q 1019 51 1038 68 q 975 34 1001 34 l 311 34 l 311 -49 l 1055 -49 l 1055 -174 l 258 -174 q 183 -145 213 -174 q 153 -72 153 -117 l 153 107 q 166 139 153 127 q 198 151 179 151 l 880 151 l 880 231 l 148 231 l 148 355 z "},"곩":{"ha":1389,"x_min":0,"x_max":0,"o":""},"곪":{"ha":1194,"x_min":75,"x_max":1119,"o":"m 888 859 l 144 859 l 144 983 l 970 983 q 1024 963 1002 983 q 1046 910 1046 943 l 1046 650 l 888 650 l 888 859 m 75 575 l 438 575 l 438 755 l 595 755 l 595 575 l 1119 575 l 1119 448 l 75 448 l 75 575 m 144 355 l 498 355 q 545 338 525 355 q 566 296 566 321 l 566 95 q 547 52 566 68 q 503 35 529 35 l 304 35 l 304 -52 l 582 -52 l 582 -174 l 233 -174 q 173 -151 197 -174 q 149 -92 149 -129 l 149 107 q 162 138 149 126 q 194 149 175 149 l 416 149 l 416 233 l 144 233 l 144 355 m 627 355 l 970 355 q 1024 335 1002 355 q 1046 282 1046 315 l 1046 -174 l 694 -174 q 627 -109 627 -174 l 627 355 m 894 -52 l 894 233 l 776 233 l 776 -52 l 894 -52 z "},"곫":{"ha":1389,"x_min":0,"x_max":0,"o":""},"곬":{"ha":1194,"x_min":75,"x_max":1119,"o":"m 888 859 l 144 859 l 144 983 l 970 983 q 1024 963 1002 983 q 1046 910 1046 943 l 1046 650 l 888 650 l 888 859 m 75 575 l 438 575 l 438 755 l 595 755 l 595 575 l 1119 575 l 1119 448 l 75 448 l 75 575 m 144 355 l 511 355 q 559 338 538 355 q 579 296 579 321 l 579 95 q 561 52 579 68 q 517 35 543 35 l 304 35 l 304 -52 l 582 -52 l 582 -174 l 233 -174 q 173 -151 197 -174 q 149 -92 149 -129 l 149 107 q 162 138 149 126 q 194 149 175 149 l 430 149 l 430 233 l 144 233 l 144 355 m 616 -24 q 681 16 650 -18 q 732 109 712 49 q 753 251 753 168 l 753 350 l 905 350 l 905 262 q 929 109 905 172 q 988 14 954 46 q 1057 -24 1023 -19 l 1057 -174 q 917 -102 979 -163 q 833 27 854 -42 q 751 -102 812 -41 q 616 -175 690 -163 l 616 -24 z "},"곭":{"ha":1389,"x_min":0,"x_max":0,"o":""},"곮":{"ha":1389,"x_min":0,"x_max":0,"o":""},"곯":{"ha":1194,"x_min":75,"x_max":1119,"o":"m 888 859 l 144 859 l 144 983 l 970 983 q 1024 963 1002 983 q 1046 910 1046 943 l 1046 650 l 888 650 l 888 859 m 75 575 l 438 575 l 438 755 l 595 755 l 595 575 l 1119 575 l 1119 448 l 75 448 l 75 575 m 144 351 l 475 351 q 522 334 502 351 q 543 292 543 317 l 543 94 q 524 50 543 66 q 480 33 506 33 l 304 33 l 304 -49 l 559 -49 l 559 -174 l 233 -174 q 173 -151 197 -174 q 149 -91 149 -127 l 149 106 q 162 137 149 125 q 194 149 175 149 l 393 149 l 393 228 l 144 228 l 144 351 m 575 297 l 745 297 l 745 363 l 891 363 l 891 297 l 1061 297 l 1061 180 l 890 180 l 890 138 q 998 84 959 125 q 1036 -15 1036 43 q 979 -140 1036 -91 q 819 -189 921 -189 q 661 -140 719 -189 q 604 -15 604 -91 q 642 82 604 42 q 746 137 680 122 l 746 180 l 575 180 l 575 297 m 741 -9 q 763 -54 741 -38 q 819 -71 785 -71 q 877 -54 854 -71 q 899 -9 899 -38 q 877 36 899 19 q 819 53 854 53 q 763 36 785 53 q 741 -9 741 19 z "},"곰":{"ha":1194,"x_min":75,"x_max":1119,"o":"m 888 850 l 144 850 l 144 978 l 970 978 q 1024 958 1002 978 q 1046 905 1046 937 l 1046 572 l 888 572 l 888 850 m 75 491 l 445 491 l 445 711 l 602 711 l 602 491 l 1119 491 l 1119 361 l 75 361 l 75 491 m 155 258 l 978 258 q 1022 241 1004 258 q 1040 198 1040 225 l 1040 -164 l 217 -164 q 173 -148 191 -164 q 155 -104 155 -132 l 155 258 m 883 -37 l 883 130 l 312 130 l 312 -37 l 883 -37 z "},"곱":{"ha":1194,"x_min":75,"x_max":1119,"o":"m 888 850 l 144 850 l 144 978 l 970 978 q 1024 958 1002 978 q 1046 905 1046 937 l 1046 572 l 888 572 l 888 850 m 75 491 l 445 491 l 445 711 l 602 711 l 602 491 l 1119 491 l 1119 361 l 75 361 l 75 491 m 155 281 l 312 281 l 312 187 l 883 187 l 883 281 l 1040 281 l 1040 -167 l 217 -167 q 173 -151 191 -167 q 155 -107 155 -134 l 155 281 m 883 -37 l 883 65 l 312 65 l 312 -37 l 883 -37 z "},"곲":{"ha":1389,"x_min":0,"x_max":0,"o":""},"곳":{"ha":1194,"x_min":75,"x_max":1119,"o":"m 75 467 l 445 467 l 445 711 l 602 711 l 602 467 l 1119 467 l 1119 336 l 75 336 l 75 467 m 127 -45 q 404 49 289 -23 q 518 232 518 121 l 518 248 l 675 248 l 675 243 q 789 56 675 129 q 1067 -41 903 -16 l 1067 -175 q 858 -125 955 -161 q 694 -41 761 -90 q 601 61 628 8 q 433 -88 560 -22 q 127 -176 307 -155 l 127 -45 m 144 972 l 970 972 q 1024 952 1002 972 q 1046 899 1046 932 l 1046 552 l 888 552 l 888 845 l 144 845 l 144 972 z "},"곴":{"ha":1389,"x_min":0,"x_max":0,"o":""},"공":{"ha":1194,"x_min":75,"x_max":1119,"o":"m 888 850 l 144 850 l 144 978 l 970 978 q 1024 958 1002 978 q 1046 905 1046 937 l 1046 590 l 888 590 l 888 850 m 75 509 l 438 509 l 438 727 l 595 727 l 595 509 l 1119 509 l 1119 381 l 75 381 l 75 509 m 153 45 q 274 224 153 164 q 598 283 395 283 q 920 224 800 283 q 1040 45 1040 164 q 920 -135 1040 -75 q 598 -195 800 -195 q 274 -135 395 -195 q 153 45 153 -75 m 315 45 q 391 -39 315 -9 q 598 -68 468 -68 q 803 -39 727 -68 q 879 45 879 -9 q 803 127 879 98 q 598 156 727 156 q 391 127 468 156 q 315 45 315 98 z "},"곶":{"ha":1194,"x_min":75,"x_max":1119,"o":"m 888 850 l 144 850 l 144 978 l 970 978 q 1024 958 1002 978 q 1046 905 1046 937 l 1046 572 l 888 572 l 888 850 m 75 491 l 445 491 l 445 711 l 602 711 l 602 491 l 1119 491 l 1119 361 l 75 361 l 75 491 m 148 -45 q 329 -14 243 -41 q 467 50 415 12 q 519 123 519 88 l 519 129 l 159 129 l 159 256 l 1038 256 l 1038 129 l 677 129 q 734 55 681 92 q 871 -9 787 18 q 1050 -42 956 -35 l 1050 -175 q 770 -113 894 -164 q 602 7 647 -62 q 436 -114 557 -64 q 148 -176 315 -164 l 148 -45 z "},"곷":{"ha":1389,"x_min":0,"x_max":0,"o":""},"곸":{"ha":1389,"x_min":0,"x_max":0,"o":""},"곹":{"ha":1389,"x_min":0,"x_max":0,"o":""},"곺":{"ha":1389,"x_min":0,"x_max":0,"o":""},"곻":{"ha":1389,"x_min":0,"x_max":0,"o":""},"과":{"ha":1194,"x_min":75,"x_max":1175,"o":"m 582 833 l 111 833 l 111 963 l 663 963 q 718 943 696 963 q 739 890 739 922 l 739 345 l 582 345 l 582 833 m 75 213 l 267 213 l 267 627 l 425 627 l 425 213 l 810 213 l 810 83 l 75 83 l 75 213 m 876 997 l 1034 997 l 1034 623 l 1175 623 l 1175 492 l 1034 492 l 1034 24 l 876 24 l 876 997 z "},"곽":{"ha":1194,"x_min":75,"x_max":1175,"o":"m 582 850 l 111 850 l 111 978 l 663 978 q 718 958 696 978 q 739 905 739 937 l 739 579 l 582 579 l 582 850 m 75 464 l 270 464 l 270 699 l 427 699 l 427 464 l 810 464 l 810 336 l 75 336 l 75 464 m 209 209 l 962 209 q 1016 189 994 209 q 1038 136 1038 168 l 1038 -168 l 880 -168 l 880 79 l 209 79 l 209 209 m 876 997 l 1034 997 l 1034 766 l 1175 766 l 1175 636 l 1034 636 l 1034 317 l 876 317 l 876 997 z "},"곾":{"ha":1389,"x_min":0,"x_max":0,"o":""},"곿":{"ha":1389,"x_min":0,"x_max":0,"o":""},"관":{"ha":1194,"x_min":75,"x_max":1175,"o":"m 582 845 l 111 845 l 111 972 l 663 972 q 718 952 696 972 q 739 899 739 932 l 739 566 l 582 566 l 582 845 m 75 452 l 267 452 l 267 708 l 425 708 l 425 452 l 810 452 l 810 321 l 75 321 l 75 452 m 203 213 l 361 213 l 361 -24 l 1046 -24 l 1046 -155 l 279 -155 q 225 -134 247 -155 q 203 -81 203 -114 l 203 213 m 876 997 l 1034 997 l 1034 758 l 1175 758 l 1175 628 l 1034 628 l 1034 161 l 876 161 l 876 997 z "},"괁":{"ha":1389,"x_min":0,"x_max":0,"o":""},"괂":{"ha":1389,"x_min":0,"x_max":0,"o":""},"괃":{"ha":1389,"x_min":0,"x_max":0,"o":""},"괄":{"ha":1194,"x_min":75,"x_max":1175,"o":"m 582 856 l 111 856 l 111 983 l 663 983 q 718 963 696 983 q 739 910 739 943 l 739 642 l 582 642 l 582 856 m 75 553 l 270 553 l 270 746 l 427 746 l 427 553 l 810 553 l 810 431 l 75 431 l 75 553 m 227 342 l 963 342 q 1010 325 990 342 q 1031 282 1031 308 l 1031 88 q 1013 45 1031 61 q 968 28 994 28 l 389 28 l 389 -52 l 1048 -52 l 1048 -174 l 336 -174 q 262 -146 292 -174 q 232 -73 232 -118 l 232 100 q 245 131 232 119 q 277 142 258 142 l 873 142 l 873 220 l 227 220 l 227 342 m 876 997 l 1034 997 l 1034 766 l 1175 766 l 1175 636 l 1034 636 l 1034 412 l 876 412 l 876 997 z "},"괅":{"ha":1389,"x_min":0,"x_max":0,"o":""},"괆":{"ha":1194,"x_min":75,"x_max":1175,"o":"m 582 856 l 111 856 l 111 983 l 663 983 q 718 963 696 983 q 739 910 739 943 l 739 642 l 582 642 l 582 856 m 75 553 l 270 553 l 270 746 l 427 746 l 427 553 l 810 553 l 810 431 l 75 431 l 75 553 m 199 342 l 513 342 q 560 325 540 342 q 581 282 581 308 l 581 90 q 562 45 581 62 q 518 28 544 28 l 359 28 l 359 -52 l 597 -52 l 597 -174 l 289 -174 q 229 -151 252 -174 q 205 -91 205 -127 l 205 99 q 218 130 205 118 q 250 142 231 142 l 431 142 l 431 220 l 199 220 l 199 342 m 636 342 l 958 342 q 1012 321 990 342 q 1034 267 1034 301 l 1034 -174 l 704 -174 q 636 -107 636 -174 l 636 342 m 882 -52 l 882 220 l 785 220 l 785 -52 l 882 -52 m 876 997 l 1034 997 l 1034 766 l 1175 766 l 1175 636 l 1034 636 l 1034 412 l 876 412 l 876 997 z "},"괇":{"ha":1389,"x_min":0,"x_max":0,"o":""},"괈":{"ha":1389,"x_min":0,"x_max":0,"o":""},"괉":{"ha":1389,"x_min":0,"x_max":0,"o":""},"괊":{"ha":1389,"x_min":0,"x_max":0,"o":""},"괋":{"ha":1389,"x_min":0,"x_max":0,"o":""},"괌":{"ha":1194,"x_min":75,"x_max":1175,"o":"m 582 850 l 111 850 l 111 978 l 663 978 q 718 958 696 978 q 739 905 739 937 l 739 586 l 582 586 l 582 850 m 75 495 l 270 495 l 270 711 l 427 711 l 427 495 l 810 495 l 810 370 l 75 370 l 75 495 m 212 252 l 971 252 q 1015 236 997 252 q 1034 193 1034 220 l 1034 -164 l 274 -164 q 230 -148 248 -164 q 212 -104 212 -132 l 212 252 m 876 -34 l 876 122 l 369 122 l 369 -34 l 876 -34 m 876 997 l 1034 997 l 1034 766 l 1175 766 l 1175 636 l 1034 636 l 1034 351 l 876 351 l 876 997 z "},"괍":{"ha":1194,"x_min":75,"x_max":1175,"o":"m 582 850 l 111 850 l 111 978 l 663 978 q 718 958 696 978 q 739 905 739 937 l 739 586 l 582 586 l 582 850 m 75 495 l 270 495 l 270 711 l 427 711 l 427 495 l 810 495 l 810 370 l 75 370 l 75 495 m 212 281 l 369 281 l 369 187 l 876 187 l 876 281 l 1034 281 l 1034 -167 l 274 -167 q 230 -151 248 -167 q 212 -107 212 -134 l 212 281 m 876 -37 l 876 65 l 369 65 l 369 -37 l 876 -37 m 876 997 l 1034 997 l 1034 766 l 1175 766 l 1175 636 l 1034 636 l 1034 351 l 876 351 l 876 997 z "},"괎":{"ha":1389,"x_min":0,"x_max":0,"o":""},"괏":{"ha":1194,"x_min":75,"x_max":1175,"o":"m 193 -45 q 544 202 544 7 l 544 241 l 701 241 l 701 213 q 795 45 701 104 q 1054 -41 890 -15 l 1054 -175 q 776 -97 884 -152 q 627 38 667 -42 q 193 -176 544 -130 l 193 -45 m 75 465 l 267 465 l 267 708 l 425 708 l 425 465 l 810 465 l 810 335 l 75 335 l 75 465 m 111 972 l 663 972 q 718 952 696 972 q 739 899 739 932 l 739 566 l 582 566 l 582 845 l 111 845 l 111 972 m 876 997 l 1034 997 l 1034 758 l 1175 758 l 1175 628 l 1034 628 l 1034 175 l 876 175 l 876 997 z "},"괐":{"ha":1389,"x_min":0,"x_max":0,"o":""},"광":{"ha":1194,"x_min":75,"x_max":1175,"o":"m 582 850 l 111 850 l 111 978 l 663 978 q 718 958 696 978 q 739 905 739 937 l 739 586 l 582 586 l 582 850 m 75 491 l 270 491 l 270 712 l 427 712 l 427 491 l 810 491 l 810 363 l 75 363 l 75 491 m 178 35 q 229 155 178 102 q 376 238 279 208 q 608 269 473 269 q 837 238 741 269 q 984 155 933 208 q 1035 35 1035 102 q 985 -85 1035 -33 q 838 -168 935 -138 q 608 -198 741 -198 q 376 -168 473 -198 q 229 -85 279 -138 q 178 35 178 -33 m 335 35 q 406 -41 335 -12 q 608 -71 477 -71 q 807 -41 736 -71 q 878 35 878 -12 q 806 111 878 81 q 608 141 735 141 q 406 111 477 141 q 335 35 335 81 m 876 997 l 1034 997 l 1034 766 l 1175 766 l 1175 636 l 1034 636 l 1034 297 l 876 297 l 876 997 z "},"괒":{"ha":1389,"x_min":0,"x_max":0,"o":""},"괓":{"ha":1389,"x_min":0,"x_max":0,"o":""},"괔":{"ha":1389,"x_min":0,"x_max":0,"o":""},"괕":{"ha":1389,"x_min":0,"x_max":0,"o":""},"괖":{"ha":1389,"x_min":0,"x_max":0,"o":""},"괗":{"ha":1389,"x_min":0,"x_max":0,"o":""},"괘":{"ha":1194,"x_min":75,"x_max":1081,"o":"m 431 833 l 104 833 l 104 963 l 505 963 q 559 943 537 963 q 581 890 581 922 l 581 345 l 431 345 l 431 833 m 75 205 l 182 205 l 182 593 l 331 593 l 331 205 l 631 205 l 631 75 l 75 75 l 75 205 m 685 991 l 834 991 l 834 623 l 929 623 l 929 997 l 1081 997 l 1081 24 l 929 24 l 929 492 l 834 492 l 834 30 l 685 30 l 685 991 z "},"괙":{"ha":1389,"x_min":0,"x_max":0,"o":""},"괚":{"ha":1389,"x_min":0,"x_max":0,"o":""},"괛":{"ha":1389,"x_min":0,"x_max":0,"o":""},"괜":{"ha":1194,"x_min":75,"x_max":1086,"o":"m 433 850 l 106 850 l 106 978 l 506 978 q 560 958 538 978 q 582 905 582 937 l 582 567 l 433 567 l 433 850 m 75 457 l 197 457 l 197 705 l 346 705 l 346 457 l 631 457 l 631 332 l 75 332 l 75 457 m 222 218 l 380 218 l 380 -24 l 1086 -24 l 1086 -155 l 298 -155 q 244 -134 266 -155 q 222 -81 222 -114 l 222 218 m 685 991 l 834 991 l 834 745 l 929 745 l 929 997 l 1081 997 l 1081 189 l 929 189 l 929 614 l 834 614 l 834 199 l 685 199 l 685 991 z "},"괝":{"ha":1389,"x_min":0,"x_max":0,"o":""},"괞":{"ha":1389,"x_min":0,"x_max":0,"o":""},"괟":{"ha":1389,"x_min":0,"x_max":0,"o":""},"괠":{"ha":1194,"x_min":75,"x_max":1084,"o":"m 433 850 l 106 850 l 106 978 l 506 978 q 560 958 538 978 q 582 905 582 937 l 582 635 l 433 635 l 433 850 m 75 552 l 197 552 l 197 746 l 346 746 l 346 552 l 631 552 l 631 427 l 75 427 l 75 552 m 225 342 l 998 342 q 1046 325 1025 342 q 1066 282 1066 308 l 1066 88 q 1048 45 1066 61 q 1004 28 1029 28 l 388 28 l 388 -52 l 1084 -52 l 1084 -174 l 335 -174 q 260 -146 290 -174 q 231 -73 231 -118 l 231 100 q 243 131 231 119 q 275 142 256 142 l 909 142 l 909 220 l 225 220 l 225 342 m 685 991 l 834 991 l 834 799 l 929 799 l 929 997 l 1081 997 l 1081 404 l 929 404 l 929 669 l 834 669 l 834 410 l 685 410 l 685 991 z "},"괡":{"ha":1389,"x_min":0,"x_max":0,"o":""},"괢":{"ha":1389,"x_min":0,"x_max":0,"o":""},"괣":{"ha":1389,"x_min":0,"x_max":0,"o":""},"괤":{"ha":1389,"x_min":0,"x_max":0,"o":""},"괥":{"ha":1389,"x_min":0,"x_max":0,"o":""},"괦":{"ha":1389,"x_min":0,"x_max":0,"o":""},"괧":{"ha":1389,"x_min":0,"x_max":0,"o":""},"괨":{"ha":1389,"x_min":0,"x_max":0,"o":""},"괩":{"ha":1194,"x_min":75,"x_max":1081,"o":"m 433 850 l 106 850 l 106 978 l 506 978 q 560 958 538 978 q 582 905 582 937 l 582 581 l 433 581 l 433 850 m 75 484 l 197 484 l 197 705 l 346 705 l 346 484 l 631 484 l 631 359 l 75 359 l 75 484 m 229 274 l 387 274 l 387 180 l 922 180 l 922 274 l 1080 274 l 1080 -167 l 292 -167 q 248 -151 266 -167 q 229 -107 229 -134 l 229 274 m 922 -42 l 922 61 l 387 61 l 387 -42 l 922 -42 m 685 991 l 834 991 l 834 758 l 929 758 l 929 997 l 1081 997 l 1081 336 l 929 336 l 929 628 l 834 628 l 834 342 l 685 342 l 685 991 z "},"괪":{"ha":1389,"x_min":0,"x_max":0,"o":""},"괫":{"ha":1389,"x_min":0,"x_max":0,"o":""},"괬":{"ha":1194,"x_min":75,"x_max":1111,"o":"m 433 850 l 106 850 l 106 978 l 506 978 q 560 958 538 978 q 582 905 582 937 l 582 581 l 433 581 l 433 850 m 75 484 l 197 484 l 197 705 l 346 705 l 346 484 l 631 484 l 631 359 l 75 359 l 75 484 m 159 -31 q 234 4 193 -27 q 304 92 275 35 q 334 225 334 148 l 334 248 l 491 248 l 491 236 q 535 77 491 141 q 635 -24 579 14 q 733 73 689 12 q 777 225 777 133 l 777 250 l 935 250 l 935 236 q 964 100 935 156 q 1035 13 994 43 q 1111 -24 1076 -18 l 1111 -175 q 1012 -133 1063 -167 q 919 -50 960 -99 q 860 46 878 -1 q 772 -92 836 -27 q 635 -176 708 -156 q 507 -90 572 -156 q 416 46 441 -24 q 315 -97 388 -30 q 159 -176 241 -164 l 159 -31 m 685 991 l 834 991 l 834 758 l 929 758 l 929 997 l 1081 997 l 1081 336 l 929 336 l 929 628 l 834 628 l 834 342 l 685 342 l 685 991 z "},"괭":{"ha":1194,"x_min":75,"x_max":1100,"o":"m 433 850 l 106 850 l 106 978 l 506 978 q 560 958 538 978 q 582 905 582 937 l 582 581 l 433 581 l 433 850 m 75 484 l 197 484 l 197 705 l 346 705 l 346 484 l 631 484 l 631 359 l 75 359 l 75 484 m 194 38 q 246 159 194 106 q 401 243 298 213 q 648 274 503 274 q 889 243 787 274 q 1046 158 991 212 q 1100 38 1100 104 q 1046 -83 1100 -30 q 889 -168 991 -137 q 648 -198 787 -198 q 401 -168 503 -198 q 246 -83 298 -137 q 194 38 194 -30 m 351 38 q 426 -41 351 -12 q 648 -71 500 -71 q 865 -41 787 -71 q 943 38 943 -12 q 865 117 943 87 q 648 146 787 146 q 426 117 500 146 q 351 38 351 88 m 685 991 l 834 991 l 834 758 l 929 758 l 929 997 l 1081 997 l 1081 296 l 929 296 l 929 628 l 834 628 l 834 342 l 685 342 l 685 991 z "},"괮":{"ha":1389,"x_min":0,"x_max":0,"o":""},"괯":{"ha":1389,"x_min":0,"x_max":0,"o":""},"괰":{"ha":1389,"x_min":0,"x_max":0,"o":""},"괱":{"ha":1389,"x_min":0,"x_max":0,"o":""},"괲":{"ha":1389,"x_min":0,"x_max":0,"o":""},"괳":{"ha":1389,"x_min":0,"x_max":0,"o":""},"괴":{"ha":1194,"x_min":81,"x_max":1066,"o":"m 609 833 l 125 833 l 125 963 l 690 963 q 745 943 723 963 q 766 890 766 922 l 766 345 l 609 345 l 609 833 m 81 205 l 267 205 l 267 618 l 425 618 l 425 205 l 841 205 l 841 75 l 81 75 l 81 205 m 909 997 l 1066 997 l 1066 24 l 909 24 l 909 997 z "},"괵":{"ha":1194,"x_min":81,"x_max":1066,"o":"m 609 850 l 125 850 l 125 978 l 690 978 q 745 958 723 978 q 766 905 766 937 l 766 579 l 609 579 l 609 850 m 81 461 l 290 461 l 290 711 l 448 711 l 448 461 l 841 461 l 841 336 l 81 336 l 81 461 m 209 236 l 962 236 q 1016 216 994 236 q 1038 163 1038 195 l 1038 -168 l 880 -168 l 880 106 l 209 106 l 209 236 m 909 997 l 1066 997 l 1066 307 l 909 307 l 909 997 z "},"괶":{"ha":1389,"x_min":0,"x_max":0,"o":""},"괷":{"ha":1389,"x_min":0,"x_max":0,"o":""},"괸":{"ha":1194,"x_min":81,"x_max":1086,"o":"m 609 845 l 125 845 l 125 972 l 690 972 q 745 952 723 972 q 766 899 766 932 l 766 566 l 609 566 l 609 845 m 81 452 l 289 452 l 289 704 l 446 704 l 446 452 l 841 452 l 841 321 l 81 321 l 81 452 m 222 191 l 380 191 l 380 -24 l 1086 -24 l 1086 -155 l 298 -155 q 244 -134 266 -155 q 222 -81 222 -114 l 222 191 m 909 997 l 1066 997 l 1066 156 l 909 156 l 909 997 z "},"괹":{"ha":1389,"x_min":0,"x_max":0,"o":""},"괺":{"ha":1389,"x_min":0,"x_max":0,"o":""},"괻":{"ha":1389,"x_min":0,"x_max":0,"o":""},"괼":{"ha":1194,"x_min":81,"x_max":1081,"o":"m 609 850 l 125 850 l 125 978 l 690 978 q 745 958 723 978 q 766 905 766 937 l 766 640 l 609 640 l 609 850 m 81 555 l 289 555 l 289 746 l 446 746 l 446 555 l 841 555 l 841 430 l 81 430 l 81 555 m 210 342 l 996 342 q 1043 325 1023 342 q 1063 282 1063 308 l 1063 90 q 1045 46 1063 62 q 1001 30 1027 30 l 373 30 l 373 -54 l 1081 -54 l 1081 -174 l 320 -174 q 245 -146 275 -174 q 216 -73 216 -118 l 216 99 q 229 130 216 118 q 260 141 241 141 l 906 141 l 906 222 l 210 222 l 210 342 m 909 997 l 1066 997 l 1066 406 l 909 406 l 909 997 z "},"괽":{"ha":1389,"x_min":0,"x_max":0,"o":""},"괾":{"ha":1389,"x_min":0,"x_max":0,"o":""},"괿":{"ha":1389,"x_min":0,"x_max":0,"o":""},"굀":{"ha":1389,"x_min":0,"x_max":0,"o":""},"굁":{"ha":1389,"x_min":0,"x_max":0,"o":""},"굂":{"ha":1389,"x_min":0,"x_max":0,"o":""},"굃":{"ha":1389,"x_min":0,"x_max":0,"o":""},"굄":{"ha":1194,"x_min":81,"x_max":1066,"o":"m 609 850 l 125 850 l 125 978 l 690 978 q 745 958 723 978 q 766 905 766 937 l 766 586 l 609 586 l 609 850 m 81 495 l 290 495 l 290 711 l 448 711 l 448 495 l 841 495 l 841 370 l 81 370 l 81 495 m 218 251 l 1004 251 q 1048 235 1029 251 q 1066 191 1066 218 l 1066 -164 l 281 -164 q 237 -148 255 -164 q 218 -104 218 -132 l 218 251 m 909 -39 l 909 126 l 376 126 l 376 -39 l 909 -39 m 909 997 l 1066 997 l 1066 340 l 909 340 l 909 997 z "},"굅":{"ha":1194,"x_min":81,"x_max":1066,"o":"m 609 850 l 125 850 l 125 978 l 690 978 q 745 958 723 978 q 766 905 766 937 l 766 586 l 609 586 l 609 850 m 81 495 l 290 495 l 290 711 l 448 711 l 448 495 l 841 495 l 841 370 l 81 370 l 81 495 m 216 274 l 373 274 l 373 180 l 909 180 l 909 274 l 1066 274 l 1066 -167 l 278 -167 q 234 -151 252 -167 q 216 -107 216 -134 l 216 274 m 909 -42 l 909 61 l 373 61 l 373 -42 l 909 -42 m 909 997 l 1066 997 l 1066 340 l 909 340 l 909 997 z "},"굆":{"ha":1389,"x_min":0,"x_max":0,"o":""},"굇":{"ha":1194,"x_min":81,"x_max":1089,"o":"m 609 850 l 125 850 l 125 978 l 690 978 q 745 958 723 978 q 766 905 766 937 l 766 586 l 609 586 l 609 850 m 81 465 l 290 465 l 290 711 l 448 711 l 448 465 l 841 465 l 841 338 l 81 338 l 81 465 m 160 -45 q 343 -6 255 -38 q 488 83 431 26 q 545 218 545 140 l 545 241 l 703 241 l 703 229 q 760 90 703 148 q 905 0 817 31 q 1089 -41 993 -31 l 1089 -175 q 890 -134 986 -167 q 724 -53 793 -102 q 628 47 654 -4 q 534 -54 602 -5 q 369 -135 467 -102 q 160 -176 271 -168 l 160 -45 m 909 997 l 1066 997 l 1066 174 l 909 174 l 909 997 z "},"굈":{"ha":1389,"x_min":0,"x_max":0,"o":""},"굉":{"ha":1194,"x_min":81,"x_max":1073,"o":"m 609 850 l 125 850 l 125 978 l 690 978 q 745 958 723 978 q 766 905 766 937 l 766 586 l 609 586 l 609 850 m 81 494 l 290 494 l 290 711 l 448 711 l 448 494 l 841 494 l 841 366 l 81 366 l 81 494 m 194 38 q 245 157 194 103 q 397 243 297 212 q 635 274 496 274 q 871 243 772 274 q 1021 157 970 212 q 1073 38 1073 103 q 1021 -82 1073 -28 q 871 -167 970 -136 q 635 -198 772 -198 q 397 -167 496 -198 q 245 -82 297 -136 q 194 38 194 -28 m 351 38 q 425 -40 351 -9 q 635 -71 498 -71 q 843 -40 770 -71 q 916 38 916 -9 q 842 116 916 85 q 635 146 769 146 q 425 116 498 146 q 351 38 351 85 m 909 997 l 1066 997 l 1066 301 l 909 301 l 909 997 z "},"굊":{"ha":1389,"x_min":0,"x_max":0,"o":""},"굋":{"ha":1389,"x_min":0,"x_max":0,"o":""},"굌":{"ha":1389,"x_min":0,"x_max":0,"o":""},"굍":{"ha":1389,"x_min":0,"x_max":0,"o":""},"굎":{"ha":1389,"x_min":0,"x_max":0,"o":""},"굏":{"ha":1389,"x_min":0,"x_max":0,"o":""},"교":{"ha":1194,"x_min":75,"x_max":1119,"o":"m 888 833 l 138 833 l 138 963 l 970 963 q 1024 943 1002 963 q 1046 890 1046 922 l 1046 317 l 888 317 l 888 833 m 75 186 l 273 186 l 273 613 l 422 613 l 422 186 l 591 186 l 591 612 l 741 612 l 741 186 l 1119 186 l 1119 56 l 75 56 l 75 186 z "},"굑":{"ha":1389,"x_min":0,"x_max":0,"o":""},"굒":{"ha":1389,"x_min":0,"x_max":0,"o":""},"굓":{"ha":1389,"x_min":0,"x_max":0,"o":""},"굔":{"ha":1194,"x_min":75,"x_max":1119,"o":"m 888 845 l 144 845 l 144 972 l 970 972 q 1024 952 1002 972 q 1046 899 1046 932 l 1046 552 l 888 552 l 888 845 m 75 458 l 274 458 l 274 697 l 423 697 l 423 458 l 594 458 l 594 697 l 743 697 l 743 458 l 1119 458 l 1119 328 l 75 328 l 75 458 m 157 224 l 315 224 l 315 -23 l 1053 -23 l 1053 -153 l 233 -153 q 179 -133 201 -153 q 157 -80 157 -113 l 157 224 z "},"굕":{"ha":1389,"x_min":0,"x_max":0,"o":""},"굖":{"ha":1389,"x_min":0,"x_max":0,"o":""},"굗":{"ha":1389,"x_min":0,"x_max":0,"o":""},"굘":{"ha":1194,"x_min":75,"x_max":1119,"o":"m 888 859 l 144 859 l 144 983 l 970 983 q 1024 963 1002 983 q 1046 910 1046 943 l 1046 650 l 888 650 l 888 859 m 75 575 l 274 575 l 274 757 l 423 757 l 423 575 l 594 575 l 594 757 l 743 757 l 743 575 l 1119 575 l 1119 445 l 75 445 l 75 575 m 148 355 l 970 355 q 1017 338 997 355 q 1038 294 1038 321 l 1038 95 q 1019 51 1038 68 q 975 34 1001 34 l 311 34 l 311 -49 l 1055 -49 l 1055 -174 l 258 -174 q 183 -145 213 -174 q 153 -72 153 -117 l 153 107 q 166 139 153 127 q 198 151 179 151 l 880 151 l 880 231 l 148 231 l 148 355 z "},"굙":{"ha":1389,"x_min":0,"x_max":0,"o":""},"굚":{"ha":1389,"x_min":0,"x_max":0,"o":""},"굛":{"ha":1389,"x_min":0,"x_max":0,"o":""},"굜":{"ha":1389,"x_min":0,"x_max":0,"o":""},"굝":{"ha":1389,"x_min":0,"x_max":0,"o":""},"굞":{"ha":1389,"x_min":0,"x_max":0,"o":""},"굟":{"ha":1389,"x_min":0,"x_max":0,"o":""},"굠":{"ha":1389,"x_min":0,"x_max":0,"o":""},"굡":{"ha":1194,"x_min":75,"x_max":1119,"o":"m 888 850 l 144 850 l 144 978 l 970 978 q 1024 958 1002 978 q 1046 905 1046 937 l 1046 572 l 888 572 l 888 850 m 75 491 l 274 491 l 274 711 l 423 711 l 423 491 l 594 491 l 594 711 l 743 711 l 743 491 l 1119 491 l 1119 361 l 75 361 l 75 491 m 155 281 l 312 281 l 312 187 l 883 187 l 883 281 l 1040 281 l 1040 -167 l 217 -167 q 173 -151 191 -167 q 155 -107 155 -134 l 155 281 m 883 -37 l 883 65 l 312 65 l 312 -37 l 883 -37 z "},"굢":{"ha":1389,"x_min":0,"x_max":0,"o":""},"굣":{"ha":1194,"x_min":75,"x_max":1119,"o":"m 75 467 l 274 467 l 274 711 l 423 711 l 423 467 l 594 467 l 594 711 l 743 711 l 743 467 l 1119 467 l 1119 336 l 75 336 l 75 467 m 127 -45 q 404 49 289 -23 q 518 232 518 121 l 518 248 l 675 248 l 675 243 q 789 56 675 129 q 1067 -41 903 -16 l 1067 -175 q 858 -125 955 -161 q 694 -41 761 -90 q 601 61 628 8 q 433 -88 560 -22 q 127 -176 307 -155 l 127 -45 m 144 972 l 970 972 q 1024 952 1002 972 q 1046 899 1046 932 l 1046 552 l 888 552 l 888 845 l 144 845 l 144 972 z "},"굤":{"ha":1389,"x_min":0,"x_max":0,"o":""},"굥":{"ha":1389,"x_min":0,"x_max":0,"o":""},"굦":{"ha":1389,"x_min":0,"x_max":0,"o":""},"굧":{"ha":1389,"x_min":0,"x_max":0,"o":""},"굨":{"ha":1389,"x_min":0,"x_max":0,"o":""},"굩":{"ha":1389,"x_min":0,"x_max":0,"o":""},"굪":{"ha":1389,"x_min":0,"x_max":0,"o":""},"굫":{"ha":1389,"x_min":0,"x_max":0,"o":""},"구":{"ha":1194,"x_min":75,"x_max":1119,"o":"m 888 846 l 138 846 l 138 977 l 970 977 q 1024 956 1002 977 q 1046 903 1046 936 l 1046 507 l 888 507 l 888 846 m 75 381 l 1119 381 l 1119 251 l 675 251 l 675 -47 l 518 -47 l 518 251 l 75 251 l 75 381 z "},"국":{"ha":1194,"x_min":75,"x_max":1119,"o":"m 888 850 l 144 850 l 144 978 l 970 978 q 1024 958 1002 978 q 1046 905 1046 937 l 1046 598 l 888 598 l 888 850 m 75 514 l 1119 514 l 1119 384 l 675 384 l 675 231 l 964 231 q 1019 210 997 231 q 1040 157 1040 190 l 1040 -168 l 883 -168 l 883 100 l 149 100 l 149 231 l 518 231 l 518 384 l 75 384 l 75 514 z "},"굮":{"ha":1389,"x_min":0,"x_max":0,"o":""},"굯":{"ha":1389,"x_min":0,"x_max":0,"o":""},"군":{"ha":1194,"x_min":75,"x_max":1119,"o":"m 888 845 l 144 845 l 144 972 l 970 972 q 1024 952 1002 972 q 1046 899 1046 932 l 1046 566 l 888 566 l 888 845 m 75 469 l 1119 469 l 1119 339 l 692 339 l 692 96 l 534 96 l 534 339 l 75 339 l 75 469 m 157 224 l 315 224 l 315 -23 l 1053 -23 l 1053 -153 l 233 -153 q 179 -133 201 -153 q 157 -80 157 -113 l 157 224 z "},"굱":{"ha":1389,"x_min":0,"x_max":0,"o":""},"굲":{"ha":1389,"x_min":0,"x_max":0,"o":""},"굳":{"ha":1194,"x_min":75,"x_max":1119,"o":"m 888 850 l 144 850 l 144 978 l 970 978 q 1024 958 1002 978 q 1046 905 1046 937 l 1046 617 l 888 617 l 888 850 m 75 537 l 1119 537 l 1119 407 l 675 407 l 675 252 l 1040 252 l 1040 125 l 316 125 l 316 -37 l 1055 -37 l 1055 -164 l 221 -164 q 177 -148 195 -164 q 159 -104 159 -132 l 159 252 l 518 252 l 518 407 l 75 407 l 75 537 z "},"굴":{"ha":1194,"x_min":75,"x_max":1119,"o":"m 888 859 l 144 859 l 144 983 l 970 983 q 1024 963 1002 983 q 1046 910 1046 943 l 1046 663 l 888 663 l 888 859 m 75 597 l 1119 597 l 1119 467 l 675 467 l 675 355 l 970 355 q 1017 338 997 355 q 1038 294 1038 321 l 1038 95 q 1019 51 1038 68 q 975 34 1001 34 l 311 34 l 311 -49 l 1055 -49 l 1055 -174 l 258 -174 q 183 -145 213 -174 q 153 -72 153 -117 l 153 107 q 166 139 153 127 q 198 151 179 151 l 880 151 l 880 231 l 148 231 l 148 355 l 518 355 l 518 467 l 75 467 l 75 597 z "},"굵":{"ha":1194,"x_min":75,"x_max":1119,"o":"m 888 859 l 144 859 l 144 983 l 970 983 q 1024 963 1002 983 q 1046 910 1046 943 l 1046 663 l 888 663 l 888 859 m 75 597 l 1119 597 l 1119 467 l 675 467 l 675 351 l 970 351 q 1024 331 1002 351 q 1046 277 1046 311 l 1046 -176 l 891 -176 l 891 225 l 621 225 l 621 327 l 556 327 q 568 292 568 309 l 568 94 q 550 50 568 66 q 506 33 532 33 l 304 33 l 304 -49 l 597 -49 l 597 -174 l 233 -174 q 173 -151 197 -174 q 149 -91 149 -127 l 149 106 q 162 137 149 125 q 194 149 175 149 l 416 149 l 416 228 l 144 228 l 144 351 l 500 351 q 518 349 507 351 l 518 467 l 75 467 l 75 597 z "},"굶":{"ha":1194,"x_min":75,"x_max":1119,"o":"m 888 859 l 144 859 l 144 983 l 970 983 q 1024 963 1002 983 q 1046 910 1046 943 l 1046 663 l 888 663 l 888 859 m 75 597 l 1119 597 l 1119 467 l 675 467 l 675 355 l 970 355 q 1024 335 1002 355 q 1046 282 1046 315 l 1046 -174 l 694 -174 q 627 -109 627 -174 l 627 327 l 556 327 q 566 296 566 313 l 566 95 q 547 52 566 68 q 503 35 529 35 l 304 35 l 304 -52 l 582 -52 l 582 -174 l 233 -174 q 173 -151 197 -174 q 149 -92 149 -129 l 149 107 q 162 138 149 126 q 194 149 175 149 l 416 149 l 416 233 l 144 233 l 144 355 l 498 355 q 518 353 505 355 l 518 467 l 75 467 l 75 597 m 894 -52 l 894 233 l 776 233 l 776 -52 l 894 -52 z "},"굷":{"ha":1389,"x_min":0,"x_max":0,"o":""},"굸":{"ha":1389,"x_min":0,"x_max":0,"o":""},"굹":{"ha":1389,"x_min":0,"x_max":0,"o":""},"굺":{"ha":1389,"x_min":0,"x_max":0,"o":""},"굻":{"ha":1194,"x_min":75,"x_max":1119,"o":"m 888 859 l 144 859 l 144 983 l 970 983 q 1024 963 1002 983 q 1046 910 1046 943 l 1046 663 l 888 663 l 888 859 m 75 597 l 1119 597 l 1119 467 l 675 467 l 675 327 l 530 327 q 543 292 543 309 l 543 94 q 524 50 543 66 q 480 33 506 33 l 304 33 l 304 -49 l 559 -49 l 559 -174 l 233 -174 q 173 -151 197 -174 q 149 -91 149 -127 l 149 106 q 162 137 149 125 q 194 149 175 149 l 393 149 l 393 228 l 144 228 l 144 351 l 475 351 q 518 338 498 351 l 518 467 l 75 467 l 75 597 m 575 297 l 745 297 l 745 363 l 891 363 l 891 297 l 1061 297 l 1061 180 l 890 180 l 890 138 q 998 84 959 125 q 1036 -15 1036 43 q 979 -140 1036 -91 q 819 -189 921 -189 q 661 -140 719 -189 q 604 -15 604 -91 q 642 82 604 42 q 746 137 680 122 l 746 180 l 575 180 l 575 297 m 741 -9 q 763 -54 741 -38 q 819 -71 785 -71 q 877 -54 854 -71 q 899 -9 899 -38 q 877 36 899 19 q 819 53 854 53 q 763 36 785 53 q 741 -9 741 19 z "},"굼":{"ha":1194,"x_min":75,"x_max":1119,"o":"m 888 850 l 144 850 l 144 978 l 970 978 q 1024 958 1002 978 q 1046 905 1046 937 l 1046 617 l 888 617 l 888 850 m 75 537 l 1119 537 l 1119 407 l 675 407 l 675 258 l 978 258 q 1022 241 1004 258 q 1040 198 1040 225 l 1040 -164 l 217 -164 q 173 -148 191 -164 q 155 -104 155 -132 l 155 258 l 518 258 l 518 407 l 75 407 l 75 537 m 883 -37 l 883 130 l 312 130 l 312 -37 l 883 -37 z "},"굽":{"ha":1194,"x_min":75,"x_max":1119,"o":"m 888 850 l 144 850 l 144 978 l 970 978 q 1024 958 1002 978 q 1046 905 1046 937 l 1046 617 l 888 617 l 888 850 m 75 536 l 1119 536 l 1119 406 l 675 406 l 675 254 l 518 254 l 518 406 l 75 406 l 75 536 m 155 281 l 312 281 l 312 187 l 883 187 l 883 281 l 1040 281 l 1040 -167 l 217 -167 q 173 -151 191 -167 q 155 -107 155 -134 l 155 281 m 883 -37 l 883 65 l 312 65 l 312 -37 l 883 -37 z "},"굾":{"ha":1389,"x_min":0,"x_max":0,"o":""},"굿":{"ha":1194,"x_min":75,"x_max":1119,"o":"m 888 850 l 144 850 l 144 978 l 970 978 q 1024 958 1002 978 q 1046 905 1046 937 l 1046 617 l 888 617 l 888 850 m 75 543 l 1119 543 l 1119 407 l 675 407 l 675 275 l 518 275 l 518 407 l 75 407 l 75 543 m 127 -45 q 402 37 286 -27 q 518 212 518 102 l 518 235 l 675 235 l 675 222 q 791 45 675 110 q 1067 -41 907 -20 l 1067 -175 q 864 -130 962 -164 q 696 -47 766 -95 q 601 53 627 1 q 507 -48 575 0 q 340 -130 439 -96 q 127 -176 241 -164 l 127 -45 z "},"궀":{"ha":1389,"x_min":0,"x_max":0,"o":""},"궁":{"ha":1194,"x_min":75,"x_max":1119,"o":"m 888 850 l 144 850 l 144 978 l 970 978 q 1024 958 1002 978 q 1046 905 1046 937 l 1046 617 l 888 617 l 888 850 m 75 537 l 1119 537 l 1119 407 l 675 407 l 675 281 q 943 211 845 270 q 1040 45 1040 152 q 920 -135 1040 -75 q 598 -195 800 -195 q 274 -135 395 -195 q 153 45 153 -75 q 251 210 153 151 q 518 281 349 270 l 518 407 l 75 407 l 75 537 m 315 45 q 391 -39 315 -9 q 598 -68 468 -68 q 803 -39 727 -68 q 879 45 879 -9 q 803 127 879 98 q 598 156 727 156 q 391 127 468 156 q 315 45 315 98 z "},"궂":{"ha":1194,"x_min":75,"x_max":1119,"o":"m 888 850 l 144 850 l 144 978 l 970 978 q 1024 958 1002 978 q 1046 905 1046 937 l 1046 617 l 888 617 l 888 850 m 75 537 l 1119 537 l 1119 407 l 675 407 l 675 256 l 1038 256 l 1038 129 l 677 129 q 734 55 681 92 q 871 -9 787 18 q 1050 -42 956 -35 l 1050 -175 q 770 -113 894 -164 q 602 7 647 -62 q 436 -114 557 -64 q 148 -176 315 -164 l 148 -45 q 329 -14 243 -41 q 467 50 415 12 q 519 123 519 88 l 519 129 l 159 129 l 159 256 l 518 256 l 518 407 l 75 407 l 75 537 z "},"궃":{"ha":1389,"x_min":0,"x_max":0,"o":""},"궄":{"ha":1389,"x_min":0,"x_max":0,"o":""},"궅":{"ha":1389,"x_min":0,"x_max":0,"o":""},"궆":{"ha":1389,"x_min":0,"x_max":0,"o":""},"궇":{"ha":1389,"x_min":0,"x_max":0,"o":""},"궈":{"ha":1194,"x_min":81,"x_max":1066,"o":"m 609 846 l 125 846 l 125 977 l 690 977 q 745 956 723 977 q 766 903 766 936 l 766 500 l 609 500 l 609 846 m 81 395 l 841 395 l 841 264 l 514 264 l 514 -43 l 357 -43 l 357 264 l 81 264 l 81 395 m 670 179 l 909 179 l 909 997 l 1066 997 l 1066 -47 l 909 -47 l 909 57 l 670 57 l 670 179 z "},"궉":{"ha":1194,"x_min":81,"x_max":1066,"o":"m 609 857 l 125 857 l 125 985 l 690 985 q 745 964 723 985 q 766 911 766 944 l 766 654 l 609 654 l 609 857 m 81 583 l 841 583 l 841 461 l 517 461 l 517 277 l 359 277 l 359 461 l 81 461 l 81 583 m 210 217 l 990 217 q 1044 197 1023 217 q 1066 144 1066 176 l 1066 -168 l 909 -168 l 909 87 l 210 87 l 210 217 m 667 408 l 909 408 l 909 997 l 1066 997 l 1066 262 l 909 262 l 909 308 l 667 308 l 667 408 z "},"궊":{"ha":1389,"x_min":0,"x_max":0,"o":""},"궋":{"ha":1389,"x_min":0,"x_max":0,"o":""},"권":{"ha":1194,"x_min":81,"x_max":1086,"o":"m 609 850 l 125 850 l 125 978 l 690 978 q 745 958 723 978 q 766 905 766 937 l 766 593 l 609 593 l 609 850 m 81 503 l 841 503 l 841 378 l 530 378 l 530 133 l 373 133 l 373 378 l 81 378 l 81 503 m 168 199 l 326 199 l 326 -24 l 1086 -24 l 1086 -155 l 244 -155 q 190 -134 212 -155 q 168 -81 168 -114 l 168 199 m 667 308 l 909 308 l 909 997 l 1066 997 l 1066 96 l 909 96 l 909 186 l 667 186 l 667 308 z "},"궍":{"ha":1389,"x_min":0,"x_max":0,"o":""},"궎":{"ha":1389,"x_min":0,"x_max":0,"o":""},"궏":{"ha":1389,"x_min":0,"x_max":0,"o":""},"궐":{"ha":1194,"x_min":81,"x_max":1081,"o":"m 609 857 l 125 857 l 125 985 l 690 985 q 745 964 723 985 q 766 911 766 944 l 766 689 l 609 689 l 609 857 m 81 631 l 841 631 l 841 514 l 517 514 l 517 350 l 359 350 l 359 514 l 81 514 l 81 631 m 197 300 l 996 300 q 1043 283 1023 300 q 1063 241 1063 267 l 1063 68 q 1045 26 1063 42 q 1001 9 1027 9 l 359 9 l 359 -57 l 1081 -57 l 1081 -174 l 307 -174 q 232 -146 262 -174 q 202 -75 202 -119 l 202 77 q 215 108 202 96 q 247 119 228 119 l 906 119 l 906 183 l 197 183 l 197 300 m 667 467 l 909 467 l 909 997 l 1066 997 l 1066 330 l 909 330 l 909 369 l 667 369 l 667 467 z "},"궑":{"ha":1389,"x_min":0,"x_max":0,"o":""},"궒":{"ha":1389,"x_min":0,"x_max":0,"o":""},"궓":{"ha":1389,"x_min":0,"x_max":0,"o":""},"궔":{"ha":1389,"x_min":0,"x_max":0,"o":""},"궕":{"ha":1389,"x_min":0,"x_max":0,"o":""},"궖":{"ha":1389,"x_min":0,"x_max":0,"o":""},"궗":{"ha":1389,"x_min":0,"x_max":0,"o":""},"궘":{"ha":1389,"x_min":0,"x_max":0,"o":""},"궙":{"ha":1389,"x_min":0,"x_max":0,"o":""},"궚":{"ha":1389,"x_min":0,"x_max":0,"o":""},"궛":{"ha":1389,"x_min":0,"x_max":0,"o":""},"궜":{"ha":1194,"x_min":81,"x_max":1111,"o":"m 609 857 l 125 857 l 125 985 l 690 985 q 745 964 723 985 q 766 911 766 944 l 766 654 l 609 654 l 609 857 m 81 583 l 841 583 l 841 461 l 517 461 l 517 277 l 359 277 l 359 461 l 81 461 l 81 583 m 159 -42 q 235 -7 193 -38 q 309 78 278 23 q 340 206 340 133 l 340 228 l 498 228 l 498 217 q 519 106 498 153 q 566 32 541 58 q 635 -35 590 5 q 680 5 640 -30 q 745 92 720 39 q 770 206 770 145 l 770 228 l 928 228 l 928 217 q 959 85 928 141 q 1033 -3 990 28 q 1111 -42 1076 -35 l 1111 -175 q 1008 -136 1062 -168 q 911 -56 954 -103 q 853 35 868 -9 q 767 -96 829 -35 q 635 -176 705 -156 q 511 -95 574 -157 q 423 35 449 -33 q 364 -57 406 -11 q 269 -136 323 -103 q 159 -176 214 -168 l 159 -42 m 667 408 l 909 408 l 909 997 l 1066 997 l 1066 262 l 909 262 l 909 308 l 667 308 l 667 408 z "},"궝":{"ha":1194,"x_min":81,"x_max":1086,"o":"m 609 857 l 125 857 l 125 985 l 690 985 q 745 964 723 985 q 766 911 766 944 l 766 654 l 609 654 l 609 857 m 81 590 l 841 590 l 841 468 l 517 468 l 517 283 l 359 283 l 359 468 l 81 468 l 81 590 m 194 15 q 311 171 194 114 q 642 228 429 228 q 970 171 853 228 q 1086 15 1086 114 q 970 -142 1086 -85 q 642 -198 853 -198 q 311 -142 429 -198 q 194 15 194 -85 m 351 15 q 425 -52 351 -28 q 642 -76 499 -76 q 855 -52 781 -76 q 929 15 929 -28 q 855 82 929 58 q 642 106 781 106 q 426 82 500 106 q 351 15 351 58 m 667 415 l 909 415 l 909 997 l 1066 997 l 1066 248 l 909 248 l 909 315 l 667 315 l 667 415 z "},"궞":{"ha":1389,"x_min":0,"x_max":0,"o":""},"궟":{"ha":1389,"x_min":0,"x_max":0,"o":""},"궠":{"ha":1389,"x_min":0,"x_max":0,"o":""},"궡":{"ha":1389,"x_min":0,"x_max":0,"o":""},"궢":{"ha":1389,"x_min":0,"x_max":0,"o":""},"궣":{"ha":1389,"x_min":0,"x_max":0,"o":""},"궤":{"ha":1194,"x_min":75,"x_max":1081,"o":"m 454 846 l 118 846 l 118 977 l 528 977 q 582 956 560 977 q 604 903 604 936 l 604 494 l 454 494 l 454 846 m 75 411 l 646 411 l 646 281 l 433 281 l 433 -35 l 275 -35 l 275 281 l 75 281 l 75 411 m 543 195 l 700 195 l 700 991 l 849 991 l 849 -31 l 700 -31 l 700 73 l 543 73 l 543 195 m 929 997 l 1081 997 l 1081 -47 l 929 -47 l 929 997 z "},"궥":{"ha":1389,"x_min":0,"x_max":0,"o":""},"궦":{"ha":1389,"x_min":0,"x_max":0,"o":""},"궧":{"ha":1389,"x_min":0,"x_max":0,"o":""},"궨":{"ha":1389,"x_min":0,"x_max":0,"o":""},"궩":{"ha":1389,"x_min":0,"x_max":0,"o":""},"궪":{"ha":1389,"x_min":0,"x_max":0,"o":""},"궫":{"ha":1389,"x_min":0,"x_max":0,"o":""},"궬":{"ha":1389,"x_min":0,"x_max":0,"o":""},"궭":{"ha":1389,"x_min":0,"x_max":0,"o":""},"궮":{"ha":1389,"x_min":0,"x_max":0,"o":""},"궯":{"ha":1389,"x_min":0,"x_max":0,"o":""},"궰":{"ha":1389,"x_min":0,"x_max":0,"o":""},"궱":{"ha":1389,"x_min":0,"x_max":0,"o":""},"궲":{"ha":1389,"x_min":0,"x_max":0,"o":""},"궳":{"ha":1389,"x_min":0,"x_max":0,"o":""},"궴":{"ha":1389,"x_min":0,"x_max":0,"o":""},"궵":{"ha":1389,"x_min":0,"x_max":0,"o":""},"궶":{"ha":1389,"x_min":0,"x_max":0,"o":""},"궷":{"ha":1194,"x_min":75,"x_max":1095,"o":"m 433 850 l 106 850 l 106 978 l 506 978 q 560 958 538 978 q 582 905 582 937 l 582 648 l 433 648 l 433 850 m 75 581 l 646 581 l 646 450 l 433 450 l 433 155 l 275 155 l 275 450 l 75 450 l 75 581 m 165 -50 q 431 -7 311 -49 q 551 144 551 35 l 551 155 l 708 155 q 827 1 708 43 q 1095 -46 947 -42 l 1095 -175 q 812 -127 949 -172 q 633 -5 675 -81 q 456 -127 593 -81 q 165 -176 320 -172 l 165 -50 m 543 385 l 700 385 l 700 991 l 849 991 l 849 199 l 700 199 l 700 263 l 543 263 l 543 385 m 929 997 l 1081 997 l 1081 129 l 929 129 l 929 997 z "},"궸":{"ha":1389,"x_min":0,"x_max":0,"o":""},"궹":{"ha":1389,"x_min":0,"x_max":0,"o":""},"궺":{"ha":1389,"x_min":0,"x_max":0,"o":""},"궻":{"ha":1389,"x_min":0,"x_max":0,"o":""},"궼":{"ha":1389,"x_min":0,"x_max":0,"o":""},"궽":{"ha":1389,"x_min":0,"x_max":0,"o":""},"궾":{"ha":1389,"x_min":0,"x_max":0,"o":""},"궿":{"ha":1389,"x_min":0,"x_max":0,"o":""},"귀":{"ha":1194,"x_min":81,"x_max":1066,"o":"m 609 846 l 125 846 l 125 977 l 690 977 q 745 956 723 977 q 766 903 766 936 l 766 473 l 609 473 l 609 846 m 81 362 l 841 362 l 841 232 l 525 232 l 525 -43 l 368 -43 l 368 232 l 81 232 l 81 362 m 909 997 l 1066 997 l 1066 -47 l 909 -47 l 909 997 z "},"귁":{"ha":1194,"x_min":81,"x_max":1066,"o":"m 609 857 l 125 857 l 125 985 l 690 985 q 745 964 723 985 q 766 911 766 944 l 766 654 l 609 654 l 609 857 m 81 563 l 841 563 l 841 441 l 525 441 l 525 281 l 368 281 l 368 441 l 81 441 l 81 563 m 210 203 l 990 203 q 1044 183 1023 203 q 1066 130 1066 163 l 1066 -168 l 909 -168 l 909 73 l 210 73 l 210 203 m 909 997 l 1066 997 l 1066 266 l 909 266 l 909 997 z "},"귂":{"ha":1389,"x_min":0,"x_max":0,"o":""},"귃":{"ha":1389,"x_min":0,"x_max":0,"o":""},"귄":{"ha":1194,"x_min":81,"x_max":1086,"o":"m 609 850 l 125 850 l 125 978 l 690 978 q 745 958 723 978 q 766 905 766 937 l 766 593 l 609 593 l 609 850 m 81 503 l 841 503 l 841 378 l 544 378 l 544 133 l 387 133 l 387 378 l 81 378 l 81 503 m 168 186 l 326 186 l 326 -24 l 1086 -24 l 1086 -155 l 244 -155 q 190 -134 212 -155 q 168 -81 168 -114 l 168 186 m 909 997 l 1066 997 l 1066 96 l 909 96 l 909 997 z "},"귅":{"ha":1389,"x_min":0,"x_max":0,"o":""},"귆":{"ha":1389,"x_min":0,"x_max":0,"o":""},"귇":{"ha":1389,"x_min":0,"x_max":0,"o":""},"귈":{"ha":1194,"x_min":81,"x_max":1081,"o":"m 609 857 l 125 857 l 125 985 l 690 985 q 745 964 723 985 q 766 911 766 944 l 766 677 l 609 677 l 609 857 m 81 609 l 841 609 l 841 492 l 525 492 l 525 355 l 368 355 l 368 492 l 81 492 l 81 609 m 197 300 l 996 300 q 1043 283 1023 300 q 1063 241 1063 267 l 1063 68 q 1045 26 1063 42 q 1001 9 1027 9 l 359 9 l 359 -57 l 1081 -57 l 1081 -174 l 307 -174 q 232 -146 262 -174 q 202 -75 202 -119 l 202 77 q 215 108 202 96 q 247 119 228 119 l 906 119 l 906 183 l 197 183 l 197 300 m 909 997 l 1066 997 l 1066 343 l 909 343 l 909 997 z "},"귉":{"ha":1389,"x_min":0,"x_max":0,"o":""},"귊":{"ha":1389,"x_min":0,"x_max":0,"o":""},"귋":{"ha":1389,"x_min":0,"x_max":0,"o":""},"귌":{"ha":1389,"x_min":0,"x_max":0,"o":""},"귍":{"ha":1389,"x_min":0,"x_max":0,"o":""},"귎":{"ha":1389,"x_min":0,"x_max":0,"o":""},"귏":{"ha":1389,"x_min":0,"x_max":0,"o":""},"귐":{"ha":1194,"x_min":81,"x_max":1066,"o":"m 609 857 l 125 857 l 125 985 l 690 985 q 745 964 723 985 q 766 911 766 944 l 766 654 l 609 654 l 609 857 m 81 563 l 841 563 l 841 441 l 525 441 l 525 281 l 368 281 l 368 441 l 81 441 l 81 563 m 202 214 l 1004 214 q 1048 198 1029 214 q 1066 155 1066 182 l 1066 -164 l 264 -164 q 220 -148 239 -164 q 202 -104 202 -132 l 202 214 m 909 -39 l 909 90 l 359 90 l 359 -39 l 909 -39 m 909 997 l 1066 997 l 1066 266 l 909 266 l 909 997 z "},"귑":{"ha":1194,"x_min":81,"x_max":1066,"o":"m 609 857 l 125 857 l 125 985 l 690 985 q 745 964 723 985 q 766 911 766 944 l 766 654 l 609 654 l 609 857 m 81 563 l 841 563 l 841 441 l 525 441 l 525 281 l 368 281 l 368 441 l 81 441 l 81 563 m 202 214 l 359 214 l 359 145 l 909 145 l 909 214 l 1066 214 l 1066 -167 l 264 -167 q 220 -151 239 -167 q 202 -107 202 -134 l 202 214 m 909 -45 l 909 28 l 359 28 l 359 -45 l 909 -45 m 909 997 l 1066 997 l 1066 266 l 909 266 l 909 997 z "},"귒":{"ha":1389,"x_min":0,"x_max":0,"o":""},"귓":{"ha":1194,"x_min":81,"x_max":1095,"o":"m 909 149 l 909 997 l 1066 997 l 1066 149 l 909 149 m 81 500 l 841 500 l 841 376 l 517 376 l 517 165 l 359 165 l 359 376 l 81 376 l 81 500 m 125 978 l 690 978 q 745 958 723 978 q 766 905 766 937 l 766 593 l 609 593 l 609 850 l 125 850 l 125 978 m 165 -50 q 331 -22 240 -49 q 486 58 422 5 q 551 184 551 111 l 551 195 l 708 195 q 772 64 708 118 q 928 -17 837 9 q 1095 -46 1019 -43 l 1095 -175 q 909 -145 1005 -172 q 737 -71 812 -118 q 633 35 662 -23 q 532 -71 606 -23 q 359 -146 457 -118 q 165 -176 260 -174 l 165 -50 z "},"귔":{"ha":1389,"x_min":0,"x_max":0,"o":""},"귕":{"ha":1389,"x_min":0,"x_max":0,"o":""},"귖":{"ha":1389,"x_min":0,"x_max":0,"o":""},"귗":{"ha":1389,"x_min":0,"x_max":0,"o":""},"귘":{"ha":1389,"x_min":0,"x_max":0,"o":""},"귙":{"ha":1389,"x_min":0,"x_max":0,"o":""},"귚":{"ha":1389,"x_min":0,"x_max":0,"o":""},"귛":{"ha":1389,"x_min":0,"x_max":0,"o":""},"규":{"ha":1194,"x_min":75,"x_max":1119,"o":"m 888 846 l 138 846 l 138 977 l 970 977 q 1024 956 1002 977 q 1046 903 1046 936 l 1046 507 l 888 507 l 888 846 m 75 381 l 1119 381 l 1119 251 l 879 251 l 879 -47 l 722 -47 l 722 251 l 472 251 l 472 -47 l 315 -47 l 315 251 l 75 251 l 75 381 z "},"귝":{"ha":1389,"x_min":0,"x_max":0,"o":""},"귞":{"ha":1389,"x_min":0,"x_max":0,"o":""},"귟":{"ha":1389,"x_min":0,"x_max":0,"o":""},"균":{"ha":1194,"x_min":75,"x_max":1119,"o":"m 888 845 l 144 845 l 144 972 l 970 972 q 1024 952 1002 972 q 1046 899 1046 932 l 1046 566 l 888 566 l 888 845 m 75 469 l 1119 469 l 1119 339 l 873 339 l 873 92 l 719 92 l 719 339 l 553 339 l 553 92 l 399 92 l 399 339 l 75 339 l 75 469 m 157 224 l 315 224 l 315 -23 l 1053 -23 l 1053 -153 l 233 -153 q 179 -133 201 -153 q 157 -80 157 -113 l 157 224 z "},"귡":{"ha":1389,"x_min":0,"x_max":0,"o":""},"귢":{"ha":1389,"x_min":0,"x_max":0,"o":""},"귣":{"ha":1389,"x_min":0,"x_max":0,"o":""},"귤":{"ha":1194,"x_min":75,"x_max":1119,"o":"m 888 859 l 144 859 l 144 983 l 970 983 q 1024 963 1002 983 q 1046 910 1046 943 l 1046 663 l 888 663 l 888 859 m 75 597 l 1119 597 l 1119 467 l 865 467 l 865 355 l 970 355 q 1017 338 997 355 q 1038 294 1038 321 l 1038 95 q 1019 51 1038 68 q 975 34 1001 34 l 311 34 l 311 -49 l 1055 -49 l 1055 -174 l 258 -174 q 183 -145 213 -174 q 153 -72 153 -117 l 153 107 q 166 139 153 127 q 198 151 179 151 l 880 151 l 880 231 l 148 231 l 148 355 l 328 355 l 328 467 l 75 467 l 75 597 m 708 355 l 708 467 l 486 467 l 486 355 l 708 355 z "},"귥":{"ha":1389,"x_min":0,"x_max":0,"o":""},"귦":{"ha":1389,"x_min":0,"x_max":0,"o":""},"귧":{"ha":1389,"x_min":0,"x_max":0,"o":""},"귨":{"ha":1389,"x_min":0,"x_max":0,"o":""},"귩":{"ha":1389,"x_min":0,"x_max":0,"o":""},"귪":{"ha":1389,"x_min":0,"x_max":0,"o":""},"귫":{"ha":1389,"x_min":0,"x_max":0,"o":""},"귬":{"ha":1389,"x_min":0,"x_max":0,"o":""},"귭":{"ha":1389,"x_min":0,"x_max":0,"o":""},"귮":{"ha":1389,"x_min":0,"x_max":0,"o":""},"귯":{"ha":1389,"x_min":0,"x_max":0,"o":""},"귰":{"ha":1389,"x_min":0,"x_max":0,"o":""},"귱":{"ha":1389,"x_min":0,"x_max":0,"o":""},"귲":{"ha":1389,"x_min":0,"x_max":0,"o":""},"귳":{"ha":1389,"x_min":0,"x_max":0,"o":""},"귴":{"ha":1389,"x_min":0,"x_max":0,"o":""},"귵":{"ha":1389,"x_min":0,"x_max":0,"o":""},"귶":{"ha":1389,"x_min":0,"x_max":0,"o":""},"귷":{"ha":1389,"x_min":0,"x_max":0,"o":""},"그":{"ha":1194,"x_min":75,"x_max":1119,"o":"m 888 833 l 138 833 l 138 963 l 970 963 q 1024 943 1002 963 q 1046 890 1046 922 l 1046 317 l 888 317 l 888 833 m 75 178 l 1119 178 l 1119 47 l 75 47 l 75 178 z "},"극":{"ha":1194,"x_min":75,"x_max":1119,"o":"m 888 850 l 144 850 l 144 978 l 970 978 q 1024 958 1002 978 q 1046 905 1046 937 l 1046 572 l 888 572 l 888 850 m 75 490 l 1119 490 l 1119 359 l 75 359 l 75 490 m 149 231 l 964 231 q 1019 210 997 231 q 1040 157 1040 190 l 1040 -168 l 883 -168 l 883 100 l 149 100 l 149 231 z "},"귺":{"ha":1389,"x_min":0,"x_max":0,"o":""},"귻":{"ha":1389,"x_min":0,"x_max":0,"o":""},"근":{"ha":1194,"x_min":75,"x_max":1119,"o":"m 888 845 l 144 845 l 144 972 l 970 972 q 1024 952 1002 972 q 1046 899 1046 932 l 1046 552 l 888 552 l 888 845 m 75 467 l 1119 467 l 1119 336 l 75 336 l 75 467 m 157 224 l 315 224 l 315 -23 l 1053 -23 l 1053 -153 l 233 -153 q 179 -133 201 -153 q 157 -80 157 -113 l 157 224 z "},"귽":{"ha":1389,"x_min":0,"x_max":0,"o":""},"귾":{"ha":1389,"x_min":0,"x_max":0,"o":""},"귿":{"ha":1194,"x_min":75,"x_max":1119,"o":"m 888 850 l 144 850 l 144 978 l 970 978 q 1024 958 1002 978 q 1046 905 1046 937 l 1046 572 l 888 572 l 888 850 m 75 503 l 1119 503 l 1119 373 l 75 373 l 75 503 m 159 252 l 1040 252 l 1040 125 l 316 125 l 316 -37 l 1055 -37 l 1055 -164 l 221 -164 q 177 -148 195 -164 q 159 -104 159 -132 l 159 252 z "},"글":{"ha":1194,"x_min":75,"x_max":1119,"o":"m 888 859 l 144 859 l 144 983 l 970 983 q 1024 963 1002 983 q 1046 910 1046 943 l 1046 663 l 888 663 l 888 859 m 75 583 l 1119 583 l 1119 453 l 75 453 l 75 583 m 148 355 l 970 355 q 1017 338 997 355 q 1038 294 1038 321 l 1038 95 q 1019 51 1038 68 q 975 34 1001 34 l 311 34 l 311 -49 l 1055 -49 l 1055 -174 l 258 -174 q 183 -145 213 -174 q 153 -72 153 -117 l 153 107 q 166 139 153 127 q 198 151 179 151 l 880 151 l 880 231 l 148 231 l 148 355 z "},"긁":{"ha":1194,"x_min":75,"x_max":1119,"o":"m 888 859 l 144 859 l 144 983 l 970 983 q 1024 963 1002 983 q 1046 910 1046 943 l 1046 663 l 888 663 l 888 859 m 75 583 l 1119 583 l 1119 453 l 75 453 l 75 583 m 144 351 l 500 351 q 548 334 528 351 q 568 292 568 317 l 568 94 q 550 50 568 66 q 506 33 532 33 l 304 33 l 304 -49 l 597 -49 l 597 -174 l 233 -174 q 173 -151 197 -174 q 149 -91 149 -127 l 149 106 q 162 137 149 125 q 194 149 175 149 l 416 149 l 416 228 l 144 228 l 144 351 m 621 351 l 970 351 q 1024 331 1002 351 q 1046 277 1046 311 l 1046 -176 l 891 -176 l 891 225 l 621 225 l 621 351 z "},"긂":{"ha":1389,"x_min":0,"x_max":0,"o":""},"긃":{"ha":1389,"x_min":0,"x_max":0,"o":""},"긄":{"ha":1389,"x_min":0,"x_max":0,"o":""},"긅":{"ha":1389,"x_min":0,"x_max":0,"o":""},"긆":{"ha":1389,"x_min":0,"x_max":0,"o":""},"긇":{"ha":1389,"x_min":0,"x_max":0,"o":""},"금":{"ha":1194,"x_min":75,"x_max":1119,"o":"m 888 850 l 144 850 l 144 978 l 970 978 q 1024 958 1002 978 q 1046 905 1046 937 l 1046 617 l 888 617 l 888 850 m 75 530 l 1119 530 l 1119 400 l 75 400 l 75 530 m 155 258 l 978 258 q 1022 241 1004 258 q 1040 198 1040 225 l 1040 -164 l 217 -164 q 173 -148 191 -164 q 155 -104 155 -132 l 155 258 m 883 -37 l 883 130 l 312 130 l 312 -37 l 883 -37 z "},"급":{"ha":1194,"x_min":75,"x_max":1119,"o":"m 888 850 l 144 850 l 144 978 l 970 978 q 1024 958 1002 978 q 1046 905 1046 937 l 1046 572 l 888 572 l 888 850 m 75 503 l 1119 503 l 1119 373 l 75 373 l 75 503 m 155 281 l 312 281 l 312 187 l 883 187 l 883 281 l 1040 281 l 1040 -167 l 217 -167 q 173 -151 191 -167 q 155 -107 155 -134 l 155 281 m 883 -37 l 883 65 l 312 65 l 312 -37 l 883 -37 z "},"긊":{"ha":1389,"x_min":0,"x_max":0,"o":""},"긋":{"ha":1194,"x_min":75,"x_max":1119,"o":"m 75 486 l 1119 486 l 1119 355 l 75 355 l 75 486 m 127 -45 q 404 49 289 -23 q 518 232 518 121 l 518 248 l 675 248 l 675 243 q 789 56 675 129 q 1067 -41 903 -16 l 1067 -175 q 858 -125 955 -161 q 694 -41 761 -90 q 601 61 628 8 q 433 -88 560 -22 q 127 -176 307 -155 l 127 -45 m 144 972 l 970 972 q 1024 952 1002 972 q 1046 899 1046 932 l 1046 552 l 888 552 l 888 845 l 144 845 l 144 972 z "},"긌":{"ha":1389,"x_min":0,"x_max":0,"o":""},"긍":{"ha":1194,"x_min":75,"x_max":1119,"o":"m 888 850 l 144 850 l 144 978 l 970 978 q 1024 958 1002 978 q 1046 905 1046 937 l 1046 617 l 888 617 l 888 850 m 75 530 l 1119 530 l 1119 400 l 75 400 l 75 530 m 153 45 q 274 224 153 164 q 598 283 395 283 q 920 224 800 283 q 1040 45 1040 164 q 920 -135 1040 -75 q 598 -195 800 -195 q 274 -135 395 -195 q 153 45 153 -75 m 315 45 q 391 -39 315 -9 q 598 -68 468 -68 q 803 -39 727 -68 q 879 45 879 -9 q 803 127 879 98 q 598 156 727 156 q 391 127 468 156 q 315 45 315 98 z "},"긎":{"ha":1389,"x_min":0,"x_max":0,"o":""},"긏":{"ha":1389,"x_min":0,"x_max":0,"o":""},"긐":{"ha":1389,"x_min":0,"x_max":0,"o":""},"긑":{"ha":1389,"x_min":0,"x_max":0,"o":""},"긒":{"ha":1389,"x_min":0,"x_max":0,"o":""},"긓":{"ha":1389,"x_min":0,"x_max":0,"o":""},"긔":{"ha":1194,"x_min":81,"x_max":1066,"o":"m 582 833 l 111 833 l 111 963 l 663 963 q 718 943 696 963 q 739 890 739 922 l 739 345 l 582 345 l 582 833 m 81 213 l 841 213 l 841 83 l 81 83 l 81 213 m 909 997 l 1066 997 l 1066 24 l 909 24 l 909 997 z "},"긕":{"ha":1389,"x_min":0,"x_max":0,"o":""},"긖":{"ha":1389,"x_min":0,"x_max":0,"o":""},"긗":{"ha":1389,"x_min":0,"x_max":0,"o":""},"긘":{"ha":1389,"x_min":0,"x_max":0,"o":""},"긙":{"ha":1389,"x_min":0,"x_max":0,"o":""},"긚":{"ha":1389,"x_min":0,"x_max":0,"o":""},"긛":{"ha":1389,"x_min":0,"x_max":0,"o":""},"긜":{"ha":1389,"x_min":0,"x_max":0,"o":""},"긝":{"ha":1389,"x_min":0,"x_max":0,"o":""},"긞":{"ha":1389,"x_min":0,"x_max":0,"o":""},"긟":{"ha":1389,"x_min":0,"x_max":0,"o":""},"긠":{"ha":1389,"x_min":0,"x_max":0,"o":""},"긡":{"ha":1389,"x_min":0,"x_max":0,"o":""},"긢":{"ha":1389,"x_min":0,"x_max":0,"o":""},"긣":{"ha":1389,"x_min":0,"x_max":0,"o":""},"긤":{"ha":1389,"x_min":0,"x_max":0,"o":""},"긥":{"ha":1389,"x_min":0,"x_max":0,"o":""},"긦":{"ha":1389,"x_min":0,"x_max":0,"o":""},"긧":{"ha":1389,"x_min":0,"x_max":0,"o":""},"긨":{"ha":1389,"x_min":0,"x_max":0,"o":""},"긩":{"ha":1389,"x_min":0,"x_max":0,"o":""},"긪":{"ha":1389,"x_min":0,"x_max":0,"o":""},"긫":{"ha":1389,"x_min":0,"x_max":0,"o":""},"긬":{"ha":1389,"x_min":0,"x_max":0,"o":""},"긭":{"ha":1389,"x_min":0,"x_max":0,"o":""},"긮":{"ha":1389,"x_min":0,"x_max":0,"o":""},"긯":{"ha":1389,"x_min":0,"x_max":0,"o":""},"기":{"ha":1194,"x_min":84,"x_max":1066,"o":"m 84 213 q 268 277 178 229 q 427 401 358 326 q 524 568 495 476 q 559 831 559 678 l 109 831 l 109 962 l 688 962 q 718 951 705 962 q 730 918 730 941 q 593 372 730 604 q 84 69 456 140 l 84 213 m 909 997 l 1066 997 l 1066 24 l 909 24 l 909 997 z "},"긱":{"ha":1194,"x_min":84,"x_max":1066,"o":"m 84 500 q 264 551 175 513 q 421 642 353 589 q 521 755 490 696 q 545 831 545 804 l 109 831 l 109 962 l 681 962 q 711 951 699 962 q 723 918 723 941 q 670 730 723 845 q 475 508 617 616 q 84 365 332 400 l 84 500 m 232 277 l 990 277 q 1044 256 1023 277 q 1066 203 1066 236 l 1066 -168 l 909 -168 l 909 146 l 232 146 l 232 277 m 909 997 l 1066 997 l 1066 363 l 909 363 l 909 997 z "},"긲":{"ha":1389,"x_min":0,"x_max":0,"o":""},"긳":{"ha":1389,"x_min":0,"x_max":0,"o":""},"긴":{"ha":1194,"x_min":84,"x_max":1086,"o":"m 84 473 q 345 566 225 494 q 515 742 465 639 q 537 793 529 769 q 545 831 545 818 l 109 831 l 109 962 l 681 962 q 711 951 699 962 q 723 918 723 941 q 671 712 723 831 q 476 483 618 593 q 84 338 334 373 l 84 473 m 236 254 l 393 254 l 393 -24 l 1086 -24 l 1086 -155 l 312 -155 q 258 -134 279 -155 q 236 -81 236 -114 l 236 254 m 909 997 l 1066 997 l 1066 189 l 909 189 l 909 997 z "},"긵":{"ha":1389,"x_min":0,"x_max":0,"o":""},"긶":{"ha":1389,"x_min":0,"x_max":0,"o":""},"긷":{"ha":1194,"x_min":84,"x_max":1082,"o":"m 84 500 q 264 551 175 513 q 421 642 353 589 q 521 755 490 696 q 545 831 545 804 l 109 831 l 109 962 l 681 962 q 711 951 699 962 q 723 918 723 941 q 670 730 723 845 q 475 508 617 616 q 84 365 332 400 l 84 500 m 239 282 l 1067 282 l 1067 152 l 396 152 l 396 -34 l 1082 -34 l 1082 -164 l 301 -164 q 257 -148 275 -164 q 239 -104 239 -132 l 239 282 m 909 997 l 1066 997 l 1066 363 l 909 363 l 909 997 z "},"길":{"ha":1194,"x_min":84,"x_max":1081,"o":"m 84 567 q 364 643 237 587 q 533 776 491 699 q 553 837 553 812 l 109 837 l 109 967 l 682 967 q 712 957 700 967 q 724 924 724 947 q 597 630 724 779 q 84 431 471 481 l 84 567 m 232 358 l 996 358 q 1043 341 1023 358 q 1063 298 1063 324 l 1063 95 q 1045 52 1063 68 q 1001 35 1027 35 l 395 35 l 395 -49 l 1081 -49 l 1081 -174 l 342 -174 q 267 -146 297 -174 q 237 -73 237 -118 l 237 110 q 250 140 237 129 q 282 152 263 152 l 906 152 l 906 233 l 232 233 l 232 358 m 909 997 l 1066 997 l 1066 427 l 909 427 l 909 997 z "},"긹":{"ha":1389,"x_min":0,"x_max":0,"o":""},"긺":{"ha":1194,"x_min":84,"x_max":1066,"o":"m 84 567 q 364 643 237 587 q 533 776 491 699 q 553 837 553 812 l 109 837 l 109 967 l 682 967 q 712 957 700 967 q 724 924 724 947 q 597 630 724 779 q 84 431 471 481 l 84 567 m 205 351 l 532 351 q 579 334 559 351 q 600 292 600 317 l 600 94 q 581 50 600 66 q 537 33 563 33 l 365 33 l 365 -49 l 616 -49 l 616 -174 l 294 -174 q 234 -151 258 -174 q 210 -91 210 -127 l 210 106 q 223 137 210 125 q 255 149 236 149 l 450 149 l 450 228 l 205 228 l 205 351 m 655 351 l 990 351 q 1044 331 1023 351 q 1066 277 1066 311 l 1066 -174 l 723 -174 q 655 -107 655 -174 l 655 351 m 914 -49 l 914 228 l 804 228 l 804 -49 l 914 -49 m 909 997 l 1066 997 l 1066 427 l 909 427 l 909 997 z "},"긻":{"ha":1389,"x_min":0,"x_max":0,"o":""},"긼":{"ha":1389,"x_min":0,"x_max":0,"o":""},"긽":{"ha":1389,"x_min":0,"x_max":0,"o":""},"긾":{"ha":1389,"x_min":0,"x_max":0,"o":""},"긿":{"ha":1389,"x_min":0,"x_max":0,"o":""},"김":{"ha":1194,"x_min":84,"x_max":1066,"o":"m 84 500 q 264 551 175 513 q 421 642 353 589 q 521 755 490 696 q 545 831 545 804 l 109 831 l 109 962 l 681 962 q 711 951 699 962 q 723 918 723 941 q 670 730 723 845 q 475 508 617 616 q 84 365 332 400 l 84 500 m 236 288 l 1004 288 q 1048 271 1029 288 q 1066 228 1066 255 l 1066 -164 l 298 -164 q 254 -148 273 -164 q 236 -104 236 -132 l 236 288 m 909 -34 l 909 157 l 393 157 l 393 -34 l 909 -34 m 909 997 l 1066 997 l 1066 363 l 909 363 l 909 997 z "},"깁":{"ha":1194,"x_min":84,"x_max":1066,"o":"m 84 500 q 264 551 175 513 q 421 642 353 589 q 521 755 490 696 q 545 831 545 804 l 109 831 l 109 962 l 681 962 q 711 951 699 962 q 723 918 723 941 q 670 730 723 845 q 475 508 617 616 q 84 365 332 400 l 84 500 m 236 308 l 393 308 l 393 208 l 909 208 l 909 308 l 1066 308 l 1066 -167 l 298 -167 q 254 -151 273 -167 q 236 -107 236 -134 l 236 308 m 909 -37 l 909 85 l 393 85 l 393 -37 l 909 -37 m 909 997 l 1066 997 l 1066 377 l 909 377 l 909 997 z "},"깂":{"ha":1389,"x_min":0,"x_max":0,"o":""},"깃":{"ha":1194,"x_min":84,"x_max":1089,"o":"m 84 473 q 345 566 225 494 q 515 742 465 639 q 537 793 529 769 q 545 831 545 818 l 109 831 l 109 962 l 681 962 q 711 951 699 962 q 723 918 723 941 q 671 712 723 831 q 476 483 618 593 q 84 338 334 373 l 84 473 m 214 -45 q 473 53 374 -22 q 572 256 572 127 l 572 296 l 730 296 l 730 267 q 829 60 730 136 q 1089 -41 928 -15 l 1089 -175 q 811 -86 925 -153 q 655 65 697 -19 q 501 -87 613 -20 q 214 -176 389 -153 l 214 -45 m 909 997 l 1066 997 l 1066 269 l 909 269 l 909 997 z "},"깄":{"ha":1389,"x_min":0,"x_max":0,"o":""},"깅":{"ha":1194,"x_min":84,"x_max":1077,"o":"m 84 500 q 264 551 175 513 q 421 642 353 589 q 521 755 490 696 q 545 831 545 804 l 109 831 l 109 962 l 681 962 q 711 951 699 962 q 723 918 723 941 q 670 730 723 845 q 475 508 617 616 q 84 365 332 400 l 84 500 m 222 60 q 273 191 222 133 q 421 282 324 248 q 651 316 518 316 q 879 282 783 316 q 1026 191 975 248 q 1077 60 1077 133 q 1026 -72 1077 -14 q 879 -164 975 -130 q 651 -198 783 -198 q 421 -164 518 -198 q 273 -72 324 -130 q 222 60 222 -14 m 380 60 q 451 -34 380 3 q 651 -71 522 -71 q 848 -34 777 -71 q 920 60 920 3 q 848 152 920 115 q 651 189 777 189 q 451 152 522 189 q 380 60 380 115 m 909 997 l 1066 997 l 1066 326 l 909 326 l 909 997 z "},"깆":{"ha":1194,"x_min":84,"x_max":1082,"o":"m 84 500 q 264 551 175 513 q 421 642 353 589 q 521 755 490 696 q 545 831 545 804 l 109 831 l 109 962 l 681 962 q 711 951 699 962 q 723 918 723 941 q 670 730 723 845 q 475 508 617 616 q 84 365 332 400 l 84 500 m 221 -45 q 397 -4 316 -35 q 525 68 477 27 q 572 144 572 109 l 572 156 l 232 156 l 232 286 l 1070 286 l 1070 156 l 730 156 l 730 155 q 777 76 730 117 q 906 3 825 35 q 1082 -42 987 -30 l 1082 -175 q 816 -100 930 -156 q 655 27 701 -43 q 496 -102 609 -46 q 221 -176 384 -157 l 221 -45 m 909 997 l 1066 997 l 1066 363 l 909 363 l 909 997 z "},"깇":{"ha":1389,"x_min":0,"x_max":0,"o":""},"깈":{"ha":1389,"x_min":0,"x_max":0,"o":""},"깉":{"ha":1389,"x_min":0,"x_max":0,"o":""},"깊":{"ha":1194,"x_min":84,"x_max":1073,"o":"m 84 500 q 264 551 175 513 q 421 642 353 589 q 521 755 490 696 q 545 831 545 804 l 109 831 l 109 962 l 681 962 q 711 951 699 962 q 723 918 723 941 q 670 730 723 845 q 475 508 617 616 q 84 365 332 400 l 84 500 m 222 -41 l 374 -41 l 370 159 l 228 159 l 228 286 l 1067 286 l 1067 159 l 925 159 l 921 -41 l 1073 -41 l 1073 -168 l 222 -168 l 222 -41 m 532 -41 l 764 -41 l 768 159 l 528 159 l 532 -41 m 909 997 l 1066 997 l 1066 363 l 909 363 l 909 997 z "},"깋":{"ha":1389,"x_min":0,"x_max":0,"o":""},"까":{"ha":1194,"x_min":73,"x_max":1175,"o":"m 73 228 q 191 342 151 259 q 244 545 231 426 q 258 831 258 663 l 98 831 l 98 962 l 368 962 q 397 951 385 962 q 410 918 410 941 l 410 692 q 360 359 410 492 q 234 161 311 227 q 73 81 157 95 l 73 228 m 439 202 q 552 321 515 236 q 598 522 589 406 q 608 831 608 639 l 469 831 l 469 962 l 718 962 q 747 951 735 962 q 760 918 760 941 l 760 651 q 667 220 760 359 q 439 56 574 80 l 439 202 m 892 997 l 1044 997 l 1044 623 l 1175 623 l 1175 492 l 1044 492 l 1044 24 l 892 24 l 892 997 z "},"깍":{"ha":1194,"x_min":73,"x_max":1175,"o":"m 73 534 q 222 638 182 557 q 262 845 263 719 l 98 845 l 98 975 l 372 975 q 401 965 389 975 q 414 932 414 955 l 414 814 q 368 597 414 688 q 245 458 323 507 q 73 400 168 408 l 73 534 m 236 277 l 975 277 q 1029 256 1008 277 q 1051 203 1051 236 l 1051 -168 l 894 -168 l 894 146 l 236 146 l 236 277 m 439 522 q 555 583 515 540 q 608 689 594 627 q 620 845 621 751 l 473 845 l 473 975 l 730 975 q 760 965 747 975 q 772 932 772 955 l 772 787 q 678 494 772 594 q 439 385 585 395 l 439 522 m 895 997 l 1047 997 l 1047 765 l 1175 765 l 1175 637 l 1047 637 l 1047 363 l 895 363 l 895 997 z "},"깎":{"ha":1194,"x_min":73,"x_max":1175,"o":"m 73 534 q 222 638 182 557 q 262 845 263 719 l 98 845 l 98 975 l 372 975 q 401 965 389 975 q 414 932 414 955 l 414 814 q 368 597 414 688 q 245 458 323 507 q 73 400 168 408 l 73 534 m 180 277 l 521 277 q 575 256 553 277 q 597 203 597 236 l 597 -168 l 439 -168 l 439 146 l 180 146 l 180 277 m 439 522 q 555 583 515 540 q 608 689 594 627 q 620 845 621 751 l 473 845 l 473 975 l 730 975 q 760 965 747 975 q 772 932 772 955 l 772 787 q 678 494 772 594 q 439 385 585 395 l 439 522 m 650 277 l 968 277 q 1023 256 1001 277 q 1044 203 1044 236 l 1044 -168 l 887 -168 l 887 146 l 650 146 l 650 277 m 895 997 l 1047 997 l 1047 765 l 1175 765 l 1175 637 l 1047 637 l 1047 363 l 895 363 l 895 997 z "},"깏":{"ha":1389,"x_min":0,"x_max":0,"o":""},"깐":{"ha":1194,"x_min":73,"x_max":1175,"o":"m 73 505 q 223 613 183 528 q 262 845 263 699 l 98 845 l 98 975 l 372 975 q 401 965 389 975 q 414 932 414 955 l 414 784 q 368 568 414 658 q 245 428 323 477 q 73 370 168 378 l 73 505 m 244 254 l 401 254 l 401 -24 l 1059 -24 l 1059 -155 l 320 -155 q 266 -134 288 -155 q 244 -81 244 -114 l 244 254 m 439 492 q 555 555 515 510 q 608 668 594 600 q 620 845 621 736 l 473 845 l 473 975 l 730 975 q 760 965 747 975 q 772 932 772 955 l 772 757 q 678 465 772 564 q 439 355 585 365 l 439 492 m 895 997 l 1047 997 l 1047 758 l 1175 758 l 1175 628 l 1047 628 l 1047 189 l 895 189 l 895 997 z "},"깑":{"ha":1389,"x_min":0,"x_max":0,"o":""},"깒":{"ha":1389,"x_min":0,"x_max":0,"o":""},"깓":{"ha":1389,"x_min":0,"x_max":0,"o":""},"깔":{"ha":1194,"x_min":73,"x_max":1175,"o":"m 73 605 q 222 691 180 628 q 262 845 263 754 l 98 845 l 98 975 l 372 975 q 401 965 389 975 q 414 932 414 955 l 414 841 q 319 576 414 667 q 73 471 224 484 l 73 605 m 240 358 l 974 358 q 1021 341 1001 358 q 1042 298 1042 324 l 1042 95 q 1023 52 1042 68 q 979 35 1005 35 l 403 35 l 403 -49 l 1059 -49 l 1059 -174 l 350 -174 q 275 -146 305 -174 q 245 -73 245 -118 l 245 110 q 258 140 245 129 q 290 152 271 152 l 884 152 l 884 233 l 240 233 l 240 358 m 433 593 q 579 673 538 609 q 620 845 620 738 l 473 845 l 473 975 l 730 975 q 760 965 747 975 q 772 932 772 955 l 772 834 q 679 553 772 637 q 433 456 586 469 l 433 593 m 895 997 l 1047 997 l 1047 798 l 1175 798 l 1175 670 l 1047 670 l 1047 427 l 895 427 l 895 997 z "},"깕":{"ha":1389,"x_min":0,"x_max":0,"o":""},"깖":{"ha":1194,"x_min":73,"x_max":1175,"o":"m 73 605 q 222 691 180 628 q 262 845 263 754 l 98 845 l 98 975 l 372 975 q 401 965 389 975 q 414 932 414 955 l 414 841 q 319 576 414 667 q 73 471 224 484 l 73 605 m 213 351 l 526 351 q 574 334 553 351 q 594 292 594 317 l 594 94 q 576 50 594 66 q 532 33 557 33 l 373 33 l 373 -49 l 610 -49 l 610 -174 l 302 -174 q 242 -151 266 -174 q 218 -91 218 -127 l 218 106 q 231 137 218 125 q 263 149 244 149 l 445 149 l 445 228 l 213 228 l 213 351 m 433 593 q 579 673 538 609 q 620 845 620 738 l 473 845 l 473 975 l 730 975 q 760 965 747 975 q 772 932 772 955 l 772 834 q 679 553 772 637 q 433 456 586 469 l 433 593 m 650 351 l 971 351 q 1025 331 1004 351 q 1047 277 1047 311 l 1047 -174 l 718 -174 q 650 -107 650 -174 l 650 351 m 895 -49 l 895 228 l 799 228 l 799 -49 l 895 -49 m 895 997 l 1047 997 l 1047 798 l 1175 798 l 1175 670 l 1047 670 l 1047 427 l 895 427 l 895 997 z "},"깗":{"ha":1389,"x_min":0,"x_max":0,"o":""},"깘":{"ha":1389,"x_min":0,"x_max":0,"o":""},"깙":{"ha":1389,"x_min":0,"x_max":0,"o":""},"깚":{"ha":1389,"x_min":0,"x_max":0,"o":""},"깛":{"ha":1389,"x_min":0,"x_max":0,"o":""},"깜":{"ha":1194,"x_min":73,"x_max":1175,"o":"m 73 534 q 222 638 182 557 q 262 845 263 719 l 98 845 l 98 975 l 372 975 q 401 965 389 975 q 414 932 414 955 l 414 814 q 368 597 414 688 q 245 458 323 507 q 73 400 168 408 l 73 534 m 239 288 l 985 288 q 1029 271 1010 288 q 1047 228 1047 255 l 1047 -164 l 301 -164 q 257 -148 275 -164 q 239 -104 239 -132 l 239 288 m 890 -34 l 890 157 l 396 157 l 396 -34 l 890 -34 m 439 522 q 555 583 515 540 q 608 689 594 627 q 620 845 621 751 l 473 845 l 473 975 l 730 975 q 760 965 747 975 q 772 932 772 955 l 772 787 q 678 494 772 594 q 439 385 585 395 l 439 522 m 895 997 l 1047 997 l 1047 765 l 1175 765 l 1175 637 l 1047 637 l 1047 363 l 895 363 l 895 997 z "},"깝":{"ha":1194,"x_min":73,"x_max":1175,"o":"m 73 534 q 222 638 182 557 q 262 845 263 719 l 98 845 l 98 975 l 372 975 q 401 965 389 975 q 414 932 414 955 l 414 814 q 368 597 414 688 q 245 458 323 507 q 73 400 168 408 l 73 534 m 239 308 l 396 308 l 396 208 l 890 208 l 890 308 l 1047 308 l 1047 -167 l 301 -167 q 257 -151 275 -167 q 239 -107 239 -134 l 239 308 m 890 -37 l 890 85 l 396 85 l 396 -37 l 890 -37 m 439 522 q 555 583 515 540 q 608 689 594 627 q 620 845 621 751 l 473 845 l 473 975 l 730 975 q 760 965 747 975 q 772 932 772 955 l 772 787 q 678 494 772 594 q 439 385 585 395 l 439 522 m 895 997 l 1047 997 l 1047 765 l 1175 765 l 1175 637 l 1047 637 l 1047 377 l 895 377 l 895 997 z "},"깞":{"ha":1389,"x_min":0,"x_max":0,"o":""},"깟":{"ha":1194,"x_min":73,"x_max":1175,"o":"m 73 534 q 222 638 182 557 q 262 845 263 719 l 98 845 l 98 975 l 372 975 q 401 965 389 975 q 414 932 414 955 l 414 814 q 368 597 414 688 q 245 458 323 507 q 73 400 168 408 l 73 534 m 220 -45 q 471 53 377 -22 q 564 256 564 127 l 564 296 l 722 296 l 722 267 q 815 60 722 134 q 1067 -41 909 -15 l 1067 -175 q 798 -87 905 -153 q 647 65 690 -20 q 498 -87 604 -22 q 220 -176 393 -153 l 220 -45 m 439 522 q 555 583 515 540 q 608 689 594 627 q 620 845 621 751 l 473 845 l 473 975 l 730 975 q 760 965 747 975 q 772 932 772 955 l 772 787 q 678 494 772 594 q 439 385 585 395 l 439 522 m 895 997 l 1047 997 l 1047 765 l 1175 765 l 1175 637 l 1047 637 l 1047 269 l 895 269 l 895 997 z "},"깠":{"ha":1194,"x_min":73,"x_max":1175,"o":"m 73 534 q 222 638 182 557 q 262 845 263 719 l 98 845 l 98 975 l 372 975 q 401 965 389 975 q 414 932 414 955 l 414 814 q 368 597 414 688 q 245 458 323 507 q 73 400 168 408 l 73 534 m 170 -35 q 241 3 202 -31 q 308 98 281 37 q 335 239 335 159 l 335 296 l 492 296 l 492 250 q 533 82 492 151 q 624 -23 574 14 q 713 76 673 9 q 754 239 754 142 l 754 296 l 911 296 l 911 250 q 939 105 911 167 q 1006 9 967 43 q 1078 -31 1044 -24 l 1078 -175 q 936 -97 1006 -163 q 837 46 865 -31 q 753 -90 811 -28 q 624 -176 696 -152 q 502 -88 562 -152 q 418 46 442 -24 q 321 -99 389 -34 q 170 -176 252 -164 l 170 -35 m 439 522 q 555 583 515 540 q 608 689 594 627 q 620 845 621 751 l 473 845 l 473 975 l 730 975 q 760 965 747 975 q 772 932 772 955 l 772 787 q 678 494 772 594 q 439 385 585 395 l 439 522 m 895 997 l 1047 997 l 1047 765 l 1175 765 l 1175 637 l 1047 637 l 1047 363 l 895 363 l 895 997 z "}}}
